<svg width="162" height="45" viewBox="0 0 162 45" fill="none" xmlns="http://www.w3.org/2000/svg">
<rect width="162" height="45" rx="10" fill="#92D3CA"/>
<path d="M81.4326 27.5059C81.3968 27.6276 81.3503 27.7279 81.293 27.8066C81.2357 27.8783 81.1426 27.9355 81.0137 27.9785C80.8848 28.0143 80.7093 28.0358 80.4873 28.043C80.2653 28.0573 79.9753 28.0645 79.6172 28.0645C79.3307 28.0645 79.0837 28.0609 78.876 28.0537C78.6755 28.0537 78.5036 28.0465 78.3604 28.0322C78.2171 28.0179 78.099 27.9964 78.0059 27.9678C77.9199 27.9391 77.8447 27.9033 77.7803 27.8604C77.723 27.8174 77.6764 27.7673 77.6406 27.71C77.612 27.6455 77.5833 27.5667 77.5547 27.4736L73.4189 15.1523C73.333 14.8945 73.2793 14.6904 73.2578 14.54C73.2435 14.3896 73.2793 14.2786 73.3652 14.207C73.4583 14.1283 73.6123 14.0817 73.8271 14.0674C74.042 14.0459 74.3428 14.0352 74.7295 14.0352C75.0589 14.0352 75.3167 14.0423 75.5029 14.0566C75.6891 14.071 75.8324 14.096 75.9326 14.1318C76.0329 14.1676 76.1009 14.2214 76.1367 14.293C76.1797 14.3646 76.2191 14.4541 76.2549 14.5615L79.6387 25.2822H79.6494L82.9688 14.6152C82.9974 14.4935 83.0332 14.3968 83.0762 14.3252C83.1191 14.2464 83.1908 14.1855 83.291 14.1426C83.3984 14.0996 83.5488 14.071 83.7422 14.0566C83.9355 14.0423 84.2005 14.0352 84.5371 14.0352C84.8665 14.0352 85.1208 14.0459 85.2998 14.0674C85.486 14.0889 85.6113 14.1426 85.6758 14.2285C85.7474 14.3073 85.7689 14.4219 85.7402 14.5723C85.7188 14.7227 85.665 14.9232 85.5791 15.1738L81.4326 27.5059ZM96.0312 22.7471C96.0312 23.5635 95.9238 24.3083 95.709 24.9814C95.4941 25.6546 95.1683 26.2347 94.7314 26.7217C94.2946 27.2087 93.7467 27.5846 93.0879 27.8496C92.429 28.1146 91.6592 28.2471 90.7783 28.2471C89.9261 28.2471 89.1849 28.1289 88.5547 27.8926C87.9245 27.6562 87.4017 27.3125 86.9863 26.8613C86.571 26.4102 86.263 25.8551 86.0625 25.1963C85.862 24.5374 85.7617 23.7855 85.7617 22.9404C85.7617 22.124 85.8691 21.3792 86.084 20.7061C86.306 20.0257 86.6354 19.4456 87.0723 18.9658C87.5091 18.4788 88.0534 18.1029 88.7051 17.8379C89.3639 17.5729 90.1338 17.4404 91.0146 17.4404C91.874 17.4404 92.6188 17.5586 93.249 17.7949C93.8792 18.0241 94.3984 18.3643 94.8066 18.8154C95.222 19.2666 95.5299 19.8216 95.7305 20.4805C95.931 21.1393 96.0312 21.8949 96.0312 22.7471ZM93.249 22.8545C93.249 22.3818 93.2096 21.9486 93.1309 21.5547C93.0592 21.1536 92.9339 20.8063 92.7549 20.5127C92.5758 20.2191 92.3359 19.9899 92.0352 19.8252C91.7415 19.6605 91.3691 19.5781 90.918 19.5781C90.5169 19.5781 90.166 19.6533 89.8652 19.8037C89.5645 19.9469 89.3174 20.1618 89.124 20.4482C88.9307 20.7275 88.7839 21.0677 88.6836 21.4688C88.5905 21.8626 88.5439 22.3138 88.5439 22.8223C88.5439 23.2949 88.5833 23.7318 88.6621 24.1328C88.7409 24.5267 88.8662 24.8704 89.0381 25.1641C89.2171 25.4577 89.457 25.6868 89.7578 25.8516C90.0586 26.0091 90.431 26.0879 90.875 26.0879C91.2832 26.0879 91.6377 26.0163 91.9385 25.873C92.2393 25.7227 92.4863 25.5078 92.6797 25.2285C92.873 24.9492 93.0163 24.6126 93.1094 24.2188C93.2025 23.8177 93.249 23.363 93.249 22.8545ZM100.887 27.6348C100.887 27.7064 100.865 27.7708 100.822 27.8281C100.779 27.8783 100.704 27.9212 100.597 27.957C100.496 27.9928 100.36 28.0179 100.188 28.0322C100.017 28.0537 99.7982 28.0645 99.5332 28.0645C99.2682 28.0645 99.0498 28.0537 98.8779 28.0322C98.7061 28.0179 98.5664 27.9928 98.459 27.957C98.3587 27.9212 98.2871 27.8783 98.2441 27.8281C98.2012 27.7708 98.1797 27.7064 98.1797 27.6348V13.5088C98.1797 13.4372 98.2012 13.3727 98.2441 13.3154C98.2871 13.2581 98.3587 13.2116 98.459 13.1758C98.5664 13.1328 98.7061 13.1006 98.8779 13.0791C99.0498 13.0576 99.2682 13.0469 99.5332 13.0469C99.7982 13.0469 100.017 13.0576 100.188 13.0791C100.36 13.1006 100.496 13.1328 100.597 13.1758C100.704 13.2116 100.779 13.2581 100.822 13.3154C100.865 13.3727 100.887 13.4372 100.887 13.5088V27.6348ZM109.266 26.6895C109.266 27.0046 109.244 27.248 109.201 27.4199C109.165 27.5846 109.115 27.7028 109.051 27.7744C108.986 27.8389 108.89 27.8997 108.761 27.957C108.639 28.0072 108.492 28.0501 108.32 28.0859C108.156 28.1289 107.973 28.1611 107.772 28.1826C107.579 28.2041 107.382 28.2148 107.182 28.2148C106.645 28.2148 106.179 28.1468 105.785 28.0107C105.391 27.8747 105.065 27.667 104.808 27.3877C104.55 27.1012 104.36 26.7432 104.238 26.3135C104.117 25.8838 104.056 25.3753 104.056 24.7881V19.8789H102.906C102.77 19.8789 102.666 19.7965 102.595 19.6318C102.523 19.46 102.487 19.1771 102.487 18.7832C102.487 18.5755 102.494 18.4001 102.509 18.2568C102.53 18.1136 102.559 18.0026 102.595 17.9238C102.631 17.8379 102.674 17.777 102.724 17.7412C102.781 17.7054 102.845 17.6875 102.917 17.6875H104.056V15.5498C104.056 15.4782 104.074 15.4137 104.109 15.3564C104.152 15.2992 104.224 15.2526 104.324 15.2168C104.432 15.1738 104.571 15.1452 104.743 15.1309C104.922 15.1094 105.141 15.0986 105.398 15.0986C105.663 15.0986 105.882 15.1094 106.054 15.1309C106.233 15.1452 106.372 15.1738 106.473 15.2168C106.573 15.2526 106.645 15.2992 106.688 15.3564C106.73 15.4137 106.752 15.4782 106.752 15.5498V17.6875H108.836C108.908 17.6875 108.968 17.7054 109.019 17.7412C109.076 17.777 109.122 17.8379 109.158 17.9238C109.194 18.0026 109.219 18.1136 109.233 18.2568C109.255 18.4001 109.266 18.5755 109.266 18.7832C109.266 19.1771 109.23 19.46 109.158 19.6318C109.087 19.7965 108.983 19.8789 108.847 19.8789H106.752V24.3799C106.752 24.9027 106.834 25.2965 106.999 25.5615C107.164 25.8193 107.457 25.9482 107.88 25.9482C108.023 25.9482 108.152 25.9375 108.267 25.916C108.381 25.8874 108.481 25.8587 108.567 25.8301C108.66 25.7943 108.736 25.7656 108.793 25.7441C108.857 25.7155 108.915 25.7012 108.965 25.7012C109.008 25.7012 109.047 25.7155 109.083 25.7441C109.126 25.7656 109.158 25.8158 109.18 25.8945C109.201 25.9661 109.219 26.0664 109.233 26.1953C109.255 26.3242 109.266 26.4889 109.266 26.6895ZM119.17 27.667C119.17 27.7673 119.134 27.846 119.062 27.9033C118.991 27.9606 118.876 28 118.719 28.0215C118.568 28.0501 118.343 28.0645 118.042 28.0645C117.72 28.0645 117.483 28.0501 117.333 28.0215C117.19 28 117.086 27.9606 117.021 27.9033C116.964 27.846 116.936 27.7673 116.936 27.667V26.9043C116.542 27.3268 116.09 27.6562 115.582 27.8926C115.081 28.1289 114.522 28.2471 113.906 28.2471C113.398 28.2471 112.929 28.179 112.499 28.043C112.076 27.9141 111.708 27.7207 111.393 27.4629C111.085 27.1979 110.845 26.8721 110.673 26.4854C110.501 26.0986 110.415 25.6475 110.415 25.1318C110.415 24.5732 110.522 24.0898 110.737 23.6816C110.959 23.2663 111.285 22.9261 111.715 22.6611C112.152 22.389 112.692 22.1885 113.337 22.0596C113.981 21.9307 114.73 21.8662 115.582 21.8662H116.517V21.2861C116.517 20.9854 116.484 20.724 116.42 20.502C116.363 20.2728 116.262 20.083 116.119 19.9326C115.983 19.7822 115.797 19.6712 115.561 19.5996C115.331 19.528 115.045 19.4922 114.701 19.4922C114.25 19.4922 113.845 19.5423 113.487 19.6426C113.136 19.7428 112.825 19.8538 112.553 19.9756C112.281 20.0973 112.051 20.2083 111.865 20.3086C111.686 20.4089 111.539 20.459 111.425 20.459C111.346 20.459 111.274 20.4339 111.21 20.3838C111.153 20.3337 111.103 20.262 111.06 20.1689C111.024 20.0758 110.995 19.9613 110.974 19.8252C110.952 19.6891 110.941 19.5387 110.941 19.374C110.941 19.152 110.959 18.9766 110.995 18.8477C111.031 18.7188 111.099 18.6042 111.199 18.5039C111.299 18.3965 111.475 18.2819 111.726 18.1602C111.976 18.0312 112.27 17.9131 112.606 17.8057C112.943 17.6982 113.308 17.6123 113.702 17.5479C114.103 17.4762 114.515 17.4404 114.938 17.4404C115.689 17.4404 116.33 17.5156 116.86 17.666C117.397 17.8092 117.838 18.0348 118.182 18.3428C118.525 18.6436 118.776 19.0339 118.934 19.5137C119.091 19.9935 119.17 20.5628 119.17 21.2217V27.667ZM116.517 23.5635H115.485C115.049 23.5635 114.676 23.5957 114.368 23.6602C114.06 23.7246 113.81 23.8213 113.616 23.9502C113.423 24.0791 113.28 24.2367 113.187 24.4229C113.101 24.6019 113.058 24.8096 113.058 25.0459C113.058 25.4469 113.183 25.762 113.434 25.9912C113.691 26.2204 114.046 26.335 114.497 26.335C114.877 26.335 115.224 26.2383 115.539 26.0449C115.861 25.8516 116.187 25.5687 116.517 25.1963V23.5635ZM128.032 18.9443C128.032 19.2021 128.025 19.4134 128.011 19.5781C127.996 19.7428 127.975 19.8717 127.946 19.9648C127.918 20.0579 127.878 20.1224 127.828 20.1582C127.785 20.194 127.728 20.2119 127.656 20.2119C127.599 20.2119 127.535 20.2012 127.463 20.1797C127.391 20.151 127.309 20.1224 127.216 20.0938C127.13 20.0651 127.033 20.04 126.926 20.0186C126.818 19.9899 126.7 19.9756 126.571 19.9756C126.421 19.9756 126.271 20.0078 126.12 20.0723C125.97 20.1296 125.812 20.2227 125.647 20.3516C125.49 20.4805 125.322 20.6523 125.143 20.8672C124.971 21.082 124.785 21.347 124.584 21.6621V27.6348C124.584 27.7064 124.562 27.7708 124.52 27.8281C124.477 27.8783 124.401 27.9212 124.294 27.957C124.194 27.9928 124.058 28.0179 123.886 28.0322C123.714 28.0537 123.495 28.0645 123.23 28.0645C122.965 28.0645 122.747 28.0537 122.575 28.0322C122.403 28.0179 122.264 27.9928 122.156 27.957C122.056 27.9212 121.984 27.8783 121.941 27.8281C121.898 27.7708 121.877 27.7064 121.877 27.6348V18.0527C121.877 17.9811 121.895 17.9202 121.931 17.8701C121.966 17.8128 122.031 17.7663 122.124 17.7305C122.217 17.6947 122.335 17.6696 122.479 17.6553C122.629 17.6338 122.815 17.623 123.037 17.623C123.266 17.623 123.456 17.6338 123.606 17.6553C123.757 17.6696 123.871 17.6947 123.95 17.7305C124.036 17.7663 124.097 17.8128 124.133 17.8701C124.169 17.9202 124.187 17.9811 124.187 18.0527V19.2451C124.437 18.887 124.674 18.5934 124.896 18.3643C125.118 18.1279 125.329 17.9417 125.529 17.8057C125.73 17.6696 125.93 17.5765 126.131 17.5264C126.331 17.4691 126.532 17.4404 126.732 17.4404C126.826 17.4404 126.926 17.4476 127.033 17.4619C127.141 17.4691 127.252 17.487 127.366 17.5156C127.481 17.5371 127.581 17.5658 127.667 17.6016C127.753 17.6302 127.814 17.6624 127.85 17.6982C127.893 17.734 127.921 17.7734 127.936 17.8164C127.957 17.8594 127.975 17.9202 127.989 17.999C128.004 18.0706 128.014 18.1816 128.021 18.332C128.029 18.4824 128.032 18.6865 128.032 18.9443Z" fill="#5A5D8C"/>
<path d="M16 23H28H40" stroke="#5A5D8C" stroke-width="3" stroke-linecap="round"/>
<path d="M24 14L15 23L24 32" stroke="#5A5D8C" stroke-width="3" stroke-linecap="round" stroke-linejoin="round"/>
</svg>
