<svg width="162" height="45" viewBox="0 0 162 45" fill="none" xmlns="http://www.w3.org/2000/svg">
<rect width="162" height="45" rx="10" fill="#92D3CA"/>
<path d="M36.9014 26.9473C36.9873 27.2051 37.041 27.4092 37.0625 27.5596C37.084 27.71 37.0553 27.8245 36.9766 27.9033C36.8978 27.9749 36.7581 28.0179 36.5576 28.0322C36.3571 28.0537 36.0814 28.0645 35.7305 28.0645C35.3652 28.0645 35.0788 28.0573 34.8711 28.043C34.6706 28.0358 34.5166 28.0179 34.4092 27.9893C34.3018 27.9535 34.2266 27.9069 34.1836 27.8496C34.1406 27.7923 34.1048 27.7171 34.0762 27.624L33.1416 24.8311H27.9209L27.04 27.5488C27.0114 27.6491 26.972 27.735 26.9219 27.8066C26.8789 27.8711 26.8037 27.9248 26.6963 27.9678C26.596 28.0036 26.4492 28.0286 26.2559 28.043C26.0697 28.0573 25.8226 28.0645 25.5146 28.0645C25.1852 28.0645 24.9274 28.0537 24.7412 28.0322C24.555 28.0107 24.4261 27.9606 24.3545 27.8818C24.2829 27.7959 24.2578 27.6777 24.2793 27.5273C24.3008 27.377 24.3545 27.1764 24.4404 26.9258L28.7266 14.5938C28.7695 14.472 28.8197 14.3753 28.877 14.3037C28.9342 14.2249 29.0238 14.1676 29.1455 14.1318C29.2744 14.0889 29.4499 14.0638 29.6719 14.0566C29.8939 14.0423 30.1875 14.0352 30.5527 14.0352C30.9753 14.0352 31.3118 14.0423 31.5625 14.0566C31.8132 14.0638 32.0065 14.0889 32.1426 14.1318C32.2858 14.1676 32.3861 14.2249 32.4434 14.3037C32.5078 14.3825 32.5615 14.4899 32.6045 14.626L36.9014 26.9473ZM30.5205 16.7529H30.5098L28.5439 22.6611H32.4863L30.5205 16.7529ZM46.9775 18.042C46.9775 18.0778 46.974 18.1208 46.9668 18.1709C46.9668 18.221 46.9596 18.2783 46.9453 18.3428C46.9382 18.4001 46.9238 18.4681 46.9023 18.5469C46.888 18.6257 46.8665 18.7152 46.8379 18.8154L43.959 27.4844C43.9232 27.6061 43.873 27.7064 43.8086 27.7852C43.7513 27.8568 43.651 27.9141 43.5078 27.957C43.3717 28 43.182 28.0286 42.9385 28.043C42.7021 28.0573 42.3906 28.0645 42.0039 28.0645C41.6243 28.0645 41.3128 28.0537 41.0693 28.0322C40.833 28.0179 40.6468 27.9893 40.5107 27.9463C40.3747 27.9033 40.2744 27.846 40.21 27.7744C40.1527 27.6956 40.1061 27.599 40.0703 27.4844L37.1914 18.8154C37.1484 18.6722 37.1126 18.5433 37.084 18.4287C37.0625 18.3141 37.0482 18.2318 37.041 18.1816C37.041 18.1315 37.041 18.085 37.041 18.042C37.041 17.9704 37.0589 17.9095 37.0947 17.8594C37.1377 17.8021 37.2093 17.7555 37.3096 17.7197C37.4098 17.6839 37.5459 17.6589 37.7178 17.6445C37.8968 17.6302 38.1188 17.623 38.3838 17.623C38.6774 17.623 38.9137 17.6338 39.0928 17.6553C39.2718 17.6696 39.4115 17.6947 39.5117 17.7305C39.6191 17.7591 39.6943 17.8057 39.7373 17.8701C39.7803 17.9274 39.8161 17.999 39.8447 18.085L42.0254 25.1211L42.0898 25.3896L42.1543 25.1211L44.3027 18.085C44.3242 17.999 44.3564 17.9274 44.3994 17.8701C44.4495 17.8057 44.5247 17.7591 44.625 17.7305C44.7253 17.6947 44.8577 17.6696 45.0225 17.6553C45.1943 17.6338 45.4163 17.623 45.6885 17.623C45.9535 17.623 46.1683 17.6302 46.333 17.6445C46.5049 17.6589 46.6374 17.6839 46.7305 17.7197C46.8236 17.7555 46.888 17.8021 46.9238 17.8594C46.9596 17.9095 46.9775 17.9704 46.9775 18.042ZM56.4199 27.667C56.4199 27.7673 56.3841 27.846 56.3125 27.9033C56.2409 27.9606 56.1263 28 55.9688 28.0215C55.8184 28.0501 55.5928 28.0645 55.292 28.0645C54.9697 28.0645 54.7334 28.0501 54.583 28.0215C54.4398 28 54.3359 27.9606 54.2715 27.9033C54.2142 27.846 54.1855 27.7673 54.1855 27.667V26.9043C53.7917 27.3268 53.3405 27.6562 52.832 27.8926C52.3307 28.1289 51.7721 28.2471 51.1562 28.2471C50.6478 28.2471 50.1787 28.179 49.749 28.043C49.3265 27.9141 48.9577 27.7207 48.6426 27.4629C48.3346 27.1979 48.0947 26.8721 47.9229 26.4854C47.751 26.0986 47.665 25.6475 47.665 25.1318C47.665 24.5732 47.7725 24.0898 47.9873 23.6816C48.2093 23.2663 48.5352 22.9261 48.9648 22.6611C49.4017 22.389 49.9424 22.1885 50.5869 22.0596C51.2314 21.9307 51.9798 21.8662 52.832 21.8662H53.7666V21.2861C53.7666 20.9854 53.7344 20.724 53.6699 20.502C53.6126 20.2728 53.5124 20.083 53.3691 19.9326C53.2331 19.7822 53.0469 19.6712 52.8105 19.5996C52.5814 19.528 52.2949 19.4922 51.9512 19.4922C51.5 19.4922 51.0954 19.5423 50.7373 19.6426C50.3864 19.7428 50.0749 19.8538 49.8027 19.9756C49.5306 20.0973 49.3014 20.2083 49.1152 20.3086C48.9362 20.4089 48.7894 20.459 48.6748 20.459C48.596 20.459 48.5244 20.4339 48.46 20.3838C48.4027 20.3337 48.3525 20.262 48.3096 20.1689C48.2738 20.0758 48.2451 19.9613 48.2236 19.8252C48.2021 19.6891 48.1914 19.5387 48.1914 19.374C48.1914 19.152 48.2093 18.9766 48.2451 18.8477C48.2809 18.7188 48.349 18.6042 48.4492 18.5039C48.5495 18.3965 48.7249 18.2819 48.9756 18.1602C49.2262 18.0312 49.5199 17.9131 49.8564 17.8057C50.193 17.6982 50.5583 17.6123 50.9521 17.5479C51.3532 17.4762 51.765 17.4404 52.1875 17.4404C52.9395 17.4404 53.5804 17.5156 54.1104 17.666C54.6475 17.8092 55.0879 18.0348 55.4316 18.3428C55.7754 18.6436 56.026 19.0339 56.1836 19.5137C56.3411 19.9935 56.4199 20.5628 56.4199 21.2217V27.667ZM53.7666 23.5635H52.7354C52.2985 23.5635 51.9261 23.5957 51.6182 23.6602C51.3102 23.7246 51.0596 23.8213 50.8662 23.9502C50.6729 24.0791 50.5296 24.2367 50.4365 24.4229C50.3506 24.6019 50.3076 24.8096 50.3076 25.0459C50.3076 25.4469 50.4329 25.762 50.6836 25.9912C50.9414 26.2204 51.2959 26.335 51.7471 26.335C52.1266 26.335 52.474 26.2383 52.7891 26.0449C53.1113 25.8516 53.4372 25.5687 53.7666 25.1963V23.5635ZM68.2793 27.6348C68.2793 27.7064 68.2578 27.7708 68.2148 27.8281C68.1719 27.8783 68.1003 27.9212 68 27.957C67.8997 27.9928 67.7601 28.0179 67.5811 28.0322C67.4092 28.0537 67.1943 28.0645 66.9365 28.0645C66.6715 28.0645 66.4495 28.0537 66.2705 28.0322C66.0986 28.0179 65.9626 27.9928 65.8623 27.957C65.762 27.9212 65.6904 27.8783 65.6475 27.8281C65.6045 27.7708 65.583 27.7064 65.583 27.6348V22.167C65.583 21.7015 65.5472 21.3363 65.4756 21.0713C65.4111 20.8063 65.3145 20.5807 65.1855 20.3945C65.0566 20.2012 64.8883 20.0544 64.6807 19.9541C64.4801 19.8467 64.2438 19.793 63.9717 19.793C63.6279 19.793 63.2806 19.9183 62.9297 20.1689C62.5788 20.4196 62.2135 20.7848 61.834 21.2646V27.6348C61.834 27.7064 61.8125 27.7708 61.7695 27.8281C61.7266 27.8783 61.6514 27.9212 61.5439 27.957C61.4437 27.9928 61.3076 28.0179 61.1357 28.0322C60.9639 28.0537 60.7454 28.0645 60.4805 28.0645C60.2155 28.0645 59.9971 28.0537 59.8252 28.0322C59.6533 28.0179 59.5137 27.9928 59.4062 27.957C59.306 27.9212 59.2344 27.8783 59.1914 27.8281C59.1484 27.7708 59.127 27.7064 59.127 27.6348V18.0527C59.127 17.9811 59.1449 17.9202 59.1807 17.8701C59.2165 17.8128 59.2809 17.7663 59.374 17.7305C59.4671 17.6947 59.5853 17.6696 59.7285 17.6553C59.8789 17.6338 60.0651 17.623 60.2871 17.623C60.5163 17.623 60.7061 17.6338 60.8564 17.6553C61.0068 17.6696 61.1214 17.6947 61.2002 17.7305C61.2861 17.7663 61.347 17.8128 61.3828 17.8701C61.4186 17.9202 61.4365 17.9811 61.4365 18.0527V19.1592C61.9665 18.5863 62.5036 18.1566 63.0479 17.8701C63.5993 17.5837 64.1722 17.4404 64.7666 17.4404C65.4183 17.4404 65.9661 17.5479 66.4102 17.7627C66.8613 17.9775 67.223 18.2712 67.4951 18.6436C67.7744 19.0088 67.9749 19.4385 68.0967 19.9326C68.2184 20.4268 68.2793 21.0212 68.2793 21.7158V27.6348ZM78.1943 26.1094C78.1943 26.2956 78.1872 26.4531 78.1729 26.582C78.1657 26.7038 78.1514 26.8076 78.1299 26.8936C78.1156 26.9795 78.0941 27.0511 78.0654 27.1084C78.0439 27.1585 77.9902 27.2266 77.9043 27.3125C77.8184 27.3913 77.668 27.4915 77.4531 27.6133C77.2383 27.735 76.9805 27.8496 76.6797 27.957C76.3861 28.0573 76.071 28.1289 75.7344 28.1719L75.9707 28.709C76.0996 28.9883 76.1927 29.2318 76.25 29.4395C76.3073 29.6471 76.3359 29.8477 76.3359 30.041C76.3359 30.3704 76.2751 30.6533 76.1533 30.8896C76.0387 31.126 75.874 31.3193 75.6592 31.4697C75.4515 31.6201 75.208 31.7311 74.9287 31.8027C74.6566 31.8815 74.3594 31.9209 74.0371 31.9209C73.722 31.9209 73.4284 31.8994 73.1562 31.8564C72.8913 31.8135 72.6693 31.7669 72.4902 31.7168C72.3112 31.6667 72.1823 31.6237 72.1035 31.5879C72.0319 31.5521 71.9818 31.5055 71.9531 31.4482C71.9245 31.391 71.903 31.3158 71.8887 31.2227C71.8743 31.1367 71.8672 31.015 71.8672 30.8574C71.8672 30.571 71.8923 30.3704 71.9424 30.2559C71.9997 30.1484 72.0999 30.0947 72.2432 30.0947H73.4893C73.6969 30.0947 73.8509 30.0482 73.9512 29.9551C74.0514 29.8691 74.1016 29.7474 74.1016 29.5898C74.1016 29.5039 74.0837 29.4072 74.0479 29.2998C74.0192 29.1924 73.9798 29.0814 73.9297 28.9668L73.5107 28.0537C72.8089 27.8747 72.2253 27.5632 71.7598 27.1191C71.2943 26.668 70.9434 26.1022 70.707 25.4219C70.4779 24.7344 70.3633 23.9359 70.3633 23.0264C70.3633 22.0667 70.4814 21.2396 70.7178 20.5449C70.9613 19.8431 71.2979 19.263 71.7275 18.8047C72.1572 18.3464 72.6657 18.0062 73.2529 17.7842C73.8402 17.5622 74.4847 17.4512 75.1865 17.4512C75.473 17.4512 75.7523 17.4762 76.0244 17.5264C76.3037 17.5765 76.5615 17.6445 76.7979 17.7305C77.0413 17.8164 77.2562 17.9131 77.4424 18.0205C77.6357 18.1279 77.7718 18.221 77.8506 18.2998C77.9294 18.3786 77.9831 18.4466 78.0117 18.5039C78.0475 18.554 78.0726 18.6221 78.0869 18.708C78.1084 18.7939 78.1227 18.9014 78.1299 19.0303C78.1442 19.152 78.1514 19.3024 78.1514 19.4814C78.1514 19.8968 78.1156 20.1904 78.0439 20.3623C77.9723 20.527 77.8792 20.6094 77.7646 20.6094C77.6429 20.6094 77.514 20.5592 77.3779 20.459C77.2419 20.3587 77.0807 20.2477 76.8945 20.126C76.7083 20.0042 76.4863 19.8932 76.2285 19.793C75.9707 19.6927 75.6628 19.6426 75.3047 19.6426C74.6029 19.6426 74.0658 19.9147 73.6934 20.459C73.321 20.9961 73.1348 21.7874 73.1348 22.833C73.1348 23.3486 73.1813 23.8034 73.2744 24.1973C73.3675 24.5911 73.5036 24.9206 73.6826 25.1855C73.8688 25.4505 74.098 25.651 74.3701 25.7871C74.6494 25.916 74.9717 25.9805 75.3369 25.9805C75.7093 25.9805 76.028 25.9268 76.293 25.8193C76.5651 25.7048 76.8014 25.5794 77.002 25.4434C77.2025 25.3073 77.3708 25.1855 77.5068 25.0781C77.6429 24.9635 77.7575 24.9062 77.8506 24.9062C77.915 24.9062 77.9688 24.9242 78.0117 24.96C78.0547 24.9958 78.0869 25.0638 78.1084 25.1641C78.137 25.2572 78.1585 25.3789 78.1729 25.5293C78.1872 25.6797 78.1943 25.873 78.1943 26.1094ZM88.1953 27.667C88.1953 27.7673 88.1595 27.846 88.0879 27.9033C88.0163 27.9606 87.9017 28 87.7441 28.0215C87.5938 28.0501 87.3682 28.0645 87.0674 28.0645C86.7451 28.0645 86.5088 28.0501 86.3584 28.0215C86.2152 28 86.1113 27.9606 86.0469 27.9033C85.9896 27.846 85.9609 27.7673 85.9609 27.667V26.9043C85.5671 27.3268 85.1159 27.6562 84.6074 27.8926C84.1061 28.1289 83.5475 28.2471 82.9316 28.2471C82.4232 28.2471 81.9541 28.179 81.5244 28.043C81.1019 27.9141 80.7331 27.7207 80.418 27.4629C80.11 27.1979 79.8701 26.8721 79.6982 26.4854C79.5264 26.0986 79.4404 25.6475 79.4404 25.1318C79.4404 24.5732 79.5479 24.0898 79.7627 23.6816C79.9847 23.2663 80.3105 22.9261 80.7402 22.6611C81.1771 22.389 81.7178 22.1885 82.3623 22.0596C83.0068 21.9307 83.7552 21.8662 84.6074 21.8662H85.542V21.2861C85.542 20.9854 85.5098 20.724 85.4453 20.502C85.388 20.2728 85.2878 20.083 85.1445 19.9326C85.0085 19.7822 84.8223 19.6712 84.5859 19.5996C84.3568 19.528 84.0703 19.4922 83.7266 19.4922C83.2754 19.4922 82.8708 19.5423 82.5127 19.6426C82.1618 19.7428 81.8503 19.8538 81.5781 19.9756C81.306 20.0973 81.0768 20.2083 80.8906 20.3086C80.7116 20.4089 80.5648 20.459 80.4502 20.459C80.3714 20.459 80.2998 20.4339 80.2354 20.3838C80.1781 20.3337 80.1279 20.262 80.085 20.1689C80.0492 20.0758 80.0205 19.9613 79.999 19.8252C79.9775 19.6891 79.9668 19.5387 79.9668 19.374C79.9668 19.152 79.9847 18.9766 80.0205 18.8477C80.0563 18.7188 80.1243 18.6042 80.2246 18.5039C80.3249 18.3965 80.5003 18.2819 80.751 18.1602C81.0016 18.0312 81.2952 17.9131 81.6318 17.8057C81.9684 17.6982 82.3337 17.6123 82.7275 17.5479C83.1286 17.4762 83.5404 17.4404 83.9629 17.4404C84.7148 17.4404 85.3558 17.5156 85.8857 17.666C86.4229 17.8092 86.8633 18.0348 87.207 18.3428C87.5508 18.6436 87.8014 19.0339 87.959 19.5137C88.1165 19.9935 88.1953 20.5628 88.1953 21.2217V27.667ZM85.542 23.5635H84.5107C84.0739 23.5635 83.7015 23.5957 83.3936 23.6602C83.0856 23.7246 82.835 23.8213 82.6416 23.9502C82.4482 24.0791 82.305 24.2367 82.2119 24.4229C82.126 24.6019 82.083 24.8096 82.083 25.0459C82.083 25.4469 82.2083 25.762 82.459 25.9912C82.7168 26.2204 83.0713 26.335 83.5225 26.335C83.902 26.335 84.2493 26.2383 84.5645 26.0449C84.8867 25.8516 85.2126 25.5687 85.542 25.1963V23.5635ZM97.0576 18.9443C97.0576 19.2021 97.0505 19.4134 97.0361 19.5781C97.0218 19.7428 97.0003 19.8717 96.9717 19.9648C96.943 20.0579 96.9036 20.1224 96.8535 20.1582C96.8105 20.194 96.7533 20.2119 96.6816 20.2119C96.6243 20.2119 96.5599 20.2012 96.4883 20.1797C96.4167 20.151 96.3343 20.1224 96.2412 20.0938C96.1553 20.0651 96.0586 20.04 95.9512 20.0186C95.8438 19.9899 95.7256 19.9756 95.5967 19.9756C95.4463 19.9756 95.2959 20.0078 95.1455 20.0723C94.9951 20.1296 94.8376 20.2227 94.6729 20.3516C94.5153 20.4805 94.347 20.6523 94.168 20.8672C93.9961 21.082 93.8099 21.347 93.6094 21.6621V27.6348C93.6094 27.7064 93.5879 27.7708 93.5449 27.8281C93.502 27.8783 93.4268 27.9212 93.3193 27.957C93.2191 27.9928 93.083 28.0179 92.9111 28.0322C92.7393 28.0537 92.5208 28.0645 92.2559 28.0645C91.9909 28.0645 91.7725 28.0537 91.6006 28.0322C91.4287 28.0179 91.2891 27.9928 91.1816 27.957C91.0814 27.9212 91.0098 27.8783 90.9668 27.8281C90.9238 27.7708 90.9023 27.7064 90.9023 27.6348V18.0527C90.9023 17.9811 90.9202 17.9202 90.9561 17.8701C90.9919 17.8128 91.0563 17.7663 91.1494 17.7305C91.2425 17.6947 91.3607 17.6696 91.5039 17.6553C91.6543 17.6338 91.8405 17.623 92.0625 17.623C92.2917 17.623 92.4814 17.6338 92.6318 17.6553C92.7822 17.6696 92.8968 17.6947 92.9756 17.7305C93.0615 17.7663 93.1224 17.8128 93.1582 17.8701C93.194 17.9202 93.2119 17.9811 93.2119 18.0527V19.2451C93.4626 18.887 93.6989 18.5934 93.9209 18.3643C94.1429 18.1279 94.3542 17.9417 94.5547 17.8057C94.7552 17.6696 94.9557 17.5765 95.1562 17.5264C95.3568 17.4691 95.5573 17.4404 95.7578 17.4404C95.8509 17.4404 95.9512 17.4476 96.0586 17.4619C96.166 17.4691 96.277 17.487 96.3916 17.5156C96.5062 17.5371 96.6064 17.5658 96.6924 17.6016C96.7783 17.6302 96.8392 17.6624 96.875 17.6982C96.918 17.734 96.9466 17.7734 96.9609 17.8164C96.9824 17.8594 97.0003 17.9202 97.0146 17.999C97.029 18.0706 97.0397 18.1816 97.0469 18.332C97.054 18.4824 97.0576 18.6865 97.0576 18.9443Z" fill="#5A5D8C"/>
<path d="M147 23L135 23L123 23" stroke="#5A5D8C" stroke-width="3" stroke-linecap="round"/>
<path d="M139 32L148 23L139 14" stroke="#5A5D8C" stroke-width="3" stroke-linecap="round" stroke-linejoin="round"/>
</svg>
