<svg width="1440" height="400" viewBox="0 0 1440 400" fill="none" xmlns="http://www.w3.org/2000/svg">
<rect width="1440" height="400" fill="#F1F1F4"/>
<mask id="mask0_35_919" style="mask-type:luminance" maskUnits="userSpaceOnUse" x="-240" y="0" width="1920" height="400">
<path d="M1680 0H-240V400H1680V0Z" fill="white"/>
</mask>
<g mask="url(#mask0_35_919)">
<path d="M287.633 141.086C272.921 142.549 258.133 142.931 243.374 141.998C238.238 141.674 230.097 142.292 226.01 138.477C222.732 135.416 222.421 129.851 222.14 125.668C220.147 95.991 221.211 65.7865 223.15 36.1379C224.265 19.0905 225.905 2.08182 228.031 -14.8691C229.116 -23.5275 215.692 -25.5491 214.602 -16.8597C210.495 15.8958 208.309 48.8438 207.936 81.8522C207.76 97.4048 207.407 113.269 208.776 128.777C209.324 134.98 210.855 141.667 215.006 146.515C219.8 152.114 226.622 154.133 233.73 154.84C252.142 156.673 270.887 156.397 289.284 154.567C297.972 153.703 296.343 140.22 287.633 141.086Z" fill="#FFE58F"/>
<path d="M181.437 136.484C169.642 126.745 156.874 116.962 141.999 112.575C126.821 108.098 111.805 110.874 99.052 120.205C87.082 128.964 77.2222 141.134 67.7331 152.416C57.5888 164.477 48.0618 177.056 39.1933 190.084C28.96 205.118 19.5934 220.752 11.1161 236.84C9.40702 240.084 11.4065 244.391 14.5937 245.792C18.1541 247.356 21.8279 245.569 23.5432 242.314C37.2091 216.378 53.346 191.818 71.7065 168.963C80.4692 158.055 89.5609 147.006 99.7182 137.355C108.912 128.619 119.738 122.2 132.835 124.298C148.194 126.758 161.318 137.481 172.955 147.088C179.71 152.665 188.173 142.045 181.437 136.484Z" fill="#AFE2DB"/>
<path d="M323.894 276.237C296.783 261.931 270.957 245.316 246.697 226.576C242.478 223.316 242.91 217.379 247.59 214.799C256.053 210.132 264.868 206.122 273.929 202.778C274.935 201.579 276.36 200.685 277.975 200.223C283.932 198.517 289.89 196.811 295.848 195.105C300.75 193.701 305.735 191.893 310.833 191.345C315.855 190.806 321.008 191.417 325.198 194.468C330.407 198.261 332.315 204.539 333.872 210.483C339.216 230.886 339.002 252.365 334.101 272.817C332.978 277.504 327.377 278.076 323.894 276.237ZM317.281 205.473C316.616 205.837 315.843 206.108 314.942 206.242C296.923 208.93 279.57 214.254 263.202 222.052C282.221 236.117 302.155 248.898 322.87 260.319C325.178 246.038 324.7 231.328 321.552 217.207C320.831 213.967 320.232 208.085 317.619 205.738C317.511 205.641 317.397 205.555 317.281 205.473Z" fill="#BDBFE1"/>
<path d="M178.34 295.558C167.524 302.813 153.251 301.676 142.633 294.666C131.415 287.262 127.279 273.657 131.412 261.072C135.318 249.179 146.665 239.368 159.412 238.906C161.074 238.846 162.68 239.257 163.988 240.081C176.293 239.512 187.353 250.295 190.193 262.757C192.891 274.599 188.689 288.615 178.34 295.558ZM176.891 265.196C176.249 262.335 174.458 258.903 172.316 256.928C170.06 254.846 165.407 252.132 162.28 253.932C159.711 255.412 156.672 255.686 154.335 254.048C149.013 256.531 144.909 261.524 143.698 267.225C142.193 274.315 145.333 280.779 151.36 284.187C157.662 287.751 165.485 288.267 171.242 283.94C176.756 279.795 178.412 271.975 176.891 265.196Z" fill="#F9BA7A"/>
<path d="M459.57 97.8528C456.485 73.8418 445.771 50.2755 425.93 35.6166C415.027 27.562 401.906 22.3083 388.27 21.9652C384.606 21.873 381.145 23.7408 380.561 27.6857C380.074 30.9724 382.59 35.304 386.28 35.3968C407.44 35.9294 426.024 49.2477 436.081 67.5068C447.041 87.4076 448.618 111.011 445.774 133.15C443.877 147.912 440.18 162.363 436.093 176.65C435.083 180.181 438.525 183.874 441.812 184.361C445.836 184.958 448.509 182.182 449.522 178.641C457.004 152.481 463.083 125.193 459.57 97.8528Z" fill="#FFCCD7"/>
<path d="M400.726 419.319C400.121 413.304 399.184 407.325 397.983 401.401C395.496 389.146 391.965 377.105 387.863 365.3C383.33 352.256 378.103 339.469 372.867 326.696C369.556 318.617 356.943 323.644 360.268 331.756C368.711 352.352 377.36 373.117 382.656 394.796C385.335 405.766 387.404 417.101 387.802 428.408C387.989 433.736 386.795 438.17 383.312 442.236C379.914 446.201 375.674 449.502 371.617 452.762C361.759 460.684 351.173 467.723 339.989 473.632C336.752 475.342 334.751 478.81 336.219 482.463C337.477 485.594 341.789 487.957 345.048 486.235C356.007 480.444 366.52 473.875 376.347 466.31C385.736 459.081 396.934 450.958 400.206 438.985C401.947 432.617 401.38 425.815 400.726 419.319Z" fill="#FCD861"/>
<path d="M320.442 330.814C309.9 322.208 296.081 319 282.858 322.323C271.493 325.178 262.288 333.122 254.442 341.46C246.855 349.523 240.078 358.724 231.049 365.277C222.866 371.215 212.902 373.956 202.808 372.948C191.657 371.835 180.648 366.816 173.603 357.92C171.329 355.048 167.459 353.833 164.203 355.969C161.348 357.842 159.966 362.484 162.252 365.371C176.88 383.841 202.847 391.487 225.18 383.64C236.389 379.701 245.276 371.712 253.196 363.109C260.68 354.981 267.55 345.763 276.932 339.691C287.592 332.792 301.348 332.739 311.386 340.934C318.144 346.451 327.218 336.346 320.442 330.814Z" fill="#FFCCD7"/>
<path d="M92.5346 391.285C85.288 402.78 70.0625 408.649 56.9086 405.795C42.1182 402.586 30.6619 392.099 21.4414 380.619C19.7322 378.491 18.0511 376.274 16.4207 373.981C5.92179 382.302 -2.90192 392.286 -14.9819 398.556C-26.6814 404.629 -40.1056 407.059 -53.2071 406.199C-79.3039 404.486 -102.505 387.258 -113.205 363.663C-116.828 355.674 -104.202 350.671 -100.605 358.603C-88.2006 385.957 -56.1572 399.58 -27.8836 389.382C-13.8947 384.336 -4.37521 373.616 6.78161 364.343C7.54618 363.707 8.32364 363.089 9.11015 362.484C-2.38432 342.051 -8.06054 317.836 4.53093 296.516C6.40314 293.346 9.79873 291.424 13.4852 293.05C16.5584 294.406 18.8159 298.848 16.9506 302.006C9.0579 315.37 9.86114 331.179 15.5362 345.227C16.904 348.613 18.5144 351.986 20.3229 355.295C28.6504 350.92 37.7542 348.102 47.2284 347.204C60.5376 345.943 75.0845 348.079 85.7897 356.667C96.38 365.163 99.9606 379.507 92.5346 391.285ZM80.8545 371.002C75.0559 362.769 63.3675 360.3 53.8925 360.409C44.6996 360.515 35.7138 362.714 27.585 366.778C31.3905 372.03 35.6485 376.917 40.1717 381.185C48.2102 388.771 59.4924 395.86 70.8629 391.692C79.3879 388.567 86.8916 379.573 80.8545 371.002Z" fill="#FCD861"/>
<path d="M87.7442 288.131C87.6059 287.042 87.2111 286.055 86.56 285.17C85.5161 283.882 84.1346 282.962 82.4615 282.714L80.9754 282.494C80.13 282.336 79.3106 282.395 78.5175 282.673C77.715 282.809 76.9894 283.136 76.3408 283.656C75.6558 284.126 75.1319 284.725 74.7695 285.454C74.2738 286.133 73.9789 286.9 73.885 287.755L73.8623 289.43C74.0007 290.52 74.3954 291.507 75.0465 292.391C76.0904 293.679 77.4718 294.599 79.1451 294.847L80.6311 295.068C81.4765 295.226 82.2959 295.166 83.0891 294.888C83.8916 294.753 84.6171 294.425 85.2657 293.906C85.9508 293.436 86.4745 292.836 86.837 292.107C87.3327 291.428 87.6275 290.661 87.7215 289.806C87.7291 289.248 87.7367 288.69 87.7442 288.131Z" fill="#B9D5EA"/>
<path d="M219.177 522.856C196.003 510.481 173.277 497.279 151.105 483.186C140.932 476.72 130.306 470.455 120.97 462.793C114.752 457.69 107.846 450.691 108.021 442.049C108.154 435.456 112.439 429.568 115.931 424.288C120.222 417.799 124.516 411.311 128.808 404.823C130.668 402.013 130.642 398.289 127.845 396.044C125.401 394.081 120.937 394.182 119.068 397.007C115.001 403.154 110.935 409.301 106.868 415.448C103.028 421.253 98.9519 427.068 96.9334 433.802C93.4198 445.523 97.6933 456.879 105.784 465.584C114.066 474.495 124.581 480.841 134.706 487.414C146.905 495.334 159.27 502.998 171.774 510.425C185.707 518.702 199.833 526.648 214.128 534.281C217.103 535.87 221.076 534.015 222.364 531.093C223.811 527.81 222.162 524.45 219.177 522.856Z" fill="#E2BBDF"/>
<path d="M1243.24 398.069C1242.53 391.216 1241.88 384.417 1239.26 377.985C1234.9 367.286 1226.25 358.478 1215.89 353.597C1205.24 348.582 1193.13 347.221 1181.95 351.153C1175.5 353.423 1169.5 357.05 1162.78 358.523C1158.14 359.539 1153.21 359.378 1148.59 358.256C1137.16 355.476 1127.76 347.765 1123.2 336.764C1121.8 333.374 1116.86 332.605 1114.02 334.258C1110.55 336.274 1110.18 340.122 1111.59 343.523C1120.61 365.294 1147.34 377.863 1169.54 370.751C1176.37 368.564 1182.59 364.663 1189.6 363.037C1194.2 361.969 1199.08 362.203 1203.64 363.406C1213.45 365.994 1222.26 372.769 1226.55 382.175C1229.27 388.16 1229.44 394.982 1230.19 401.408C1231.19 410.008 1233.03 417.612 1238.36 424.591C1240.58 427.501 1245.53 426.977 1247.86 424.631C1250.68 421.781 1250.07 417.956 1247.84 415.035C1244.29 410.387 1243.82 403.67 1243.24 398.069Z" fill="#AFE2DB"/>
<path d="M1412.49 277.756C1409.1 279.626 1408.25 283.65 1409.82 286.98C1418.48 305.379 1421.6 326.41 1418.68 346.543C1415.62 367.606 1405.39 386.432 1389.32 400.357C1378.35 409.854 1365.48 416.879 1352.46 423.115C1344.58 426.89 1351.16 438.767 1359.02 435.004C1383.08 423.481 1406.49 408.296 1419.92 384.492C1431.29 364.323 1434.99 340.736 1432.45 317.885C1431 304.871 1427.28 292.262 1421.71 280.422C1420.14 277.101 1415.55 276.065 1412.49 277.756Z" fill="#ED5E7E"/>
<path d="M1334.53 151.854C1334.6 148.383 1331.54 144.748 1327.87 144.944C1313.81 145.695 1300.02 149.436 1288.54 157.818C1276.6 166.537 1268.64 179.941 1267.59 194.764C1266.97 203.477 1280.54 203.716 1281.16 195.005C1282.83 171.621 1306.77 159.638 1327.63 158.524C1331.29 158.329 1334.46 155.707 1334.53 151.854Z" fill="#FFCCD7"/>
<path d="M1475.74 81.3164C1468.55 77.6911 1463.54 89.1362 1470.69 92.7419C1481.87 98.3746 1486.04 112.884 1482.68 124.38C1478.69 138.081 1466.32 147.668 1453.4 152.361C1437.78 158.033 1421.39 156.93 1405.1 157.079C1389.5 157.221 1374.38 160.943 1363.93 173.27C1353.75 185.278 1350.25 202.136 1355.17 217.091C1357.69 224.725 1369.27 220.057 1366.76 212.436C1362.94 200.833 1367.02 187.39 1375.64 178.935C1386.89 167.908 1403.94 169.444 1418.43 169.601C1435.18 169.783 1452.56 167.888 1467.47 159.676C1481.28 152.073 1492.68 139.333 1495.66 123.502C1498.77 106.958 1490.93 88.9731 1475.74 81.3164Z" fill="#AFE2DB"/>
<path d="M1339.65 353.787C1335.03 364.023 1325.05 370.962 1313.72 370.29C1310.34 370.089 1308 366.312 1308.46 363.198C1308.99 359.65 1312.19 357.737 1315.55 357.937C1320.52 358.231 1325.05 354.403 1327.43 350.339C1330.81 344.584 1330.39 337.413 1329 331.139C1326.46 319.687 1320.2 308.623 1312.48 299.64C1296.5 312.07 1272.21 311.515 1253.93 303.759C1242.21 298.789 1232.11 290.345 1226.28 278.936C1220.68 267.996 1219.88 254.668 1224.81 243.357C1228.03 235.988 1239.46 241.032 1236.24 248.406C1231.81 258.534 1234.32 270.336 1240.9 278.942C1247.95 288.149 1259.16 293.628 1270.35 295.81C1280.57 297.803 1291.91 297.541 1301.15 292.201C1301.94 291.742 1302.72 291.24 1303.48 290.702C1296.46 284.606 1288.88 278.828 1285.41 269.975C1281.83 260.874 1284.05 248.225 1292.92 242.923C1304.63 235.916 1318.13 245.237 1323.72 255.711C1329.52 266.583 1328.1 279.395 1321.63 289.587C1321.42 289.907 1321.21 290.207 1321 290.518C1328.31 298.722 1334.15 308.376 1338.1 318.621C1342.33 329.61 1344.69 342.631 1339.65 353.787ZM1308.34 278.432C1309.56 279.478 1310.77 280.532 1311.97 281.599C1313.93 278.244 1315.09 274.484 1314.99 270.549C1314.89 266.184 1313.44 261.941 1310.78 258.483C1308.53 255.57 1304.55 252.513 1300.66 253.063C1299.65 253.205 1299.07 253.585 1298.21 254.651C1297.56 255.449 1296.79 257.229 1296.61 258.039C1295.81 261.521 1296.18 264.304 1298.05 267.512C1300.6 271.874 1304.55 275.191 1308.34 278.432Z" fill="#F9BA7A"/>
<path d="M518.175 290.585C517.467 283.732 516.812 276.933 514.192 270.501C509.833 259.801 501.184 250.994 490.817 246.112C480.168 241.097 468.061 239.737 456.883 243.668C450.427 245.939 444.435 249.565 437.709 251.039C433.072 252.055 428.141 251.893 423.526 250.772C412.09 247.992 402.691 240.281 398.133 229.28C396.729 225.89 391.794 225.121 388.948 226.774C385.478 228.79 385.11 232.638 386.519 236.038C395.539 257.81 422.27 270.379 444.474 263.267C451.301 261.08 457.523 257.179 464.534 255.552C469.136 254.485 474.009 254.718 478.573 255.922C488.384 258.51 497.192 265.284 501.477 274.691C504.203 280.675 504.375 287.498 505.121 293.923C506.12 302.523 507.959 310.128 513.288 317.107C515.509 320.016 520.46 319.492 522.788 317.147C525.615 314.297 525.005 310.472 522.775 307.55C519.226 302.903 518.754 296.186 518.175 290.585Z" fill="#AFE2DB"/>
<path d="M509.559 362.764C509.14 359.318 505.609 356.143 501.995 356.849C488.175 359.549 475.046 365.171 464.843 375.069C454.229 385.365 448.214 399.746 449.23 414.572C449.828 423.286 463.305 421.634 462.708 412.921C461.104 389.533 483.146 374.335 503.645 370.33C507.242 369.628 510.024 366.59 509.559 362.764Z" fill="#ED5E7E"/>
<path d="M687.418 170.272C684.03 172.141 683.185 176.165 684.754 179.496C693.417 197.895 696.536 218.926 693.613 239.058C690.554 260.122 680.325 278.947 664.249 292.872C653.285 302.369 640.416 309.395 627.392 315.63C619.507 319.406 626.09 331.283 633.949 327.52C658.016 315.997 681.425 300.811 694.848 277.008C706.222 256.839 709.922 233.252 707.377 210.4C705.927 197.386 702.215 184.777 696.64 172.937C695.076 169.616 690.483 168.581 687.418 170.272Z" fill="#ED5E7E"/>
<path d="M870.386 170.161C858.404 175.783 842.977 172.544 833.783 163.236C824.344 153.68 821.648 138.038 827.966 126.017C833.542 115.406 845.152 108.772 857 109.184C858.239 108.241 859.888 107.765 861.907 108.117C876.406 110.639 888.9 123.256 889.559 138.319C890.144 151.685 882.521 164.467 870.386 170.161ZM875.605 136.106C874.137 130.05 869.512 125.011 863.808 122.679C862.689 123.25 861.311 123.467 859.7 123.15C850.929 121.421 841.392 126.253 838.825 135.155C836.626 142.784 839.429 151.325 845.973 155.857C852.215 160.179 861.216 160.695 867.513 156.248C873.753 151.842 877.442 143.682 875.605 136.106Z" fill="#FFCCD7"/>
<path d="M1012.7 248.57C997.989 250.033 983.201 250.415 968.442 249.483C963.306 249.158 955.165 249.776 951.078 245.961C947.8 242.901 947.489 237.335 947.208 233.152C945.215 203.475 946.279 173.271 948.218 143.622C949.333 126.575 950.973 109.566 953.099 92.6153C954.184 83.9568 940.76 81.9353 939.67 90.6247C935.563 123.38 933.377 156.328 933.004 189.337C932.828 204.889 932.475 220.754 933.844 236.261C934.391 242.465 935.923 249.151 940.074 253.999C944.867 259.598 951.69 261.617 958.798 262.325C977.21 264.158 995.955 263.881 1014.35 262.052C1023.04 261.188 1021.41 247.704 1012.7 248.57Z" fill="#FFE58F"/>
<path d="M906.505 243.968C894.71 234.23 881.943 224.446 867.067 220.059C851.89 215.583 836.873 218.358 824.12 227.69C812.15 236.449 802.291 248.618 792.802 259.9C782.657 271.962 773.13 284.54 764.262 297.569C754.028 312.602 744.662 328.236 736.184 344.324C734.475 347.568 736.475 351.876 739.662 353.276C743.222 354.841 746.896 353.053 748.612 349.798C762.277 323.862 778.414 299.302 796.775 276.447C805.538 265.539 814.629 254.49 824.787 244.839C833.98 236.103 844.806 229.685 857.903 231.783C873.262 234.243 886.387 244.965 898.024 254.572C904.779 260.149 913.242 249.529 906.505 243.968Z" fill="#AFE2DB"/>
<path d="M1048.96 383.722C1021.85 369.415 996.025 352.801 971.765 334.06C967.546 330.801 967.979 324.863 972.659 322.283C981.121 317.617 989.936 313.606 998.997 310.263C1000 309.063 1001.43 308.17 1003.04 307.707C1009 306.001 1014.96 304.295 1020.92 302.589C1025.82 301.185 1030.8 299.377 1035.9 298.83C1040.92 298.29 1046.08 298.901 1050.27 301.953C1055.47 305.746 1057.38 312.024 1058.94 317.967C1064.28 338.371 1064.07 359.849 1059.17 380.301C1058.05 384.988 1052.45 385.56 1048.96 383.722ZM1042.35 312.957C1041.68 313.322 1040.91 313.592 1040.01 313.726C1021.99 316.415 1004.64 321.738 988.271 329.536C1007.29 343.602 1027.22 356.383 1047.94 367.804C1050.25 353.522 1049.77 338.813 1046.62 324.691C1045.9 321.451 1045.3 315.569 1042.69 313.222C1042.58 313.125 1042.47 313.04 1042.35 312.957Z" fill="#BDBFE1"/>
<path d="M903.408 403.043C892.593 410.298 878.319 409.161 867.701 402.151C856.484 394.746 852.347 381.141 856.48 368.557C860.387 356.663 871.733 346.853 884.48 346.391C886.143 346.33 887.748 346.741 889.056 347.565C901.361 346.996 912.422 357.779 915.261 370.242C917.959 382.083 913.758 396.1 903.408 403.043ZM901.959 372.681C901.317 369.819 899.526 366.387 897.385 364.412C895.128 362.331 890.476 359.616 887.348 361.417C884.779 362.896 881.74 363.17 879.403 361.533C874.082 364.016 869.977 369.008 868.767 374.709C867.261 381.799 870.402 388.264 876.428 391.671C882.73 395.235 890.554 395.752 896.31 391.424C901.824 387.279 903.481 379.46 901.959 372.681Z" fill="#F9BA7A"/>
<path d="M1184.64 205.338C1181.55 181.327 1170.84 157.76 1151 143.101C1140.1 135.047 1126.97 129.793 1113.34 129.45C1109.67 129.358 1106.21 131.226 1105.63 135.171C1105.14 138.457 1107.66 142.789 1111.35 142.882C1132.51 143.414 1151.09 156.733 1161.15 174.992C1172.11 194.892 1173.69 218.495 1170.84 240.635C1168.95 255.397 1165.25 269.848 1161.16 284.135C1160.15 287.666 1163.59 291.359 1166.88 291.846C1170.9 292.442 1173.58 289.667 1174.59 286.125C1182.07 259.966 1188.15 232.677 1184.64 205.338Z" fill="#FFCCD7"/>
<path d="M1110.75 237.908C1101 244.998 1087.3 243.691 1078.55 235.556C1074.71 231.99 1072.09 227.37 1070.99 222.528C1070.72 221.915 1070.52 221.226 1070.43 220.451C1068.81 206.921 1078.42 193.707 1091.9 191.346C1103.39 189.332 1115.37 196.654 1119.91 207.143C1124.6 217.951 1120.08 231.122 1110.75 237.908ZM1108.09 218.194C1109.15 211.288 1102.79 204.838 1096.19 204.577C1093.04 204.452 1090.25 205.725 1088.11 207.739C1088.01 209.717 1087.02 211.643 1085.42 213.044C1084.69 213.685 1084.24 214.524 1084 215.451C1083.82 216.567 1083.78 217.696 1083.91 218.8C1083.91 218.849 1083.91 218.896 1083.92 218.945C1084.14 220.244 1084.59 221.493 1085.14 222.465C1086.87 225.526 1090.11 227.858 1093.5 228.736C1100.25 230.486 1107.04 225.087 1108.09 218.194Z" fill="#E2BBDF"/>
<path d="M1034.24 141.607C1024.99 142.189 1016.22 136.171 1011.74 128.315C1006.75 119.555 1006.8 108.406 1009.64 98.9638C1013.01 87.7632 1020.88 77.9618 1021.74 65.9907C1022.51 55.2728 1018.59 44.3857 1008.52 39.4009C1000.67 35.5163 995.218 47.9576 1003.03 51.8236C1011.21 55.873 1008.12 68.3065 1005.31 74.9066C1000.45 86.3148 994.719 96.7284 994.268 109.456C993.852 121.186 997.007 133.14 1005.02 141.981C1012.98 150.759 1023.97 155.838 1035.89 155.088C1044.61 154.54 1042.95 141.059 1034.24 141.607Z" fill="#F9BA7A"/>
<path d="M817.603 498.77C810.356 510.264 795.131 516.133 781.977 513.28C767.187 510.071 755.73 499.583 746.51 488.104C744.801 485.976 743.119 483.759 741.489 481.466C730.99 489.787 722.166 499.771 710.086 506.041C698.387 512.114 684.963 514.544 671.861 513.684C645.764 511.971 622.564 494.743 611.864 471.148C608.241 463.159 620.866 458.156 624.463 466.088C636.868 493.442 668.911 507.065 697.185 496.866C711.174 491.82 720.693 481.1 731.85 471.828C732.615 471.192 733.392 470.574 734.178 469.969C722.684 449.535 717.008 425.321 729.599 404.001C731.471 400.831 734.867 398.909 738.554 400.535C741.627 401.89 743.884 406.333 742.019 409.491C734.126 422.855 734.929 438.664 740.605 452.712C741.972 456.098 743.583 459.471 745.391 462.78C753.719 458.404 762.823 455.587 772.297 454.689C785.606 453.428 800.153 455.564 810.858 464.152C821.448 472.648 825.029 486.991 817.603 498.77ZM805.923 478.486C800.124 470.254 788.436 467.785 778.961 467.894C769.768 468 760.782 470.199 752.653 474.263C756.459 479.515 760.717 484.402 765.24 488.67C773.278 496.255 784.561 503.345 795.931 499.177C804.456 496.051 811.96 487.058 805.923 478.486Z" fill="#FCD861"/>
<path d="M1258.04 114.158C1256.77 90.4162 1252.7 66.9579 1246.28 44.0756C1245.37 40.8282 1241.05 39.4472 1238.16 40.6073C1234.76 41.9767 1233.78 45.47 1234.7 48.7298C1240.28 68.6656 1243.79 89.1919 1245.28 109.84C1245.59 114.16 1246.62 119.457 1245.36 123.709C1244.34 127.164 1240.25 127.833 1237.23 128.784C1227.21 131.934 1217.08 134.695 1206.86 137.083C1203.58 137.849 1200.98 140.436 1201.42 144.042C1201.8 147.114 1205.08 150.253 1208.38 149.482C1220.03 146.761 1231.62 143.686 1243.01 140.019C1248.3 138.315 1253.14 135.802 1255.89 130.738C1258.63 125.687 1258.34 119.708 1258.04 114.158Z" fill="#BDBFE1"/>
<path d="M799.782 98.3427C792.57 80.4886 767.456 76.8561 750.82 77.5613C747.45 77.7041 744.997 81.3632 745.381 84.52C745.816 88.0901 748.958 90.1034 752.338 89.9602C760.455 89.6162 769.031 90.6596 776.617 93.678C781.345 95.5591 787.309 98.7775 788.619 104.182C789.448 107.604 788.114 111.109 786.783 114.212C784.952 118.479 782.849 122.639 780.86 126.835C776.763 135.477 772.665 144.12 768.568 152.763C765.118 160.041 776.552 165.066 779.991 157.813C784.801 147.667 789.61 137.521 794.42 127.375C798.713 118.319 803.869 108.46 799.782 98.3427Z" fill="#BDBFE1"/>
<path d="M812.813 395.616C812.674 394.527 812.28 393.539 811.628 392.655C810.585 391.367 809.203 390.447 807.53 390.199L806.044 389.979C805.198 389.821 804.379 389.88 803.586 390.158C802.783 390.294 802.058 390.621 801.409 391.14C800.724 391.611 800.2 392.21 799.838 392.939C799.342 393.618 799.047 394.385 798.953 395.24L798.931 396.915C799.069 398.005 799.464 398.992 800.115 399.876C801.159 401.164 802.54 402.084 804.213 402.332L805.699 402.552C806.545 402.71 807.364 402.651 808.157 402.373C808.96 402.237 809.685 401.91 810.334 401.391C811.019 400.92 811.543 400.321 811.905 399.592C812.401 398.913 812.696 398.146 812.79 397.291C812.797 396.733 812.805 396.175 812.813 395.616Z" fill="#B9D5EA"/>
<path d="M761.899 216.371C761.76 215.281 761.365 214.294 760.714 213.41C759.67 212.122 758.289 211.202 756.616 210.954L755.13 210.734C754.284 210.575 753.465 210.635 752.672 210.913C751.869 211.048 751.144 211.376 750.495 211.895C749.81 212.366 749.286 212.965 748.924 213.694C748.428 214.373 748.133 215.14 748.039 215.995C748.032 216.553 748.024 217.111 748.017 217.67C748.155 218.759 748.55 219.746 749.201 220.631C750.245 221.919 751.626 222.839 753.299 223.087L754.785 223.307C755.631 223.465 756.45 223.406 757.243 223.128C758.046 222.992 758.771 222.665 759.42 222.145C760.105 221.675 760.629 221.076 760.991 220.347C761.487 219.668 761.782 218.901 761.876 218.046C761.883 217.488 761.891 216.929 761.899 216.371Z" fill="#B9D5EA"/>
<path d="M614.585 246.302C609.965 256.538 599.986 263.477 588.654 262.805C585.269 262.604 582.933 258.827 583.394 255.713C583.92 252.165 587.119 250.252 590.484 250.452C595.456 250.746 599.978 246.918 602.363 242.854C605.741 237.099 605.318 229.929 603.927 223.654C601.388 212.202 595.127 201.139 587.414 192.156C571.428 204.586 547.146 204.03 528.859 196.274C517.14 191.304 507.046 182.861 501.21 171.451C495.614 160.511 494.807 147.184 499.745 135.872C502.962 128.503 514.387 133.547 511.168 140.922C506.747 151.049 509.253 162.851 515.837 171.458C522.879 180.664 534.092 186.143 545.282 188.325C555.503 190.318 566.843 190.057 576.079 184.716C576.872 184.257 577.652 183.755 578.414 183.217C571.396 177.121 563.813 171.343 560.338 162.49C556.765 153.389 558.984 140.74 567.847 135.438C579.564 128.431 593.06 137.752 598.652 148.226C604.455 159.098 603.033 171.91 596.559 182.102C596.356 182.422 596.137 182.722 595.927 183.033C603.237 191.237 609.082 200.891 613.029 211.136C617.263 222.126 619.619 235.147 614.585 246.302ZM583.271 170.947C584.494 171.994 585.704 173.048 586.899 174.114C588.858 170.759 590.02 166.999 589.924 163.064C589.817 158.699 588.376 154.456 585.708 150.998C583.46 148.085 579.483 145.028 575.591 145.578C574.585 145.721 574 146.1 573.138 147.166C572.493 147.964 571.723 149.744 571.538 150.554C570.745 154.036 571.11 156.819 572.985 160.027C575.534 164.389 579.484 167.706 583.271 170.947Z" fill="#F9BA7A"/>
<path d="M657.899 400.684C645.893 405.715 633.886 410.746 621.88 415.776C616.183 418.164 610.201 421.007 603.807 418.186C598.631 415.902 596.302 410.954 595.153 406.229C593.991 401.447 593.459 396.573 592.264 391.785C590.999 386.714 589.371 381.727 587.433 376.811C583.623 367.142 578.68 357.816 572.583 349.084C570.547 346.168 570.673 342.457 573.877 340.349C576.69 338.5 581.628 338.89 583.659 341.799C595.359 358.555 603.513 376.97 607.394 396.271C608.091 399.74 608.998 403.591 609.707 406.811C610.045 406.537 611.328 406.22 611.664 406.086C614.31 405.036 616.911 403.893 619.531 402.795L652.498 388.982C660.559 385.605 665.887 397.337 657.899 400.684ZM609.998 407.135C609.898 407.114 609.827 407.091 609.769 407.066C610.11 408.358 610.389 407.218 609.998 407.135Z" fill="#FFCCD7"/>
</g>
</svg>
