<svg width="1438" height="401" viewBox="0 0 1438 401" fill="none" xmlns="http://www.w3.org/2000/svg">
<g clip-path="url(#clip0_2022_13024)">
<rect width="1438" height="400" transform="translate(0 0.317871)" fill="white"/>
<g clip-path="url(#clip1_2022_13024)">
<rect width="1440" height="1024" transform="translate(0 -163.682)" fill="#F1F1F4"/>
<g clip-path="url(#clip2_2022_13024)">
<rect width="1827" height="1157" transform="translate(-109 -181.682)" fill="white"/>
<rect x="-35" y="-43.6821" width="1566" height="490" fill="#EFEFF8"/>
<path d="M420.313 96.0927C419.708 90.078 418.771 84.0993 417.569 78.1754C415.083 65.9199 411.552 53.8793 407.45 42.0737C402.917 29.03 397.69 16.243 392.454 3.46997C389.143 -4.60844 376.529 0.418267 379.855 8.5303C388.298 29.1266 396.947 49.8916 402.243 71.5706C404.922 82.5399 406.991 93.8751 407.389 105.182C407.576 110.51 406.382 114.945 402.899 119.01C399.501 122.975 395.261 126.276 391.204 129.536C381.346 137.458 370.76 144.498 359.576 150.406C356.339 152.116 354.338 155.584 355.806 159.238C357.064 162.369 361.376 164.731 364.635 163.009C375.594 157.219 386.107 150.649 395.934 143.084C405.323 135.856 416.521 127.732 419.793 115.759C421.534 109.391 420.967 102.589 420.313 96.0927Z" fill="#CACAE8"/>
<path d="M340.028 7.58765C329.486 -1.01874 315.667 -4.22588 302.444 -0.903598C291.079 1.95186 281.874 9.89546 274.028 18.2332C266.441 26.2966 259.664 35.4977 250.634 42.0511C242.452 47.9891 232.488 50.73 222.394 49.7219C211.243 48.6084 200.234 43.5892 193.189 34.6937C190.915 31.8214 187.045 30.6065 183.789 32.7423C180.934 34.6156 179.552 39.2581 181.838 42.1449C196.466 60.615 222.433 68.2606 244.766 60.4135C255.975 56.475 264.862 48.486 272.782 39.8827C280.266 31.7544 287.136 22.5371 296.518 16.4652C307.178 9.56544 320.934 9.51311 330.972 17.7079C337.73 23.2247 346.804 13.1194 340.028 7.58765Z" fill="#E1A3D8"/>
<path d="M485.832 131.081C477.192 129.8 475.187 143.23 483.842 144.513C492.482 145.794 494.487 132.364 485.832 131.081Z" fill="#E1A3D8"/>
<path d="M112.122 68.0594C104.875 79.5537 89.6499 85.4227 76.496 82.569C61.7056 79.36 50.2493 68.8727 41.0288 57.3935C39.3196 55.2654 37.6385 53.0484 36.0081 50.755C25.5092 59.0761 16.6855 69.0601 4.60548 75.3305C-7.09403 81.4032 -20.5182 83.8332 -33.6197 82.9734C-59.7165 81.2607 -82.9172 64.0327 -93.6172 40.4372C-97.2403 32.448 -84.6146 27.4456 -81.0178 35.377C-68.6131 62.7309 -36.5698 76.3544 -8.29616 66.1558C5.6927 61.1098 15.2122 50.3898 26.369 41.1169C27.1336 40.4817 27.911 39.8633 28.6975 39.2584C17.2031 18.8247 11.5269 -5.39002 24.1183 -26.7097C25.9905 -29.8796 29.3861 -31.8015 33.0726 -30.1759C36.1458 -28.8202 38.4033 -24.3776 36.538 -21.2194C28.6453 -7.85575 29.4485 7.95282 35.1236 22.0017C36.4914 25.3875 38.1018 28.7599 39.9103 32.0696C48.2378 27.6938 57.3416 24.876 66.8158 23.9785C80.125 22.7176 94.6719 24.8536 105.377 33.4416C115.967 41.9375 119.548 56.2808 112.122 68.0594ZM100.442 47.7758C94.6433 39.5428 82.9549 37.0742 73.4799 37.1834C64.287 37.2891 55.3012 39.4883 47.1725 43.5524C50.9779 48.8039 55.2359 53.6912 59.7591 57.9593C67.7975 65.5447 79.0798 72.6345 90.4503 68.4661C98.9753 65.3407 106.479 56.3474 100.442 47.7758Z" fill="#CACAE8"/>
<path d="M309.021 141.385C302.628 153.029 288.198 158.82 275.359 155.921C262.472 153.011 253.227 142.383 251.131 129.443C249.071 116.731 255.322 104.412 267.01 98.9721C277.653 94.0192 290.158 95.863 298.697 103.623C299.106 103.798 299.508 104.003 299.896 104.241C311.939 111.617 315.693 129.233 309.021 141.385ZM292.382 114.186C291.56 113.759 290.791 113.176 290.118 112.472C285.188 107.305 275.419 107.63 269.464 111.865C263.467 116.131 261.85 124.004 264.316 131.043C266.972 138.624 273.214 143.793 281.327 144.152C288.897 144.488 296.972 140.23 299.197 132.707C301.193 125.957 298.591 118.186 292.382 114.186Z" fill="#E2E2F2"/>
<path d="M322.132 245.776C329.334 252.761 338.98 262.34 349.996 260.675C357.545 259.534 363.815 253.85 370.23 250.138C375.675 246.985 381.795 244.625 388.034 243.63C388.678 241.647 389.345 239.694 390.021 237.791C394.423 225.391 400.11 212.822 408.07 202.276C415.68 192.194 425.717 183.706 438.313 180.931C449.893 178.38 461.934 180.755 470.869 188.72C473.399 190.975 472.936 195.375 470.644 197.55C468.052 200.009 464.332 199.567 461.816 197.324C454.941 191.195 444.054 191.269 435.942 194.677C424.671 199.41 417.096 209.879 411.405 220.263C407.349 227.661 403.964 235.435 401.262 243.433C408.958 244.497 416.206 247.727 421.775 253.617C429.38 261.657 433.311 274.084 428.772 284.626C424.713 294.052 414.659 300.227 404.43 300.003C391.358 299.716 383.749 288.423 382.781 276.317C382.289 270.167 382.967 263.799 384.268 257.515C378.721 259.518 373.604 262.715 368.441 265.976C358.791 272.07 348.075 275.562 336.932 271.383C327.634 267.897 320.107 261.197 313.079 254.381C307.287 248.763 316.385 240.203 322.132 245.776ZM416.399 267.496C412.732 260.137 405.67 256.135 397.727 255.524C396.708 259.591 395.859 263.719 395.412 267.874C394.907 272.569 394.635 277.988 396.873 282.32C400.231 288.819 407.087 288.674 412.778 285.09C415.034 283.668 417.079 281.207 417.834 278.193C418.734 274.604 418.029 270.769 416.399 267.496Z" fill="#F2D8EF"/>
<path d="M3.81476 245.334C-4.76785 235.437 -17.192 229.368 -30.2372 228.432C-42.3706 227.561 -53.6292 232.21 -64.7682 236.311C-75.8169 240.378 -86.5905 243.193 -98.0622 238.962C-108.957 234.943 -118.532 226.118 -124.707 216.401C-131.218 206.157 -134.943 193.786 -131.897 181.739C-129.933 173.969 -141.889 170.364 -143.863 178.175C-150.278 203.544 -135.684 229.567 -115.117 243.902C-103.58 251.943 -89.93 255.422 -76.0585 252.725C-64.2269 250.424 -53.5266 244.381 -41.7717 241.796C-28.2141 238.815 -14.4034 243.374 -5.30128 253.871C-0.0210419 259.96 9.07036 251.395 3.81476 245.334Z" fill="#E1A3D8"/>
<path d="M56.5295 189.245C53.1775 193.322 46.1503 194.437 41.3446 195.833C31.5607 198.677 21.5975 200.811 11.5078 202.185C8.08555 206.39 -0.546258 204.027 0.429976 197.321C2.31916 184.343 6.18925 171.369 12.3078 159.738C16.6509 151.481 25.5233 142.285 35.6963 147.289C40.5305 149.666 43.4261 154.385 46.2482 158.759C49.3028 163.493 52.1386 168.367 54.8115 173.326C57.458 178.236 60.7507 184.112 56.5295 189.245ZM44.3841 181.831C44.6603 181.738 44.9806 181.591 45.312 181.442C44.398 179.464 42.9599 177.457 42.0863 175.899C40.239 172.604 38.2695 169.373 36.2208 166.199C34.7608 163.937 32.9622 159.873 30.4527 158.587C29.5776 158.139 28.4782 158.79 27.4582 159.708C22.8563 163.849 20.5614 171.083 18.4514 176.696C16.9239 180.761 15.6905 184.901 14.6964 189.102C19.4264 188.35 24.1285 187.433 28.793 186.33C32.1916 185.527 35.5581 184.601 38.8997 183.586C40.7363 183.029 42.5649 182.444 44.3841 181.831Z" fill="#E2E2F2"/>
<path d="M238.763 199.63C215.59 187.255 192.863 174.052 170.692 159.96C160.519 153.494 149.893 147.228 140.557 139.567C134.338 134.464 127.433 127.465 127.608 118.822C127.741 112.23 132.026 106.342 135.518 101.062C139.809 94.5725 144.103 88.0852 148.395 81.5969C150.255 78.7863 150.229 75.063 147.432 72.8176C144.988 70.8552 140.524 70.9559 138.655 73.781C134.588 79.9277 130.522 86.0745 126.455 92.2212C122.614 98.0266 118.539 103.842 116.52 110.576C113.007 122.297 117.28 133.652 125.371 142.358C133.653 151.269 144.168 157.615 154.293 164.188C166.492 172.108 178.857 179.772 191.361 187.199C205.294 195.475 219.42 203.422 233.715 211.055C236.69 212.643 240.663 210.789 241.951 207.867C243.398 204.584 241.749 201.224 238.763 199.63Z" fill="#E2BBDF"/>
<path d="M199.706 543.484C184.994 544.946 170.206 545.328 155.447 544.396C150.311 544.071 142.17 544.689 138.083 540.874C134.805 537.814 134.494 532.248 134.213 528.066C132.22 498.388 133.284 468.184 135.223 438.535C136.338 421.488 137.978 404.479 140.103 387.528C141.189 378.87 127.765 376.848 126.675 385.538C122.568 418.293 120.381 451.241 120.009 484.25C119.833 499.802 119.48 515.667 120.849 531.174C121.396 537.378 122.928 544.064 127.079 548.912C131.872 554.511 138.695 556.53 145.803 557.238C164.215 559.071 182.96 558.794 201.357 556.965C210.045 556.101 208.416 542.617 199.706 543.484Z" fill="#CACAE8"/>
<path d="M221.246 436.52C211.992 437.102 203.22 431.084 198.745 423.228C193.756 414.467 193.805 403.318 196.647 393.877C200.019 382.676 207.886 372.875 208.745 360.904C209.514 350.186 205.594 339.299 195.522 334.314C187.674 330.429 182.222 342.87 190.033 346.736C198.215 350.786 195.12 363.219 192.312 369.82C187.456 381.228 181.724 391.641 181.272 404.369C180.857 416.099 184.011 428.053 192.024 436.894C199.98 445.672 210.974 450.751 222.897 450.001C231.611 449.452 229.955 435.972 221.246 436.52Z" fill="#AEABDA"/>
<path d="M279.077 258.82C278.178 255.467 274.236 252.82 270.757 254.028C257.454 258.644 245.246 266.057 236.535 277.292C227.474 288.978 223.54 304.062 226.631 318.598C228.447 327.141 241.559 323.61 239.743 315.067C234.867 292.138 254.554 273.991 274.286 267.143C277.748 265.941 280.076 262.542 279.077 258.82Z" fill="#E2E2F2"/>
<path d="M445.048 409.07C443.778 385.329 439.7 361.871 433.287 338.988C432.377 335.741 428.053 334.36 425.167 335.52C421.76 336.889 420.786 340.383 421.699 343.643C427.286 363.578 430.793 384.105 432.285 404.753C432.597 409.073 433.628 414.37 432.366 418.621C431.34 422.077 427.256 422.746 424.234 423.697C414.218 426.846 404.088 429.608 393.864 431.996C390.583 432.762 387.987 435.349 388.425 438.955C388.799 442.027 392.081 445.166 395.383 444.395C407.03 441.674 418.626 438.599 430.014 434.932C435.307 433.228 440.147 430.715 442.897 425.65C445.639 420.6 445.345 414.621 445.048 409.07Z" fill="#BDBFE1"/>
<path d="M325.819 392.807C321.926 393.114 318.561 391.077 315.155 389.456C300.894 382.666 286.632 375.876 272.371 369.086C268.76 367.367 265.013 365.776 264.005 361.473C263.012 357.232 265.959 354.22 268.913 351.743C274.955 346.675 281.037 341.656 287.159 336.686C299.246 326.872 311.49 317.254 323.876 307.82C326.4 305.898 329.668 305.343 332.205 307.471C335.464 307.276 338.95 309.286 339.068 313.487C339.543 330.394 338.989 347.318 337.339 364.152C336.959 368.02 336.524 371.884 336.031 375.74C335.62 378.963 335.489 382.468 334.382 385.547C332.997 389.397 330.069 392.472 325.819 392.807ZM323.051 379.435C323.201 378.516 323.3 377.584 323.422 376.666C325.86 358.313 326.906 339.774 326.727 321.261C318.902 327.279 311.132 333.368 303.428 339.54C298.536 343.459 293.669 347.409 288.827 351.39C286.641 353.187 284.459 354.991 282.283 356.802C281.451 357.494 280.621 358.188 279.79 358.882C280.209 359.056 280.597 359.222 280.928 359.38C283.555 360.63 286.182 361.881 288.809 363.132C293.876 365.544 298.943 367.956 304.009 370.369C309.076 372.781 314.142 375.193 319.209 377.605C320.49 378.215 321.77 378.825 323.051 379.435Z" fill="#7B6EB9"/>
<path d="M23.4787 302.122C15.5318 300.944 13.6883 313.295 21.6483 314.475C29.5953 315.653 31.4388 303.302 23.4787 302.122Z" fill="#CACAE8"/>
<path d="M178.274 235.649C188.798 239.564 196.397 249.051 196.497 260.405C196.527 263.797 192.918 266.385 189.78 266.136C186.206 265.852 184.08 262.79 184.051 259.418C184.007 254.436 179.881 250.183 175.666 248.079C169.695 245.099 162.572 246.009 156.408 247.824C145.158 251.136 134.548 258.135 126.112 266.442C139.596 281.551 140.692 305.82 134.198 324.597C130.037 336.629 122.301 347.276 111.317 353.875C100.785 360.202 87.5467 361.914 75.9287 357.754C68.3601 355.045 72.6147 343.3 80.1891 346.012C90.5909 349.736 102.192 346.432 110.33 339.278C119.035 331.625 123.738 320.063 125.154 308.747C126.447 298.412 125.416 287.113 119.461 278.259C118.95 277.499 118.396 276.755 117.807 276.031C112.204 283.448 106.956 291.408 98.3614 295.478C89.5267 299.662 76.7591 298.307 70.8691 289.822C63.0836 278.606 71.4635 264.504 81.5313 258.212C91.9808 251.682 104.857 252.231 115.463 258C115.796 258.181 116.11 258.378 116.435 258.567C124.121 250.715 133.353 244.225 143.304 239.59C153.978 234.619 166.805 231.383 178.274 235.649ZM105.239 272.017C106.2 270.726 107.169 269.447 108.152 268.181C104.672 266.455 100.843 265.551 96.9244 265.914C92.578 266.317 88.4432 268.044 85.1759 270.941C82.4226 273.382 79.6439 277.559 80.4571 281.405C80.6672 282.399 81.0855 282.958 82.2074 283.745C83.0471 284.335 84.8748 284.982 85.6952 285.111C89.2228 285.667 91.9735 285.114 95.0456 283.025C99.2234 280.184 102.263 276.017 105.239 272.017Z" fill="#938CCB"/>
<path d="M1262.83 74.8432C1262.12 67.9906 1261.47 61.1913 1258.85 54.7595C1254.49 44.0599 1245.84 35.2524 1235.47 30.3709C1224.82 25.3557 1212.72 23.9956 1201.54 27.9268C1195.08 30.1973 1189.09 33.8239 1182.36 35.2973C1177.73 36.3132 1172.8 36.152 1168.18 35.0302C1156.74 32.2505 1147.35 24.5396 1142.79 13.5381C1141.38 10.1482 1136.45 9.37957 1133.6 11.0326C1130.13 13.0485 1129.76 16.8965 1131.17 20.2968C1140.19 42.0684 1166.92 54.6377 1189.13 47.5254C1195.96 45.3383 1202.18 41.4373 1209.19 39.8108C1213.79 38.7433 1218.66 38.9768 1223.23 40.1805C1233.04 42.7684 1241.85 49.5427 1246.13 58.9495C1248.86 64.9338 1249.03 71.7566 1249.78 78.1819C1250.77 86.7818 1252.61 94.3864 1257.94 101.365C1260.16 104.275 1265.12 103.751 1267.44 101.405C1270.27 98.5554 1269.66 94.7302 1267.43 91.8089C1263.88 87.1612 1263.41 80.4446 1262.83 74.8432Z" fill="#938CCB"/>
<path d="M1254.21 147.023C1253.79 143.577 1250.26 140.401 1246.65 141.108C1232.83 143.807 1219.7 149.43 1209.5 159.328C1198.88 169.624 1192.87 184.004 1193.88 198.83C1194.48 207.544 1207.96 205.892 1207.36 197.179C1205.76 173.792 1227.8 158.594 1248.3 154.589C1251.9 153.886 1254.68 150.848 1254.21 147.023Z" fill="#938CCB"/>
<path d="M1432.07 -45.4698C1428.69 -43.6003 1427.84 -39.5765 1429.41 -36.2458C1438.07 -17.8469 1441.19 3.18402 1438.27 23.3165C1435.21 44.3803 1424.98 63.2056 1408.91 77.1307C1397.94 86.6276 1385.07 93.6529 1372.05 99.8888C1364.16 103.664 1370.75 115.541 1378.6 111.778C1402.67 100.255 1426.08 85.0695 1439.5 61.2662C1450.88 41.0973 1454.58 17.5099 1452.03 -5.34135C1450.58 -18.3556 1446.87 -30.9644 1441.3 -42.8043C1439.73 -46.1254 1435.14 -47.1607 1432.07 -45.4698Z" fill="#7B6EB9"/>
<path d="M1244.87 488.092C1247.8 485.568 1247.8 481.456 1245.59 478.517C1233.34 462.284 1225.98 442.338 1224.72 422.033C1223.4 400.789 1229.55 380.267 1242.44 363.344C1251.22 351.802 1262.38 342.289 1273.85 333.516C1280.8 328.205 1271.92 317.929 1265 323.223C1243.8 339.433 1224 359.093 1215.73 385.142C1208.73 407.213 1209.94 431.059 1217.11 452.904C1221.2 465.345 1227.41 476.926 1235.29 487.372C1237.5 490.302 1242.21 490.375 1244.87 488.092Z" fill="#CACAE8"/>
<path d="M1562.26 283.028C1555.01 294.523 1539.79 300.392 1526.63 297.538C1511.84 294.329 1500.39 283.842 1491.17 272.362C1489.46 270.234 1487.78 268.017 1486.14 265.724C1475.65 274.045 1466.82 284.029 1454.74 290.299C1443.04 296.372 1429.62 298.802 1416.52 297.942C1390.42 296.23 1367.22 279.002 1356.52 255.406C1352.9 247.417 1365.52 242.415 1369.12 250.346C1381.52 277.7 1413.57 291.323 1441.84 281.125C1455.83 276.079 1465.35 265.359 1476.51 256.086C1477.27 255.451 1478.05 254.832 1478.83 254.227C1467.34 233.794 1461.66 209.579 1474.26 188.259C1476.13 185.089 1479.52 183.167 1483.21 184.793C1486.28 186.149 1488.54 190.591 1486.67 193.75C1478.78 207.113 1479.59 222.922 1485.26 236.971C1486.63 240.356 1488.24 243.729 1490.05 247.039C1498.37 242.663 1507.48 239.845 1516.95 238.948C1530.26 237.687 1544.81 239.823 1555.51 248.411C1566.1 256.907 1569.68 271.25 1562.26 283.028ZM1550.58 262.745C1544.78 254.512 1533.09 252.043 1523.62 252.152C1514.42 252.258 1505.44 254.457 1497.31 258.521C1501.11 263.773 1505.37 268.66 1509.9 272.928C1517.93 280.514 1529.22 287.604 1540.59 283.435C1549.11 280.31 1556.62 271.316 1550.58 262.745Z" fill="#CACAE8"/>
<path d="M1325.79 307.967C1325.65 306.878 1325.26 305.891 1324.6 305.006C1323.56 303.718 1322.18 302.798 1320.51 302.55L1319.02 302.33C1318.17 302.172 1317.35 302.231 1316.56 302.509C1315.76 302.645 1315.03 302.972 1314.38 303.492C1313.7 303.962 1313.18 304.561 1312.81 305.29C1312.32 305.969 1312.02 306.736 1311.93 307.591C1311.92 308.149 1311.91 308.708 1311.91 309.266C1312.04 310.356 1312.44 311.343 1313.09 312.227C1314.13 313.515 1315.52 314.435 1317.19 314.683L1318.68 314.903C1319.52 315.062 1320.34 315.002 1321.13 314.724C1321.94 314.589 1322.66 314.261 1323.31 313.742C1323.99 313.271 1324.52 312.672 1324.88 311.943C1325.38 311.264 1325.67 310.497 1325.77 309.642C1325.77 309.084 1325.78 308.526 1325.79 307.967Z" fill="#E2BBDF"/>
<path d="M1359.24 30.5611C1354.62 40.7965 1344.64 47.7358 1333.31 47.0639C1329.92 46.8632 1327.59 43.086 1328.05 39.9718C1328.57 36.4242 1331.77 34.5109 1335.14 34.7105C1340.11 35.0052 1344.63 31.1766 1347.02 27.1131C1350.4 21.3578 1349.97 14.1874 1348.58 7.91271C1346.04 -3.53925 1339.78 -14.6027 1332.07 -23.5856C1316.08 -11.1556 1291.8 -11.7111 1273.51 -19.4672C1261.8 -24.4374 1251.7 -32.8807 1245.87 -44.29C1240.27 -55.2303 1239.46 -68.5576 1244.4 -79.869C1247.62 -87.2379 1259.04 -82.1941 1255.82 -74.8196C1251.4 -64.6923 1253.91 -52.8904 1260.49 -44.2837C1267.53 -35.0769 1278.75 -29.5979 1289.94 -27.4161C1300.16 -25.4232 1311.5 -25.6847 1320.73 -31.0255C1321.53 -31.4838 1322.31 -31.9861 1323.07 -32.5245C1316.05 -38.6205 1308.47 -44.3985 1304.99 -53.2515C1301.42 -62.3523 1303.64 -75.0015 1312.5 -80.3028C1324.22 -87.3101 1337.72 -77.9895 1343.31 -67.5149C1349.11 -56.6435 1347.69 -43.8316 1341.21 -33.6391C1341.01 -33.3193 1340.79 -33.0191 1340.58 -32.708C1347.89 -24.5041 1353.74 -14.8505 1357.68 -4.60479C1361.92 6.38438 1364.27 19.4054 1359.24 30.5611ZM1327.93 -44.7943C1329.15 -43.7476 1330.36 -42.6936 1331.55 -41.6268C1333.51 -44.9821 1334.68 -48.742 1334.58 -52.6771C1334.47 -57.0418 1333.03 -61.2853 1330.36 -64.7427C1328.12 -67.6563 1324.14 -70.713 1320.25 -70.1628C1319.24 -70.0207 1318.65 -69.6411 1317.79 -68.5751C1317.15 -67.7771 1316.38 -65.9972 1316.19 -65.1873C1315.4 -61.7047 1315.77 -58.9221 1317.64 -55.7144C1320.19 -51.3522 1324.14 -48.0353 1327.93 -44.7943Z" fill="#AEABDA"/>
<path d="M1414.49 361.506C1411.91 372.669 1401.63 381.542 1390.14 382.379C1377.98 383.266 1366.64 375.327 1362.15 364.17C1357.45 352.495 1360.65 338.462 1370.81 330.783C1380.43 323.516 1394.87 323.66 1402.79 333.235C1411.73 339.252 1416.95 350.858 1414.49 361.506ZM1392.28 341.882C1390.64 341.293 1389.51 339.898 1388.97 338.286C1383.48 336.67 1376.57 340.811 1374.07 345.82C1369.95 354.074 1374.01 364.851 1382.31 368.665C1389.66 372.044 1398.91 368.142 1401.8 360.553C1404.72 352.879 1399.6 344.507 1392.28 341.882Z" fill="#7B6EB9"/>
<path d="M1453.95 460.303C1445.37 450.406 1432.94 444.338 1419.9 443.401C1407.77 442.53 1396.51 447.179 1385.37 451.28C1374.32 455.347 1363.55 458.162 1352.07 453.931C1341.18 449.912 1331.6 441.087 1325.43 431.37C1318.92 421.126 1315.19 408.755 1318.24 396.708C1320.2 388.939 1308.25 385.334 1306.27 393.144C1299.86 418.514 1314.45 444.536 1335.02 458.871C1346.56 466.913 1360.21 470.391 1374.08 467.694C1385.91 465.393 1396.61 459.35 1408.36 456.766C1421.92 453.784 1435.73 458.343 1444.84 468.84C1450.12 474.929 1459.21 466.364 1453.95 460.303Z" fill="#E1A3D8"/>
<path d="M1253.72 245.688C1255.14 240.606 1261.12 236.751 1264.95 233.535C1272.76 226.986 1281.02 221.015 1289.7 215.688C1291.13 210.46 1299.99 209.14 1301.8 215.671C1305.3 228.309 1306.99 241.742 1306.08 254.853C1305.43 264.16 1301.02 276.155 1289.69 275.679C1284.31 275.453 1279.76 272.304 1275.41 269.439C1270.71 266.339 1266.15 263.023 1261.71 259.563C1257.3 256.137 1251.92 252.089 1253.72 245.688ZM1267.82 247.574C1267.6 247.77 1267.37 248.035 1267.13 248.304C1268.76 249.746 1270.89 251.002 1272.31 252.075C1275.33 254.346 1278.44 256.508 1281.59 258.586C1283.84 260.067 1287.12 263.061 1289.94 263.225C1290.92 263.282 1291.66 262.243 1292.23 260.992C1294.77 255.346 1293.95 247.801 1293.62 241.813C1293.38 237.478 1292.84 233.191 1292.05 228.946C1288.03 231.542 1284.1 234.278 1280.27 237.168C1277.49 239.274 1274.78 241.479 1272.13 243.756C1270.67 245.007 1269.24 246.28 1267.82 247.574Z" fill="#B9D5EA"/>
<path d="M1402.55 184.943C1390.55 189.973 1378.54 195.004 1366.53 200.035C1360.84 202.422 1354.85 205.265 1348.46 202.444C1343.29 200.161 1340.96 195.213 1339.81 190.487C1338.65 185.706 1338.11 180.831 1336.92 176.043C1335.65 170.972 1334.02 165.986 1332.09 161.07C1328.28 151.401 1323.33 142.074 1317.24 133.343C1315.2 130.427 1315.33 126.715 1318.53 124.608C1321.34 122.758 1326.28 123.149 1328.31 126.058C1340.01 142.814 1348.17 161.228 1352.05 180.53C1352.75 183.998 1353.65 187.85 1354.36 191.07C1354.7 190.796 1355.98 190.478 1356.32 190.345C1358.96 189.295 1361.56 188.152 1364.19 187.054L1397.15 173.241C1405.21 169.863 1410.54 181.596 1402.55 184.943ZM1354.65 191.394C1354.55 191.373 1354.48 191.349 1354.42 191.325C1354.76 192.616 1355.04 191.476 1354.65 191.394Z" fill="#FFCCD7"/>
<path d="M529.147 39.5379C528.728 36.092 525.197 32.9168 521.582 33.6229C507.763 36.3228 494.634 41.945 484.431 51.8431C473.817 62.1391 467.801 76.5196 468.818 91.3458C469.416 100.06 482.893 98.4075 482.296 89.6945C480.692 66.3071 502.734 51.1089 523.233 47.1041C526.829 46.4016 529.612 43.3636 529.147 39.5379Z" fill="#938CCB"/>
<path d="M707.006 -152.954C703.618 -151.085 702.773 -147.061 704.341 -143.73C713.004 -125.332 716.123 -104.301 713.2 -84.1682C710.141 -63.1043 699.913 -44.279 683.837 -30.3539C672.872 -20.857 660.004 -13.8318 646.979 -7.59583C639.094 -3.82045 645.677 8.05643 653.536 4.29359C677.604 -7.22951 701.013 -22.4151 714.436 -46.2185C725.809 -66.3874 729.51 -89.9747 726.964 -112.826C725.514 -125.84 721.802 -138.449 716.228 -150.289C714.664 -153.61 710.07 -154.645 707.006 -152.954Z" fill="#7B6EB9"/>
<path d="M519.798 380.607C522.731 378.083 522.734 373.971 520.517 371.033C508.27 354.799 500.909 334.853 499.648 314.549C498.328 293.305 504.484 272.783 517.367 255.859C526.154 244.317 537.311 234.804 548.782 226.032C555.727 220.721 546.851 210.445 539.929 215.738C518.732 231.948 498.93 251.608 490.666 277.657C483.664 299.729 484.873 323.574 492.044 345.419C496.129 357.86 502.344 369.441 510.226 379.888C512.436 382.818 517.144 382.89 519.798 380.607Z" fill="#CACAE8"/>
<path d="M926.091 -79.2581C914.296 -88.9964 901.529 -98.7799 886.653 -103.167C871.476 -107.643 856.459 -104.868 843.706 -95.5363C831.736 -86.7772 821.877 -74.6079 812.387 -63.3256C802.243 -51.2645 792.716 -38.6858 783.848 -25.6575C773.614 -10.624 764.248 5.00984 755.77 21.0983C754.061 24.3423 756.061 28.6496 759.248 30.0502C762.808 31.6148 766.482 29.8274 768.197 26.5719C781.863 0.635872 798 -23.924 816.361 -46.7789C825.123 -57.6867 834.215 -68.7361 844.372 -78.387C853.566 -87.1226 864.392 -93.5412 877.489 -91.4433C892.848 -88.9835 905.973 -78.261 917.61 -68.6538C924.365 -63.0768 932.828 -73.6969 926.091 -79.2581Z" fill="#F2D8EF"/>
<path d="M1068.55 60.4958C1041.44 46.1894 1015.61 29.5746 991.352 10.8338C987.133 7.57471 987.566 1.63739 992.246 -0.943182C1000.71 -5.60936 1009.52 -9.62014 1018.58 -12.9635C1019.59 -14.1629 1021.02 -15.0563 1022.63 -15.5188C1028.59 -17.2248 1034.55 -18.9309 1040.5 -20.6369C1045.41 -22.0408 1050.39 -23.8489 1055.49 -24.3965C1060.51 -24.9362 1065.66 -24.3247 1069.85 -21.2734C1075.06 -17.4803 1076.97 -11.2025 1078.53 -5.25894C1083.87 15.1447 1083.66 36.6232 1078.76 57.0753C1077.63 61.7623 1072.03 62.3341 1068.55 60.4958ZM1061.94 -10.269C1061.27 -9.90434 1060.5 -9.63404 1059.6 -9.49965C1041.58 -6.81152 1024.23 -1.4876 1007.86 6.31013C1026.88 20.3755 1046.81 33.1566 1067.52 44.5778C1069.83 30.2958 1069.35 15.5868 1066.21 1.46543C1065.49 -1.77462 1064.89 -7.65716 1062.27 -10.0039C1062.17 -10.1012 1062.05 -10.1865 1061.94 -10.269Z" fill="#BDBFE1"/>
<path d="M922.996 79.8166C912.181 87.0713 897.907 85.9342 887.289 78.9245C876.071 71.5197 871.935 57.9151 876.068 45.3305C879.975 33.4369 891.321 23.6262 904.068 23.1642C905.731 23.1041 907.336 23.5147 908.644 24.3389C920.949 23.7699 932.01 34.5531 934.849 47.0154C937.547 58.8568 933.346 72.8735 922.996 79.8166ZM921.547 49.4544C920.905 46.5927 919.114 43.161 916.973 41.1857C914.716 39.1045 910.064 36.3896 906.936 38.1904C904.367 39.6696 901.328 39.9439 898.991 38.3063C893.67 40.7892 889.565 45.782 888.354 51.483C886.849 58.5726 889.99 65.0372 896.016 68.4449C902.318 72.0088 910.142 72.5252 915.898 68.1979C921.412 64.0531 923.069 56.2332 921.547 49.4544Z" fill="#AEABDA"/>
<path d="M1145.38 203.577C1144.78 197.563 1143.84 191.584 1142.64 185.66C1140.15 173.405 1136.62 161.364 1132.52 149.558C1127.99 136.515 1122.76 123.728 1117.52 110.955C1114.21 102.876 1101.6 107.903 1104.92 116.015C1113.37 136.611 1122.02 157.376 1127.31 179.055C1129.99 190.025 1132.06 201.36 1132.46 212.667C1132.64 217.995 1131.45 222.429 1127.97 226.494C1124.57 230.46 1120.33 233.76 1116.27 237.02C1106.41 244.943 1095.83 251.982 1084.64 257.891C1081.41 259.601 1079.41 263.069 1080.87 266.722C1082.13 269.853 1086.44 272.216 1089.7 270.494C1100.66 264.703 1111.18 258.134 1121 250.569C1130.39 243.34 1141.59 235.217 1144.86 223.244C1146.6 216.875 1146.04 210.073 1145.38 203.577Z" fill="#CACAE8"/>
<path d="M1065.1 115.072C1054.56 106.466 1040.74 103.259 1027.51 106.581C1016.15 109.436 1006.94 117.38 999.098 125.718C991.511 133.781 984.735 142.982 975.705 149.536C967.522 155.474 957.558 158.215 947.465 157.207C936.313 156.093 925.304 151.074 918.26 142.178C915.985 139.306 912.115 138.091 908.859 140.227C906.004 142.1 904.622 146.743 906.908 149.63C921.536 168.1 947.503 175.745 969.837 167.898C981.046 163.96 989.932 155.971 997.853 147.367C1005.34 139.239 1012.21 130.022 1021.59 123.95C1032.25 117.05 1046 116.998 1056.04 125.193C1062.8 130.709 1071.87 120.604 1065.1 115.072Z" fill="#E1A3D8"/>
<path d="M1210.9 238.566C1202.26 237.285 1200.25 250.714 1208.91 251.997C1217.55 253.278 1219.55 239.849 1210.9 238.566Z" fill="#CACAE8"/>
<path d="M837.19 175.544C829.944 187.038 814.718 192.907 801.564 190.053C786.774 186.844 775.318 176.357 766.097 164.878C764.388 162.75 762.707 160.533 761.076 158.239C750.578 166.561 741.754 176.545 729.674 182.815C717.974 188.888 704.55 191.318 691.449 190.458C665.352 188.745 642.151 171.517 631.451 147.922C627.828 139.932 640.454 134.93 644.051 142.861C656.455 170.215 688.499 183.839 716.772 173.64C730.761 168.594 740.281 157.874 751.437 148.601C752.202 147.966 752.979 147.348 753.766 146.743C742.271 126.309 736.595 102.094 749.187 80.7747C751.059 77.6048 754.454 75.6829 758.141 77.3085C761.214 78.6642 763.472 83.1067 761.606 86.265C753.714 99.6286 754.517 115.437 760.192 129.486C761.56 132.872 763.17 136.244 764.979 139.554C773.306 135.178 782.41 132.36 791.884 131.463C805.193 130.202 819.74 132.338 830.445 140.926C841.036 149.422 844.616 163.765 837.19 175.544ZM825.51 155.26C819.712 147.027 808.023 144.559 798.548 144.668C789.355 144.774 780.37 146.973 772.241 151.037C776.046 156.288 780.304 161.176 784.827 165.444C792.866 173.029 804.148 180.119 815.519 175.951C824.044 172.825 831.547 163.832 825.51 155.26Z" fill="#CACAE8"/>
<path d="M1034.09 248.87C1027.69 260.513 1013.26 266.304 1000.43 263.405C987.539 260.496 978.293 249.868 976.197 236.928C974.138 224.216 980.388 211.896 992.076 206.457C1002.72 201.504 1015.22 203.348 1023.76 211.107C1024.17 211.282 1024.57 211.488 1024.96 211.725C1037.01 219.102 1040.76 236.717 1034.09 248.87ZM1017.45 221.67C1016.63 221.243 1015.86 220.661 1015.18 219.956C1010.25 214.789 1000.49 215.114 994.531 219.35C988.533 223.616 986.916 231.488 989.382 238.527C992.038 246.108 998.281 251.278 1006.39 251.637C1013.96 251.972 1022.04 247.715 1024.26 240.191C1026.26 233.441 1023.66 225.671 1017.45 221.67Z" fill="#E2E2F2"/>
<path d="M832.4 72.39C832.261 71.3002 831.866 70.3132 831.215 69.429C830.171 68.1406 828.79 67.2206 827.117 66.9726L825.631 66.7523C824.785 66.5942 823.966 66.654 823.173 66.9316C822.37 67.0672 821.645 67.3947 820.996 67.9142C820.311 68.3843 819.787 68.9839 819.425 69.7127C818.929 70.3916 818.634 71.1585 818.54 72.0136L818.518 73.6884C818.656 74.7782 819.051 75.7652 819.702 76.6493C820.746 77.9379 822.127 78.8577 823.8 79.1058L825.286 79.326C826.132 79.4842 826.951 79.4244 827.744 79.1468C828.547 79.0112 829.272 78.6837 829.921 78.1642C830.606 77.6941 831.13 77.0945 831.492 76.3657C831.988 75.6869 832.283 74.9199 832.377 74.0647C832.384 73.5065 832.392 72.9483 832.4 72.39Z" fill="#B9D5EA"/>
<path d="M600.722 200.483C600.583 199.393 600.189 198.406 599.538 197.522C598.494 196.233 597.112 195.313 595.439 195.065L593.953 194.845C593.108 194.687 592.288 194.747 591.495 195.024C590.693 195.16 589.967 195.487 589.318 196.007C588.633 196.477 588.11 197.077 587.747 197.805C587.251 198.484 586.957 199.251 586.863 200.106C586.855 200.665 586.847 201.223 586.84 201.781C586.978 202.871 587.373 203.858 588.024 204.742C589.068 206.031 590.449 206.951 592.123 207.199L593.609 207.419C594.454 207.577 595.273 207.517 596.067 207.24C596.869 207.104 597.595 206.776 598.243 206.257C598.928 205.787 599.452 205.187 599.815 204.458C600.31 203.78 600.605 203.013 600.699 202.158C600.707 201.599 600.714 201.041 600.722 200.483Z" fill="#E2BBDF"/>
<path d="M1047.2 353.261C1054.4 360.246 1064.05 369.825 1075.07 368.16C1082.62 367.018 1088.89 361.335 1095.3 357.622C1100.75 354.47 1106.87 352.11 1113.1 351.115C1113.75 349.131 1114.42 347.179 1115.09 345.276C1119.49 332.876 1125.18 320.306 1133.14 309.761C1140.75 299.679 1150.79 291.19 1163.38 288.416C1174.96 285.865 1187 288.24 1195.94 296.204C1198.47 298.459 1198.01 302.859 1195.71 305.034C1193.12 307.494 1189.4 307.052 1186.89 304.809C1180.01 298.68 1169.12 298.754 1161.01 302.161C1149.74 306.895 1142.17 317.364 1136.48 327.747C1132.42 335.146 1129.03 342.919 1126.33 350.918C1134.03 351.981 1141.28 355.212 1146.85 361.101C1154.45 369.142 1158.38 381.569 1153.84 392.11C1149.78 401.537 1139.73 407.711 1129.5 407.487C1116.43 407.201 1108.82 395.908 1107.85 383.801C1107.36 377.652 1108.04 371.283 1109.34 364.999C1103.79 367.002 1098.67 370.2 1093.51 373.461C1083.86 379.555 1073.14 383.046 1062 378.868C1052.7 375.382 1045.18 368.682 1038.15 361.865C1032.36 356.248 1041.46 347.688 1047.2 353.261ZM1141.47 374.981C1137.8 367.621 1130.74 363.619 1122.8 363.009C1121.78 367.075 1120.93 371.203 1120.48 375.358C1119.98 380.054 1119.7 385.472 1121.94 389.805C1125.3 396.304 1132.16 396.159 1137.85 392.574C1140.1 391.153 1142.15 388.691 1142.9 385.677C1143.8 382.089 1143.1 378.253 1141.47 374.981Z" fill="#F2D8EF"/>
<path d="M689.419 254.021C686.838 265.184 676.557 274.057 665.076 274.894C652.914 275.781 641.574 267.843 637.083 256.685C632.383 245.01 635.577 230.977 645.741 223.299C655.362 216.031 669.798 216.176 677.723 225.75C686.664 231.768 691.882 243.374 689.419 254.021ZM667.214 234.398C665.571 233.809 664.438 232.413 663.897 230.801C658.412 229.185 651.505 233.326 649.002 238.336C644.877 246.59 648.941 257.366 657.24 261.18C664.592 264.559 673.837 260.657 676.73 253.069C679.654 245.395 674.537 237.023 667.214 234.398Z" fill="#7B6EB9"/>
<path d="M728.883 352.819C720.301 342.922 707.876 336.853 694.831 335.916C682.698 335.045 671.439 339.694 660.3 343.795C649.251 347.863 638.478 350.678 627.006 346.446C616.111 342.427 606.537 333.603 600.361 323.886C593.851 313.642 590.125 301.271 593.171 289.224C595.136 281.454 583.18 277.849 581.205 285.66C574.791 311.029 589.384 337.051 609.951 351.386C621.489 359.428 635.138 362.907 649.01 360.209C660.841 357.909 671.542 351.866 683.297 349.281C696.854 346.3 710.665 350.859 719.767 361.355C725.047 367.444 734.139 358.88 728.883 352.819Z" fill="#FFCCD7"/>
<path d="M781.598 296.73C778.246 300.807 771.219 301.921 766.413 303.318C756.629 306.161 746.666 308.296 736.576 309.67C733.154 313.874 724.522 311.511 725.498 304.805C727.388 291.827 731.258 278.854 737.376 267.222C741.719 258.966 750.592 249.769 760.765 254.773C765.599 257.151 768.494 261.869 771.317 266.243C774.371 270.977 777.207 275.851 779.88 280.81C782.526 285.721 785.819 291.597 781.598 296.73ZM769.452 289.316C769.729 289.223 770.049 289.075 770.38 288.927C769.466 286.949 768.028 284.942 767.155 283.384C765.307 280.089 763.338 276.857 761.289 273.684C759.829 271.422 758.031 267.358 755.521 266.072C754.646 265.623 753.547 266.274 752.527 267.192C747.925 271.333 745.63 278.567 743.52 284.181C741.992 288.245 740.759 292.385 739.765 296.586C744.495 295.835 749.197 294.917 753.861 293.815C757.26 293.011 760.626 292.086 763.968 291.071C765.805 290.513 767.633 289.928 769.452 289.316Z" fill="#AEABDA"/>
<path d="M528.647 138.204C530.071 133.121 536.052 129.267 539.886 126.05C547.693 119.502 555.95 113.531 564.629 108.203C566.066 102.975 574.917 101.656 576.727 108.186C580.231 120.824 581.92 134.257 581.01 147.369C580.364 156.676 575.953 168.67 564.626 168.195C559.244 167.969 554.692 164.819 550.346 161.955C545.642 158.855 541.083 155.539 536.637 152.079C532.236 148.653 526.854 144.604 528.647 138.204ZM542.75 140.089C542.535 140.286 542.301 140.55 542.058 140.82C543.692 142.261 545.817 143.518 547.244 144.591C550.263 146.861 553.368 149.024 556.522 151.102C558.77 152.582 562.055 155.576 564.87 155.741C565.851 155.798 566.595 154.759 567.158 153.508C569.7 147.862 568.883 140.317 568.551 134.328C568.31 129.993 567.77 125.707 566.986 121.462C562.961 124.057 559.028 126.794 555.204 129.684C552.417 131.79 549.71 133.995 547.061 136.271C545.605 137.522 544.168 138.795 542.75 140.089Z" fill="#B9D5EA"/>
<path d="M677.487 77.4582C665.481 82.4889 653.474 87.5196 641.468 92.5503C635.771 94.9375 629.788 97.7806 623.394 94.9597C618.219 92.6763 615.89 87.7282 614.741 83.0026C613.579 78.2209 613.046 73.3467 611.852 68.5587C610.587 63.4878 608.959 58.501 607.021 53.5853C603.21 43.9163 598.268 34.5899 592.171 25.8583C590.135 22.942 590.261 19.2309 593.465 17.1231C596.277 15.2734 601.216 15.664 603.247 18.5732C614.947 35.3292 623.101 53.7435 626.982 73.0449C627.679 76.5138 628.586 80.3654 629.294 83.5854C629.633 83.311 630.916 82.9934 631.252 82.8601C633.898 81.8102 636.498 80.6673 639.119 79.5694L672.086 65.7563C680.147 62.3787 685.475 74.1114 677.487 77.4582ZM629.586 83.9093C629.486 83.8883 629.415 83.8648 629.357 83.8404C629.698 85.1318 629.977 83.9914 629.586 83.9093Z" fill="#E1A3D8"/>
<path d="M963.832 307.114C940.659 294.74 917.932 281.537 895.76 267.445C885.587 260.979 874.961 254.713 865.625 247.052C859.407 241.949 852.501 234.949 852.676 226.307C852.809 219.714 857.094 213.826 860.586 208.546C864.877 202.057 869.171 195.57 873.464 189.082C875.323 186.271 875.297 182.548 872.501 180.302C870.056 178.34 865.592 178.441 863.723 181.266C859.657 187.412 855.59 193.559 851.523 199.706C847.683 205.511 843.607 211.327 841.589 218.06C838.075 229.781 842.349 241.137 850.44 249.843C858.721 258.754 869.236 265.1 879.361 271.673C891.56 279.592 903.925 287.256 916.429 294.684C930.362 302.96 944.489 310.906 958.784 318.54C961.758 320.128 965.731 318.273 967.019 315.352C968.466 312.068 966.817 308.708 963.832 307.114Z" fill="#E2BBDF"/>
<path d="M1004.15 366.305C1003.25 362.952 999.305 360.305 995.825 361.512C982.523 366.129 970.315 373.542 961.604 384.776C952.543 396.463 948.608 411.547 951.699 426.082C953.516 434.626 966.627 431.095 964.811 422.552C959.936 399.623 979.622 381.475 999.354 374.627C1002.82 373.426 1005.14 370.027 1004.15 366.305Z" fill="#E2E2F2"/>
<path d="M662.747 376.229C655.555 372.604 650.546 384.049 657.699 387.655C668.873 393.287 673.041 407.797 669.688 419.293C665.692 432.994 653.329 442.581 640.407 447.274C624.786 452.946 608.397 451.843 592.102 451.991C576.502 452.134 561.386 455.856 550.936 468.183C540.756 480.191 537.255 497.048 542.179 512.003C544.693 519.638 556.276 514.97 553.767 507.349C549.946 495.746 554.021 482.302 562.645 473.847C573.892 462.821 590.946 464.356 605.432 464.514C622.186 464.696 639.567 462.801 654.479 454.589C668.286 446.986 679.682 434.246 682.662 418.415C685.777 401.871 677.936 383.886 662.747 376.229Z" fill="#F2D8EF"/>
<path d="M903.345 343.134C913.868 347.048 921.467 356.536 921.567 367.89C921.597 371.281 917.988 373.87 914.85 373.621C911.276 373.337 909.151 370.274 909.121 366.902C909.077 361.921 904.951 357.668 900.736 355.564C894.766 352.584 887.642 353.493 881.478 355.308C870.228 358.62 859.618 365.619 851.182 373.927C864.667 389.035 865.762 413.305 859.269 432.081C855.107 444.114 847.371 454.761 836.388 461.359C825.855 467.687 812.617 469.398 800.999 465.239C793.43 462.529 797.685 450.785 805.259 453.497C815.661 457.221 827.263 453.917 835.4 446.763C844.105 439.109 848.808 427.547 850.224 416.232C851.518 405.897 850.486 394.598 844.531 385.744C844.021 384.984 843.467 384.24 842.878 383.515C837.274 390.933 832.026 398.893 823.432 402.963C814.597 407.147 801.829 405.792 795.939 397.306C788.154 386.09 796.534 371.989 806.602 365.697C817.051 359.167 829.927 359.716 840.533 365.484C840.866 365.665 841.18 365.863 841.505 366.051C849.191 358.199 858.423 351.71 868.374 347.075C879.048 342.104 891.875 338.867 903.345 343.134ZM830.309 379.502C831.27 378.21 832.239 376.932 833.222 375.666C829.742 373.939 825.913 373.035 821.995 373.399C817.648 373.802 813.514 375.529 810.246 378.426C807.493 380.867 804.714 385.044 805.527 388.89C805.737 389.884 806.156 390.443 807.278 391.23C808.117 391.819 809.945 392.467 810.765 392.596C814.293 393.151 817.044 392.598 820.116 390.509C824.294 387.668 827.334 383.501 830.309 379.502Z" fill="#938CCB"/>
</g>
</g>
</g>
<defs>
<clipPath id="clip0_2022_13024">
<rect width="1438" height="400" fill="white" transform="translate(0 0.317871)"/>
</clipPath>
<clipPath id="clip1_2022_13024">
<rect width="1440" height="1024" fill="white" transform="translate(0 -163.682)"/>
</clipPath>
<clipPath id="clip2_2022_13024">
<rect width="1827" height="1157" fill="white" transform="translate(-109 -181.682)"/>
</clipPath>
</defs>
</svg>
