<svg width="138" height="138" viewBox="0 0 138 138" fill="none" xmlns="http://www.w3.org/2000/svg">
<g filter="url(#filter0_d_40_819)">
<path d="M72 130C107.899 130 137 100.899 137 65C137 29.1015 107.899 0 72 0C36.1015 0 7 29.1015 7 65C7 100.899 36.1015 130 72 130Z" fill="white"/>
</g>
<g clip-path="url(#clip0_40_819)">
<path d="M72.0022 120.004C102.379 120.004 127.004 95.379 127.004 65.0022C127.004 34.6253 102.379 10 72.0022 10C41.6253 10 17 34.6253 17 65.0022C17 95.379 41.6253 120.004 72.0022 120.004Z" fill="#98BCD7"/>
<path fill-rule="evenodd" clip-rule="evenodd" d="M72.0021 36.5996C58.538 36.5996 47.6206 47.517 47.6206 60.9768C47.6206 69.0578 51.5509 76.2179 57.6041 80.6541C61.089 85.2026 59.8178 95.0132 62.0575 97.1707H72.0021H81.9424C84.1821 95.0132 82.9109 85.2026 86.3958 80.6541C92.449 76.2179 96.3793 69.0578 96.3793 60.9768C96.3793 47.517 85.4619 36.5996 72.0021 36.5996Z" fill="#FCD861"/>
<path fill-rule="evenodd" clip-rule="evenodd" d="M62.0576 97.1708H81.9424V107.102C81.9424 109.653 79.8584 111.737 77.3074 111.737H66.6927C64.1417 111.737 62.0576 109.653 62.0576 107.102V97.1708Z" fill="#A9ABBC"/>
<path d="M81.6657 101.564H62.3343C61.4723 101.564 60.7734 102.243 60.7734 103.081C60.7734 103.919 61.4723 104.599 62.3343 104.599H81.6657C82.5277 104.599 83.2266 103.919 83.2266 103.081C83.2266 102.243 82.5277 101.564 81.6657 101.564Z" fill="#F1F1F4"/>
<path fill-rule="evenodd" clip-rule="evenodd" d="M77.4284 111.737C77.4284 112.52 74.9985 113.151 72.0021 113.151C69.0015 113.151 66.5715 112.52 66.5715 111.737H77.4284Z" fill="#70728F"/>
<path d="M67.3629 67.1337H76.6373C77.1778 67.1337 77.6145 67.5704 77.6145 68.1108V97.1706H75.6645V69.0837H68.3357V97.1706H66.3857V68.1108C66.3857 67.5704 66.8224 67.1337 67.3629 67.1337Z" fill="white"/>
<path d="M80.2172 59.9736C81.4668 59.9736 82.6082 60.4882 83.434 61.3097V61.314C84.2599 62.1398 84.7744 63.277 84.7744 64.5308C84.7744 65.7847 84.2599 66.9219 83.434 67.7477C82.6125 68.5735 81.4711 69.0837 80.2172 69.0837H76.9139C76.5723 69.0837 76.261 68.9454 76.0318 68.7205L76.0275 68.7162C75.8027 68.4871 75.6643 68.1757 75.6643 67.8342V64.5308C75.6643 63.277 76.1745 62.1355 77.0003 61.3097C77.8262 60.4882 78.9633 59.9736 80.2172 59.9736ZM82.0591 62.6889C81.5878 62.2176 80.9349 61.9236 80.2172 61.9236C79.5038 61.9236 78.8509 62.2176 78.3796 62.6889C77.9083 63.1645 77.6143 63.8131 77.6143 64.5308V67.1337H80.2172C80.9349 67.1337 81.5835 66.8397 82.0591 66.3684C82.5304 65.8971 82.8244 65.2443 82.8244 64.5308C82.8244 63.8131 82.5304 63.1602 82.0591 62.6889Z" fill="white"/>
<path d="M63.7828 61.9236C63.0651 61.9236 62.4165 62.2176 61.9452 62.6889C61.4696 63.1645 61.1756 63.8131 61.1756 64.5308C61.1756 65.2486 61.4696 65.8971 61.9409 66.3684L61.9452 66.3728C62.4122 66.844 63.0651 67.1337 63.7828 67.1337H66.3857V64.5308C66.3857 63.8131 66.096 63.1602 65.6247 62.6889C65.1534 62.2176 64.5005 61.9236 63.7828 61.9236ZM60.5659 61.3097C61.3875 60.4882 62.5289 59.9736 63.7828 59.9736C65.0324 59.9736 66.1695 60.4882 66.9953 61.3097L66.9997 61.314C67.8255 62.1398 68.3357 63.277 68.3357 64.5308V67.8342C68.3357 68.1801 68.1973 68.4914 67.9725 68.7205H67.9682C67.7433 68.9454 67.432 69.0837 67.0904 69.0837H63.7828C62.5332 69.0837 61.3961 68.5735 60.5703 67.7477L60.5659 67.7434C59.7401 66.9175 59.2256 65.7804 59.2256 64.5308C59.2256 63.277 59.7401 62.1355 60.5659 61.3097Z" fill="white"/>
<path d="M82.1801 96.799H61.8154C60.908 96.799 60.1724 97.4784 60.1724 98.3166C60.1724 99.1547 60.908 99.8342 61.8154 99.8342H82.1801C83.0876 99.8342 83.8232 99.1547 83.8232 98.3166C83.8232 97.4784 83.0876 96.799 82.1801 96.799Z" fill="#F1F1F4"/>
<path d="M81.6657 106.333H62.3343C61.4723 106.333 60.7734 107.012 60.7734 107.85C60.7734 108.689 61.4723 109.368 62.3343 109.368H81.6657C82.5277 109.368 83.2266 108.689 83.2266 107.85C83.2266 107.012 82.5277 106.333 81.6657 106.333Z" fill="#F1F1F4"/>
<path fill-rule="evenodd" clip-rule="evenodd" d="M72.0021 36.5996C71.0855 36.5996 70.1862 36.6515 69.2998 36.7509C81.4927 38.0956 90.979 48.4293 90.979 60.9768C90.979 69.0578 87.0487 76.2179 80.9955 80.6541C77.5106 85.2026 78.7817 95.0132 76.5421 97.1707H81.9424C84.1821 95.0132 82.9109 85.2026 86.3958 80.6541C92.4491 76.2179 96.3793 69.0578 96.3793 60.9768C96.3793 47.517 85.4619 36.5996 72.0021 36.5996Z" fill="#F0C638"/>
<path d="M67.3629 67.1337H76.6373C77.1778 67.1337 77.6145 67.5704 77.6145 68.1108V97.1706H75.6645V69.0837H68.3357V97.1706H66.3857V68.1108C66.3857 67.5704 66.8224 67.1337 67.3629 67.1337Z" fill="white"/>
<path d="M80.2172 59.9736C81.4668 59.9736 82.6082 60.4882 83.434 61.3097V61.314C84.2599 62.1398 84.7744 63.277 84.7744 64.5308C84.7744 65.7847 84.2599 66.9219 83.434 67.7477C82.6125 68.5735 81.4711 69.0837 80.2172 69.0837H76.9139C76.5723 69.0837 76.261 68.9454 76.0318 68.7205L76.0275 68.7162C75.8027 68.4871 75.6643 68.1757 75.6643 67.8342V64.5308C75.6643 63.277 76.1745 62.1355 77.0003 61.3097C77.8262 60.4882 78.9633 59.9736 80.2172 59.9736ZM82.0591 62.6889C81.5878 62.2176 80.9349 61.9236 80.2172 61.9236C79.5038 61.9236 78.8509 62.2176 78.3796 62.6889C77.9083 63.1645 77.6143 63.8131 77.6143 64.5308V67.1337H80.2172C80.9349 67.1337 81.5835 66.8397 82.0591 66.3684C82.5304 65.8971 82.8244 65.2443 82.8244 64.5308C82.8244 63.8131 82.5304 63.1602 82.0591 62.6889Z" fill="white"/>
<path d="M63.7828 61.9236C63.0651 61.9236 62.4165 62.2176 61.9452 62.6889C61.4696 63.1645 61.1756 63.8131 61.1756 64.5308C61.1756 65.2486 61.4696 65.8971 61.9409 66.3684L61.9452 66.3728C62.4122 66.844 63.0651 67.1337 63.7828 67.1337H66.3857V64.5308C66.3857 63.8131 66.096 63.1602 65.6247 62.6889C65.1534 62.2176 64.5005 61.9236 63.7828 61.9236ZM60.5659 61.3097C61.3875 60.4882 62.5289 59.9736 63.7828 59.9736C65.0324 59.9736 66.1695 60.4882 66.9953 61.3097L66.9997 61.314C67.8255 62.1398 68.3357 63.277 68.3357 64.5308V67.8342C68.3357 68.1801 68.1973 68.4914 67.9725 68.7205H67.9682C67.7433 68.9454 67.432 69.0837 67.0904 69.0837H63.7828C62.5332 69.0837 61.3961 68.5735 60.5703 67.7477L60.5659 67.7434C59.7401 66.9175 59.2256 65.7804 59.2256 64.5308C59.2256 63.277 59.7401 62.1355 60.5659 61.3097Z" fill="white"/>
<path d="M56.2619 48.5474C57.6464 47.3424 58.6147 45.6252 58.4247 44.7119C58.2347 43.7985 56.9584 44.0349 55.5739 45.2399C54.1895 46.4448 53.2212 48.162 53.4111 49.0754C53.6011 49.9887 54.8774 49.7523 56.2619 48.5474Z" fill="white"/>
<path fill-rule="evenodd" clip-rule="evenodd" d="M70.7527 19.9575H73.2605V29.5086H70.7527V19.9575ZM82.2841 26.1664L84.6708 26.9403L83.1964 31.4803L80.8097 30.7063L82.2841 26.1664ZM95.6185 27.23L97.6463 28.7001L92.0341 36.4266L90.0063 34.9522L95.6185 27.23ZM101.3 39.0295L102.774 41.0573L98.9088 43.8634L97.4388 41.8356L101.3 39.0295ZM111.461 47.7245L112.235 50.1069L103.155 53.06L102.381 50.6733L111.461 47.7245ZM109.121 60.6092V63.117H104.348V60.6092H109.121ZM112.23 73.6193L111.456 76.0017L102.376 73.0486L103.15 70.6662L112.23 73.6193ZM102.766 82.6689L101.291 84.6967L97.4301 81.8906L98.9002 79.8628L102.766 82.6689ZM97.6333 95.0175L95.6055 96.4918L89.9933 88.7653L92.0211 87.2953L97.6333 95.0175ZM48.3817 96.4832L46.3539 95.0088L51.9661 87.2866L53.9939 88.7567L48.3817 96.4832ZM42.7003 84.6837L41.2259 82.6559L45.0914 79.8498L46.5614 81.8776L42.7003 84.6837ZM32.5396 75.9887L31.7656 73.6063L40.8455 70.6532L41.6194 73.0356L32.5396 75.9887ZM34.8787 63.104V60.5962H39.6521V63.104H34.8787ZM31.7699 50.0939L32.5439 47.7115L41.6237 50.6603L40.8498 53.047L31.7699 50.0939ZM41.2346 41.0443L42.709 39.0165L46.5701 41.8226L45.1 43.8504L41.2346 41.0443ZM46.3669 28.6958L48.3947 27.2214L54.0069 34.9479L51.9791 36.418L46.3669 28.6958ZM59.3424 26.936L61.7291 26.1621L63.2035 30.702L60.8168 31.4759L59.3424 26.936Z" fill="white"/>
</g>
<defs>
<filter id="filter0_d_40_819" x="0" y="0" width="138" height="138" filterUnits="userSpaceOnUse" color-interpolation-filters="sRGB">
<feFlood flood-opacity="0" result="BackgroundImageFix"/>
<feColorMatrix in="SourceAlpha" type="matrix" values="0 0 0 0 0 0 0 0 0 0 0 0 0 0 0 0 0 0 127 0" result="hardAlpha"/>
<feOffset dx="-3" dy="4"/>
<feGaussianBlur stdDeviation="2"/>
<feComposite in2="hardAlpha" operator="out"/>
<feColorMatrix type="matrix" values="0 0 0 0 0 0 0 0 0 0 0 0 0 0 0 0 0 0 0.25 0"/>
<feBlend mode="normal" in2="BackgroundImageFix" result="effect1_dropShadow_40_819"/>
<feBlend mode="normal" in="SourceGraphic" in2="effect1_dropShadow_40_819" result="shape"/>
</filter>
<clipPath id="clip0_40_819">
<rect width="110" height="110" fill="white" transform="translate(17 10)"/>
</clipPath>
</defs>
</svg>
