<svg width="130" height="131" viewBox="0 0 130 131" fill="none" xmlns="http://www.w3.org/2000/svg">
<g filter="url(#filter0_d_2022_13652)">
<path d="M68 122.318C101.689 122.318 129 95.0072 129 61.3179C129 27.6285 101.689 0.317871 68 0.317871C34.3106 0.317871 7 27.6285 7 61.3179C7 95.0072 34.3106 122.318 68 122.318Z" fill="white"/>
</g>
<g clip-path="url(#clip0_2022_13652)">
<path d="M68.0022 112.937C96.5097 112.937 119.62 89.8274 119.62 61.3199C119.62 32.8124 96.5097 9.70251 68.0022 9.70251C39.4947 9.70251 16.3848 32.8124 16.3848 61.3199C16.3848 89.8274 39.4947 112.937 68.0022 112.937Z" fill="#695BA6"/>
<path fill-rule="evenodd" clip-rule="evenodd" d="M67.6175 36.7256C56.081 36.7256 46.7266 46.08 46.7266 57.6128C46.7266 64.537 50.0942 70.672 55.2808 74.4731C58.2668 78.3704 57.1776 86.7765 59.0967 88.6251H67.6175H76.1347C78.0538 86.7765 76.9646 78.3704 79.9506 74.4731C85.1372 70.672 88.5048 64.537 88.5048 57.6128C88.5048 46.08 79.1504 36.7256 67.6175 36.7256Z" fill="#CACAE8"/>
<path fill-rule="evenodd" clip-rule="evenodd" d="M59.0957 88.6251H76.1338V97.1349C76.1338 99.3207 74.3481 101.106 72.1623 101.106H63.0672C60.8814 101.106 59.0957 99.3207 59.0957 97.1349V88.6251Z" fill="#A9ABBC"/>
<path d="M75.8973 92.3892H59.3335C58.5949 92.3892 57.9961 92.9714 57.9961 93.6895C57.9961 94.4077 58.5949 94.9899 59.3335 94.9899H75.8973C76.636 94.9899 77.2348 94.4077 77.2348 93.6895C77.2348 92.9714 76.636 92.3892 75.8973 92.3892Z" fill="#F1F1F4"/>
<path fill-rule="evenodd" clip-rule="evenodd" d="M72.2674 101.106C72.2674 101.777 70.1854 102.318 67.618 102.318C65.0469 102.318 62.9648 101.777 62.9648 101.106H72.2674Z" fill="#70728F"/>
<path d="M63.642 62.8883H71.5886C72.0517 62.8883 72.4259 63.2625 72.4259 63.7256V88.6251H70.755V64.5591H64.4755V88.6251H62.8047V63.7256C62.8047 63.2625 63.1789 62.8883 63.642 62.8883Z" fill="white"/>
<path d="M74.655 56.7533C75.7257 56.7533 76.7037 57.1942 77.4113 57.8981V57.9018C78.1189 58.6094 78.5598 59.5837 78.5598 60.6581C78.5598 61.7325 78.1189 62.7068 77.4113 63.4144C76.7074 64.122 75.7294 64.5592 74.655 64.5592H71.8246C71.5319 64.5592 71.2652 64.4406 71.0688 64.248L71.0651 64.2443C70.8725 64.0479 70.7539 63.7812 70.7539 63.4885V60.6581C70.7539 59.5837 71.1911 58.6057 71.8987 57.8981C72.6063 57.1942 73.5806 56.7533 74.655 56.7533ZM76.2332 59.0799C75.8294 58.6761 75.27 58.4241 74.655 58.4241C74.0437 58.4241 73.4843 58.6761 73.0805 59.0799C72.6767 59.4874 72.4247 60.0431 72.4247 60.6581V62.8883H74.655C75.27 62.8883 75.8257 62.6364 76.2332 62.2326C76.637 61.8288 76.8889 61.2694 76.8889 60.6581C76.8889 60.0431 76.637 59.4837 76.2332 59.0799Z" fill="white"/>
<path d="M60.5747 58.4241C59.9597 58.4241 59.404 58.6761 59.0002 59.0799C58.5927 59.4874 58.3408 60.0431 58.3408 60.6581C58.3408 61.2731 58.5927 61.8288 58.9965 62.2326L59.0002 62.2363C59.4003 62.6401 59.9597 62.8883 60.5747 62.8883H62.805V60.6581C62.805 60.0431 62.5567 59.4837 62.1529 59.0799C61.7491 58.6761 61.1897 58.4241 60.5747 58.4241ZM57.8184 57.8981C58.5223 57.1942 59.5003 56.7533 60.5747 56.7533C61.6454 56.7533 62.6197 57.1942 63.3273 57.8981L63.331 57.9018C64.0386 58.6094 64.4758 59.5837 64.4758 60.6581V63.4885C64.4758 63.7849 64.3572 64.0516 64.1646 64.248H64.1609C63.9682 64.4406 63.7015 64.5592 63.4088 64.5592H60.5747C59.504 64.5592 58.5297 64.122 57.8221 63.4144L57.8184 63.4107C57.1108 62.7031 56.6699 61.7287 56.6699 60.6581C56.6699 59.5837 57.1108 58.6057 57.8184 57.8981Z" fill="white"/>
<path d="M76.3375 88.3065H58.8883C58.1108 88.3065 57.4805 88.8887 57.4805 89.6069C57.4805 90.325 58.1108 90.9072 58.8883 90.9072H76.3375C77.115 90.9072 77.7453 90.325 77.7453 89.6069C77.7453 88.8887 77.115 88.3065 76.3375 88.3065Z" fill="#F1F1F4"/>
<path d="M75.8973 96.4755H59.3335C58.5949 96.4755 57.9961 97.0577 57.9961 97.7758C57.9961 98.494 58.5949 99.0762 59.3335 99.0762H75.8973C76.636 99.0762 77.2348 98.494 77.2348 97.7758C77.2348 97.0577 76.636 96.4755 75.8973 96.4755Z" fill="#F1F1F4"/>
<path d="M63.642 62.8883H71.5886C72.0517 62.8883 72.4259 63.2625 72.4259 63.7256V88.6251H70.755V64.5591H64.4755V88.6251H62.8047V63.7256C62.8047 63.2625 63.1789 62.8883 63.642 62.8883Z" fill="white"/>
<path d="M74.655 56.7533C75.7257 56.7533 76.7037 57.1942 77.4113 57.8981V57.9018C78.1189 58.6094 78.5598 59.5837 78.5598 60.6581C78.5598 61.7325 78.1189 62.7068 77.4113 63.4144C76.7074 64.122 75.7294 64.5592 74.655 64.5592H71.8246C71.5319 64.5592 71.2652 64.4406 71.0688 64.248L71.0651 64.2443C70.8725 64.0479 70.7539 63.7812 70.7539 63.4885V60.6581C70.7539 59.5837 71.1911 58.6057 71.8987 57.8981C72.6063 57.1942 73.5806 56.7533 74.655 56.7533ZM76.2332 59.0799C75.8294 58.6761 75.27 58.4241 74.655 58.4241C74.0437 58.4241 73.4843 58.6761 73.0805 59.0799C72.6767 59.4874 72.4247 60.0431 72.4247 60.6581V62.8883H74.655C75.27 62.8883 75.8257 62.6364 76.2332 62.2326C76.637 61.8288 76.8889 61.2694 76.8889 60.6581C76.8889 60.0431 76.637 59.4837 76.2332 59.0799Z" fill="white"/>
<path d="M60.5747 58.4241C59.9597 58.4241 59.404 58.6761 59.0002 59.0799C58.5927 59.4874 58.3408 60.0431 58.3408 60.6581C58.3408 61.2731 58.5927 61.8288 58.9965 62.2326L59.0002 62.2363C59.4003 62.6401 59.9597 62.8883 60.5747 62.8883H62.805V60.6581C62.805 60.0431 62.5567 59.4837 62.1529 59.0799C61.7491 58.6761 61.1897 58.4241 60.5747 58.4241ZM57.8184 57.8981C58.5223 57.1942 59.5003 56.7533 60.5747 56.7533C61.6454 56.7533 62.6197 57.1942 63.3273 57.8981L63.331 57.9018C64.0386 58.6094 64.4758 59.5837 64.4758 60.6581V63.4885C64.4758 63.7849 64.3572 64.0516 64.1646 64.248H64.1609C63.9682 64.4406 63.7015 64.5592 63.4088 64.5592H60.5747C59.504 64.5592 58.5297 64.122 57.8221 63.4144L57.8184 63.4107C57.1108 62.7031 56.6699 61.7287 56.6699 60.6581C56.6699 59.5837 57.1108 58.6057 57.8184 57.8981Z" fill="white"/>
<path fill-rule="evenodd" clip-rule="evenodd" d="M66.5462 22.4661H68.6949V30.6498H66.5462V22.4661ZM76.4267 27.7861L78.4717 28.4492L77.2084 32.3392L75.1634 31.676L76.4267 27.7861ZM87.8521 28.6974L89.5896 29.957L84.7808 36.5774L83.0433 35.3141L87.8521 28.6974ZM92.7201 38.8076L93.9834 40.5451L90.6714 42.9495L89.4118 41.212L92.7201 38.8076ZM101.426 46.2578L102.089 48.2991L94.3094 50.8295L93.6463 48.7845L101.426 46.2578ZM99.4219 57.2979V59.4467H95.3319V57.2979H99.4219ZM102.086 68.4454L101.422 70.4868L93.6426 67.9564L94.3057 65.9151L102.086 68.4454ZM93.976 76.1994L92.7127 77.937L89.4044 75.5326L90.664 73.7951L93.976 76.1994ZM89.5785 86.7801L87.841 88.0435L83.0322 81.4231L84.7697 80.1635L89.5785 86.7801ZM47.3779 88.036L45.6404 86.7727L50.4491 80.1561L52.1866 81.4157L47.3779 88.036ZM42.5099 77.9258L41.2466 76.1883L44.5586 73.784L45.8182 75.5215L42.5099 77.9258ZM33.8038 70.4756L33.1406 68.4343L40.9206 65.904L41.5837 67.9453L33.8038 70.4756ZM35.808 59.4355V57.2868H39.8981V59.4355H35.808ZM33.1443 48.288L33.8075 46.2467L41.5874 48.7733L40.9243 50.8183L33.1443 48.288ZM41.254 40.534L42.5173 38.7965L45.8256 41.2009L44.566 42.9384L41.254 40.534ZM45.6515 29.9533L47.389 28.69L52.1978 35.3104L50.4602 36.57L45.6515 29.9533ZM56.7694 28.4455L58.8144 27.7823L60.0777 31.6723L58.0327 32.3355L56.7694 28.4455Z" fill="white"/>
</g>
<defs>
<filter id="filter0_d_2022_13652" x="0" y="0.317871" width="130" height="130" filterUnits="userSpaceOnUse" color-interpolation-filters="sRGB">
<feFlood flood-opacity="0" result="BackgroundImageFix"/>
<feColorMatrix in="SourceAlpha" type="matrix" values="0 0 0 0 0 0 0 0 0 0 0 0 0 0 0 0 0 0 127 0" result="hardAlpha"/>
<feOffset dx="-3" dy="4"/>
<feGaussianBlur stdDeviation="2"/>
<feComposite in2="hardAlpha" operator="out"/>
<feColorMatrix type="matrix" values="0 0 0 0 0 0 0 0 0 0 0 0 0 0 0 0 0 0 0.25 0"/>
<feBlend mode="normal" in2="BackgroundImageFix" result="effect1_dropShadow_2022_13652"/>
<feBlend mode="normal" in="SourceGraphic" in2="effect1_dropShadow_2022_13652" result="shape"/>
</filter>
<clipPath id="clip0_2022_13652">
<rect width="103.231" height="103.231" fill="white" transform="translate(16.3848 9.70251)"/>
</clipPath>
</defs>
</svg>
