<svg width="130" height="131" viewBox="0 0 130 131" fill="none" xmlns="http://www.w3.org/2000/svg">
<g filter="url(#filter0_d_2022_13699)">
<path d="M68 122.318C101.689 122.318 129 95.0072 129 61.3179C129 27.6285 101.689 0.317871 68 0.317871C34.3106 0.317871 7 27.6285 7 61.3179C7 95.0072 34.3106 122.318 68 122.318Z" fill="white"/>
</g>
<g clip-path="url(#clip0_2022_13699)">
<path d="M68.0022 112.937C96.5097 112.937 119.62 89.8276 119.62 61.32C119.62 32.8125 96.5097 9.70264 68.0022 9.70264C39.4947 9.70264 16.3848 32.8125 16.3848 61.32C16.3848 89.8276 39.4947 112.937 68.0022 112.937Z" fill="#695BA6"/>
<path d="M95.6561 78.4057L97.7541 86.2359C97.9112 86.8291 97.8271 87.4605 97.5203 87.9919C97.2134 88.5234 96.7087 88.9119 96.1164 89.0725L58.0841 99.2633C56.8974 99.5812 55.633 99.4148 54.569 98.8005C53.5051 98.1862 52.7287 97.1745 52.4107 95.9878L50.9121 90.3948L95.6561 78.4057Z" fill="#D4D5DD"/>
<path d="M40.699 34.3846L42.9362 33.7851L57.9226 89.7151L55.6854 90.3145C55.0974 90.4713 54.5461 90.7425 54.0631 91.1127C53.5801 91.4828 53.1748 91.9446 52.8706 92.4716C52.5663 92.9986 52.369 93.5804 52.29 94.1838C52.2109 94.7872 52.2517 95.4002 52.4099 95.9878L37.4235 40.0579C37.1056 38.8712 37.272 37.6068 37.8863 36.5429C38.5006 35.4789 39.5123 34.7026 40.699 34.3846Z" fill="#938CCB"/>
<path d="M83.8054 25.2321L97.5929 76.6876C97.75 77.2809 97.6659 77.9122 97.359 78.4437C97.0522 78.9752 96.5475 79.3636 95.9551 79.5243L55.6856 90.3145L40.6992 34.3845L80.9688 23.5943C81.562 23.4373 82.1934 23.5213 82.7248 23.8282C83.2563 24.135 83.6448 24.6397 83.8054 25.2321Z" fill="#AEABDA"/>
<path d="M53.1638 40.6358C51.9772 40.9538 50.9654 41.7301 50.3511 42.7941C49.7369 43.858 49.5704 45.1224 49.8884 46.3091L52.5859 56.3765C52.6654 56.6732 52.8595 56.9261 53.1255 57.0797C53.3915 57.2332 53.7076 57.2749 54.0042 57.1954C54.3009 57.1159 54.5539 56.9218 54.7074 56.6558C54.861 56.3898 54.9026 56.0737 54.8231 55.777L53.3245 50.1841L57.7989 48.9851L59.2975 54.5781C59.377 54.8748 59.5711 55.1277 59.8371 55.2813C60.1031 55.4349 60.4192 55.4765 60.7158 55.397C61.0125 55.3175 61.2654 55.1234 61.419 54.8574C61.5726 54.5914 61.6142 54.2753 61.5347 53.9787L58.8372 43.9113C58.5192 42.7246 57.7428 41.7128 56.6789 41.0986C55.6149 40.4843 54.3505 40.3178 53.1638 40.6358ZM52.725 47.9469L52.1256 45.7097C51.9666 45.1163 52.0498 44.4841 52.3569 43.9521C52.6641 43.4202 53.17 43.032 53.7633 42.873C54.3566 42.714 54.9888 42.7972 55.5208 43.1044C56.0528 43.4115 56.441 43.9174 56.6 44.5107L57.1994 46.7479L52.725 47.9469Z" fill="white"/>
<path d="M82.4897 47.1655L77.588 48.4789L80.3334 35.0912C80.373 34.8973 80.3623 34.6964 80.3023 34.5079C80.2422 34.3193 80.1348 34.1492 79.9904 34.014C79.8459 33.8787 79.6692 33.7827 79.4771 33.7351C79.2849 33.6876 79.0838 33.6901 78.893 33.7423L72.1814 35.5407C71.8847 35.6202 71.6318 35.8143 71.4782 36.0803C71.3246 36.3462 71.283 36.6623 71.3625 36.959C71.442 37.2557 71.6361 37.5086 71.9021 37.6622C72.1681 37.8158 72.4842 37.8574 72.7808 37.7779L77.6825 36.4645L74.9371 49.8522C74.8975 50.0461 74.9082 50.2469 74.9682 50.4355C75.0283 50.6241 75.1357 50.7942 75.2802 50.9294C75.4246 51.0647 75.6013 51.1607 75.7935 51.2083C75.9856 51.2558 76.1867 51.2533 76.3776 51.2011L83.0891 49.4027C83.3858 49.3232 83.6388 49.1291 83.7923 48.8631C83.9459 48.5971 83.9875 48.281 83.908 47.9844C83.8285 47.6877 83.6344 47.4348 83.3684 47.2812C83.1025 47.1276 82.7864 47.086 82.4897 47.1655Z" fill="white"/>
<path d="M69.8048 44.5696L63.0932 46.368C62.7965 46.4475 62.5436 46.6416 62.39 46.9076C62.2365 47.1736 62.1948 47.4897 62.2743 47.7863C62.3538 48.083 62.5479 48.3359 62.8139 48.4895C63.0799 48.6431 63.396 48.6847 63.6927 48.6052L70.4043 46.8068C70.7009 46.7273 70.9539 46.5332 71.1074 46.2673C71.261 46.0013 71.3026 45.6852 71.2231 45.3885C71.1436 45.0918 70.9495 44.8389 70.6836 44.6853C70.4176 44.5318 70.1015 44.4901 69.8048 44.5696Z" fill="white"/>
</g>
<defs>
<filter id="filter0_d_2022_13699" x="0" y="0.317871" width="130" height="130" filterUnits="userSpaceOnUse" color-interpolation-filters="sRGB">
<feFlood flood-opacity="0" result="BackgroundImageFix"/>
<feColorMatrix in="SourceAlpha" type="matrix" values="0 0 0 0 0 0 0 0 0 0 0 0 0 0 0 0 0 0 127 0" result="hardAlpha"/>
<feOffset dx="-3" dy="4"/>
<feGaussianBlur stdDeviation="2"/>
<feComposite in2="hardAlpha" operator="out"/>
<feColorMatrix type="matrix" values="0 0 0 0 0 0 0 0 0 0 0 0 0 0 0 0 0 0 0.25 0"/>
<feBlend mode="normal" in2="BackgroundImageFix" result="effect1_dropShadow_2022_13699"/>
<feBlend mode="normal" in="SourceGraphic" in2="effect1_dropShadow_2022_13699" result="shape"/>
</filter>
<clipPath id="clip0_2022_13699">
<rect width="103.231" height="103.231" fill="white" transform="translate(16.3848 9.70264)"/>
</clipPath>
</defs>
</svg>
