<svg width="138" height="138" viewBox="0 0 138 138" fill="none" xmlns="http://www.w3.org/2000/svg">
<g filter="url(#filter0_d_39_185)">
<path d="M72 130C107.899 130 137 100.899 137 65C137 29.1015 107.899 0 72 0C36.1015 0 7 29.1015 7 65C7 100.899 36.1015 130 72 130Z" fill="white"/>
</g>
<path d="M72.0002 120.714C102.77 120.714 127.714 95.7701 127.714 65C127.714 34.2298 102.77 9.28571 72.0002 9.28571C41.23 9.28571 16.2859 34.2298 16.2859 65C16.2859 95.7701 41.23 120.714 72.0002 120.714Z" fill="#FCD861"/>
<path fill-rule="evenodd" clip-rule="evenodd" d="M40.3618 85.6843C40.3618 85.6843 44.1984 86.0735 46.4782 91.5782L52.4833 105.59C51.3156 106.202 52.2053 108.092 53.4285 107.592L66.1616 102.143C67.3849 101.642 66.6621 99.6963 65.3832 100.085L56.3199 78.8451L43.42 84.3498L40.3618 85.6843Z" fill="#D4D5DD"/>
<path fill-rule="evenodd" clip-rule="evenodd" d="M40.3618 85.6843L56.3199 78.8451L57.7656 82.1813L40.3618 85.6843Z" fill="#A9ABBC"/>
<path d="M46.1431 55.0448L29.6696 62.0804C28.8404 62.4345 28.4167 63.3033 28.7231 64.0209L37.7866 85.2424C38.093 85.9599 39.0136 86.2546 39.8428 85.9004L56.3163 78.8648C57.1455 78.5107 57.5692 77.6419 57.2628 76.9243L48.1993 55.7028C47.8929 54.9853 46.9722 54.6907 46.1431 55.0448Z" fill="#ED5E7E"/>
<path fill-rule="evenodd" clip-rule="evenodd" d="M85.3446 23.5757L80.2291 32.1942L48.2573 55.8255L52.8168 66.5013L57.3762 77.1214L96.5764 70.3935L106.307 72.6732L95.8536 48.0966L85.3446 23.5757Z" fill="#F1F1F4"/>
<path fill-rule="evenodd" clip-rule="evenodd" d="M80.2291 32.1942L48.2573 55.8255L49.2026 57.994L82.064 33.3618L85.3446 23.5757L80.2291 32.1942Z" fill="white"/>
<path fill-rule="evenodd" clip-rule="evenodd" d="M29.1854 65.0556L25.6268 66.5569C24.6815 67.0017 24.2367 68.1138 24.6815 69.059L31.3539 84.6835C31.7431 85.6843 32.8552 86.1292 33.8004 85.6843L37.359 84.1831L29.1854 65.0556Z" fill="white"/>
<path d="M85.3434 23.5524L88.095 22.3772L109.074 71.4979L106.322 72.6731L85.3434 23.5524Z" fill="#ED5E7E"/>
<path fill-rule="evenodd" clip-rule="evenodd" d="M36.6921 82.6262L56.1532 74.3413L57.2097 76.7878C57.5433 77.5663 57.1541 78.5115 56.32 78.8452L39.8615 85.9067C39.0275 86.2404 38.0822 85.9067 37.7486 85.0727L36.6921 82.6262Z" fill="#91273E"/>
<path d="M34.6337 59.9603L32.1011 61.042L42.2787 84.8724L44.8114 83.7907L34.6337 59.9603Z" fill="white"/>
<path fill-rule="evenodd" clip-rule="evenodd" d="M43.142 79.9016L44.8101 83.7938L42.2523 84.8503L40.5842 80.9581L43.142 79.9016Z" fill="#A9ABBC"/>
<path fill-rule="evenodd" clip-rule="evenodd" d="M106.307 72.6732L104.806 69.1146L95.9651 64.2215L56.1533 74.3413L57.3766 77.1214L96.5768 70.3934L106.307 72.6732Z" fill="#A9ABBC"/>
<path fill-rule="evenodd" clip-rule="evenodd" d="M54.2068 87.3524L59.0998 85.2951L60.1007 87.6304L55.2632 89.6877C54.596 89.9658 53.8176 89.6877 53.5395 89.0205C53.2615 88.4089 53.5951 87.6304 54.2068 87.3524Z" fill="#A9ABBC"/>
<path fill-rule="evenodd" clip-rule="evenodd" d="M56.3757 92.4123L61.2688 90.355L62.2696 92.7459L57.4322 94.8032C56.7649 95.0812 55.9865 94.7476 55.7085 94.136C55.4305 93.4688 55.7641 92.6903 56.3757 92.4123Z" fill="#A9ABBC"/>
<path fill-rule="evenodd" clip-rule="evenodd" d="M58.5442 97.5278L63.4373 95.4705L64.4381 97.8058L59.6006 99.8631C58.9334 100.141 58.155 99.8631 57.8769 99.1959C57.5989 98.5286 57.9325 97.8058 58.5442 97.5278Z" fill="#A9ABBC"/>
<path d="M104.973 45.2053C104.583 45.4277 104.083 45.2053 103.916 44.7604C103.749 44.3712 103.916 43.8708 104.361 43.704L118.429 37.8101C118.818 37.6433 119.318 37.8657 119.485 38.2549C119.652 38.6997 119.429 39.1445 119.04 39.3669L104.973 45.2053Z" fill="white"/>
<path d="M100.58 40.3678C100.246 40.7015 99.746 40.7015 99.4124 40.3678C99.0788 40.0898 99.0788 39.5338 99.3568 39.2002L108.198 30.0257C108.531 29.692 109.032 29.692 109.365 30.0257C109.699 30.3037 109.699 30.8597 109.421 31.1933L100.58 40.3678ZM104.695 51.9333C104.25 51.9333 103.916 51.5441 103.916 51.0992C103.916 50.6544 104.25 50.2652 104.695 50.2652L117.483 50.432C117.928 50.432 118.262 50.8212 118.262 51.266C118.262 51.7109 117.928 52.0445 117.428 52.0445L104.695 51.9333Z" fill="white"/>
<path fill-rule="evenodd" clip-rule="evenodd" d="M52.4833 105.59L65.3832 100.086C66.6621 99.6963 67.3849 101.642 66.1617 102.143L53.4286 107.592C52.2053 108.092 51.3156 106.202 52.4833 105.59Z" fill="#D14766"/>
<path d="M73.279 111.151C86.8216 111.151 97.8 110.205 97.8 109.038C97.8 107.871 86.8216 106.925 73.279 106.925C59.7365 106.925 48.7581 107.871 48.7581 109.038C48.7581 110.205 59.7365 111.151 73.279 111.151Z" fill="#F0C638"/>
<defs>
<filter id="filter0_d_39_185" x="0" y="0" width="138" height="138" filterUnits="userSpaceOnUse" color-interpolation-filters="sRGB">
<feFlood flood-opacity="0" result="BackgroundImageFix"/>
<feColorMatrix in="SourceAlpha" type="matrix" values="0 0 0 0 0 0 0 0 0 0 0 0 0 0 0 0 0 0 127 0" result="hardAlpha"/>
<feOffset dx="-3" dy="4"/>
<feGaussianBlur stdDeviation="2"/>
<feComposite in2="hardAlpha" operator="out"/>
<feColorMatrix type="matrix" values="0 0 0 0 0 0 0 0 0 0 0 0 0 0 0 0 0 0 0.25 0"/>
<feBlend mode="normal" in2="BackgroundImageFix" result="effect1_dropShadow_39_185"/>
<feBlend mode="normal" in="SourceGraphic" in2="effect1_dropShadow_39_185" result="shape"/>
</filter>
</defs>
</svg>
