<svg width="40" height="40" viewBox="0 0 40 40" fill="none" xmlns="http://www.w3.org/2000/svg">
<rect width="40" height="40" rx="12" fill="#CACAE8"/>
<path d="M20 27.0002C18.6318 26.2103 17.0798 25.7944 15.5 25.7944C13.9202 25.7944 12.3682 26.2103 11 27.0002V14.0002C12.3682 13.2103 13.9202 12.7944 15.5 12.7944C17.0798 12.7944 18.6318 13.2103 20 14.0002M20 27.0002C21.3682 26.2103 22.9202 25.7944 24.5 25.7944C26.0798 25.7944 27.6318 26.2103 29 27.0002V14.0002C27.6318 13.2103 26.0798 12.7944 24.5 12.7944C22.9202 12.7944 21.3682 13.2103 20 14.0002M20 27.0002V14.0002" stroke="#2E294C" stroke-width="2" stroke-linecap="round" stroke-linejoin="round"/>
</svg>
