<svg width="40" height="40" viewBox="0 0 40 40" fill="none" xmlns="http://www.w3.org/2000/svg">
<rect width="40" height="40" rx="12" fill="#CACAE8"/>
<g clip-path="url(#clip0_2060_3406)">
<path fill-rule="evenodd" clip-rule="evenodd" d="M14.7184 13.2357C14.5188 15.3169 14.4216 17.4072 14.4273 19.4985C14.4273 22.2887 14.5912 24.4763 14.7184 25.7633C16.5617 24.8981 18.362 23.9383 20.1125 22.8874C21.8679 21.8467 23.572 20.716 25.2182 19.4995C23.5724 18.2817 21.8687 17.1496 20.1134 16.1076C18.3625 15.058 16.5619 14.0995 14.7184 13.2357ZM12.8819 12.2914C12.9079 12.0652 12.9846 11.8484 13.106 11.6583C13.2273 11.4681 13.3899 11.3098 13.5809 11.196C13.7718 11.0821 13.9858 11.0159 14.2059 11.0025C14.426 10.9892 14.646 11.029 14.8486 11.1189C15.8724 11.5712 18.1669 12.646 21.0785 14.3823C23.9909 16.1196 26.0396 17.6367 26.9295 18.3251C27.6892 18.9138 27.6911 20.0813 26.9304 20.672C26.0493 21.3563 24.0257 22.8535 21.0785 24.6127C18.1284 26.3719 15.8609 27.4338 14.8466 27.8801C13.9732 28.2656 12.9956 27.6809 12.8819 26.7076C12.7488 25.57 12.5001 22.987 12.5001 19.4985C12.5001 16.012 12.7478 13.43 12.8819 12.2914Z" fill="#2E294C"/>
</g>
<defs>
<clipPath id="clip0_2060_3406">
<rect width="15" height="24" fill="white" transform="translate(12.5 8)"/>
</clipPath>
</defs>
</svg>
