<svg width="130" height="130" viewBox="0 0 130 130" fill="none" xmlns="http://www.w3.org/2000/svg">
<g filter="url(#filter0_d_152_176)">
<path d="M68 122C101.689 122 129 94.6894 129 61C129 27.3106 101.689 0 68 0C34.3106 0 7 27.3106 7 61C7 94.6894 34.3106 122 68 122Z" fill="white"/>
</g>
<g clip-path="url(#clip0_152_176)">
<path d="M68.0022 112.619C96.5097 112.619 119.62 89.5096 119.62 61.0021C119.62 32.4945 96.5097 9.38464 68.0022 9.38464C39.4947 9.38464 16.3848 32.4945 16.3848 61.0021C16.3848 89.5096 39.4947 112.619 68.0022 112.619Z" fill="#FCD861"/>
<path d="M82.8369 68.934C81.6717 67.7833 79.7817 67.7833 78.6161 68.934L78.3735 69.1735L75.3136 66.1522C83.2906 56.4773 82.7154 42.2191 73.5874 33.2078C63.845 23.5886 48.0497 23.5886 38.3072 33.2078C28.5643 42.8267 28.5643 58.4212 38.3072 68.0402C47.4347 77.0515 61.8767 77.6207 71.6749 69.7447L74.7348 72.7648L74.4919 73.0052C73.3267 74.1552 73.3267 76.0221 74.4919 77.1719L84.4391 86.9935C87.7231 84.8116 90.7144 82.2248 93.3399 79.3032L82.8369 68.934Z" fill="#A86624"/>
<path d="M101.09 86.8981C102.255 88.0478 102.255 89.9139 101.09 91.0646L96.9647 95.1363C95.7996 96.2879 93.91 96.2879 92.7446 95.1363L74.5392 77.1629C73.3743 76.0122 73.3743 74.1469 74.5392 72.9955L78.6639 68.9237C79.8293 67.774 81.7195 67.774 82.8844 68.9237L101.09 86.8981Z" fill="#A86624"/>
<path d="M80.9493 67.427C81.7412 68.2195 81.5632 69.6819 80.5504 70.6949C79.5376 71.7079 78.0741 71.8867 77.2818 71.0941L70.8239 64.6362C70.0316 63.8437 70.2098 62.3813 71.2223 61.3681C72.2352 60.3551 73.6987 60.1763 74.491 60.9689L80.9493 67.427Z" fill="#D4D5DD"/>
<path d="M73.3271 29.2619C63.6442 19.5794 47.9454 19.5794 38.2626 29.2619C28.5791 38.9451 28.5791 54.6453 38.2626 64.3265C47.9451 74.0096 63.6442 74.0096 73.3271 64.3265C83.0094 54.6433 83.0094 38.9455 73.3271 29.2619Z" fill="#A9ABBC"/>
<path d="M70.304 32.285C62.2907 24.2715 49.2985 24.2715 41.2848 32.285C33.2716 40.2988 33.2716 53.291 41.2848 61.3045C49.2985 69.3171 62.2907 69.3171 70.304 61.3045C78.3172 53.2908 78.3172 40.2986 70.304 32.285Z" fill="#B9D5EA"/>
<path d="M101.092 82.9166C102.254 84.0777 102.254 85.9622 101.092 87.1242L96.9794 91.2362C95.8178 92.3991 93.9338 92.3991 92.7718 91.2362L74.6201 73.0854C73.4587 71.9233 73.4587 70.0396 74.6201 68.8768L78.7327 64.7649C79.8946 63.6038 81.7792 63.6038 82.9406 64.7649L101.092 82.9166Z" fill="#D78737"/>
<path d="M47.2514 57.363C40.9326 50.9517 40.9326 40.5582 47.2511 34.1471C47.3116 34.0865 47.3741 34.0303 47.4351 33.9697C45.3516 34.5848 43.386 35.7241 41.7432 37.3916C36.5381 42.6727 36.5381 51.2353 41.7432 56.5167C44.4353 59.2478 47.9914 60.5637 51.519 60.4694C49.9787 59.6963 48.5333 58.6645 47.2514 57.363Z" fill="white"/>
<path d="M47.2446 39.1006C47.2446 36.7384 45.3311 34.8247 42.9704 34.8247C40.6091 34.8247 38.6948 36.7384 38.6948 39.1006C38.6948 41.4617 40.6093 43.3745 42.9704 43.3745C45.3311 43.3749 47.2446 41.4615 47.2446 39.1006Z" fill="white"/>
</g>
<defs>
<filter id="filter0_d_152_176" x="0" y="0" width="130" height="130" filterUnits="userSpaceOnUse" color-interpolation-filters="sRGB">
<feFlood flood-opacity="0" result="BackgroundImageFix"/>
<feColorMatrix in="SourceAlpha" type="matrix" values="0 0 0 0 0 0 0 0 0 0 0 0 0 0 0 0 0 0 127 0" result="hardAlpha"/>
<feOffset dx="-3" dy="4"/>
<feGaussianBlur stdDeviation="2"/>
<feComposite in2="hardAlpha" operator="out"/>
<feColorMatrix type="matrix" values="0 0 0 0 0 0 0 0 0 0 0 0 0 0 0 0 0 0 0.25 0"/>
<feBlend mode="normal" in2="BackgroundImageFix" result="effect1_dropShadow_152_176"/>
<feBlend mode="normal" in="SourceGraphic" in2="effect1_dropShadow_152_176" result="shape"/>
</filter>
<clipPath id="clip0_152_176">
<rect width="103.231" height="103.231" fill="white" transform="translate(16.3848 9.38464)"/>
</clipPath>
</defs>
</svg>
