<svg width="130" height="131" viewBox="0 0 130 131" fill="none" xmlns="http://www.w3.org/2000/svg">
<g filter="url(#filter0_d_2022_13581)">
<path d="M68 122.318C101.689 122.318 129 95.0072 129 61.3179C129 27.6285 101.689 0.317871 68 0.317871C34.3106 0.317871 7 27.6285 7 61.3179C7 95.0072 34.3106 122.318 68 122.318Z" fill="white"/>
</g>
<g clip-path="url(#clip0_2022_13581)">
<path d="M68.0022 112.937C96.5097 112.937 119.62 89.8273 119.62 61.3198C119.62 32.8123 96.5097 9.70239 68.0022 9.70239C39.4947 9.70239 16.3848 32.8123 16.3848 61.3198C16.3848 89.8273 39.4947 112.937 68.0022 112.937Z" fill="#695BA6"/>
<path fill-rule="evenodd" clip-rule="evenodd" d="M44.127 78.7465C44.127 78.7465 47.0619 79.0442 48.8058 83.2552L53.3996 93.9741C52.5064 94.4419 53.1869 95.8881 54.1227 95.5053L63.8633 91.3369C64.799 90.9541 64.2461 89.4653 63.2678 89.7631L56.3345 73.5146L46.4664 77.7256L44.127 78.7465Z" fill="#F6F6FC"/>
<path d="M48.5492 55.3078L35.9474 60.6899C35.313 60.9608 34.9889 61.6254 35.2233 62.1743L42.1566 78.4083C42.3911 78.9572 43.0953 79.1826 43.7297 78.9117L56.3315 73.5296C56.9658 73.2587 57.29 72.5941 57.0555 72.0452L50.1222 55.8112C49.8878 55.2623 49.1835 55.0369 48.5492 55.3078Z" fill="#CACAE8"/>
<path fill-rule="evenodd" clip-rule="evenodd" d="M78.5389 31.2346L74.6257 37.8276L50.168 55.905L53.6558 64.0717L57.1437 72.1959L87.131 67.0492L94.5747 68.7931L86.578 49.9926L78.5389 31.2346Z" fill="#F6F6FC"/>
<path fill-rule="evenodd" clip-rule="evenodd" d="M35.578 62.9661L32.8558 64.1145C32.1327 64.4548 31.7924 65.3055 32.1327 66.0286L37.2369 77.981C37.5346 78.7466 38.3854 79.0869 39.1084 78.7466L41.8307 77.5981L35.578 62.9661Z" fill="#F6F6FC"/>
<path d="M78.5377 31.2169L80.6426 30.3179L96.6909 67.8941L94.586 68.7931L78.5377 31.2169Z" fill="#AEABDA"/>
<path d="M39.746 59.0681L37.8086 59.8955L45.5943 78.1252L47.5317 77.2978L39.746 59.0681Z" fill="#F6F6FC"/>
<path d="M93.554 47.7808C93.2562 47.951 92.8734 47.7808 92.7458 47.4406C92.6182 47.1428 92.7458 46.76 93.0861 46.6324L103.847 42.1237C104.145 41.9961 104.528 42.1662 104.656 42.464C104.783 42.8042 104.613 43.1445 104.315 43.3147L93.554 47.7808Z" fill="white"/>
<path d="M90.1938 44.0802C89.9386 44.3354 89.5558 44.3354 89.3006 44.0802C89.0454 43.8676 89.0454 43.4422 89.2581 43.187L96.0212 36.1687C96.2764 35.9135 96.6592 35.9135 96.9144 36.1687C97.1696 36.3814 97.1696 36.8067 96.9569 37.0619L90.1938 44.0802ZM93.3414 52.9275C93.0012 52.9275 92.746 52.6298 92.746 52.2895C92.746 51.9492 93.0012 51.6515 93.3414 51.6515L103.125 51.7791C103.465 51.7791 103.72 52.0768 103.72 52.4171C103.72 52.7574 103.465 53.0126 103.082 53.0126L93.3414 52.9275Z" fill="white"/>
<path fill-rule="evenodd" clip-rule="evenodd" d="M53.4 93.9739L63.2681 89.763C64.2464 89.4652 64.7994 90.9539 63.8636 91.3368L54.1231 95.5052C53.1873 95.888 52.5067 94.4418 53.4 93.9739Z" fill="#AEABDA"/>
</g>
<defs>
<filter id="filter0_d_2022_13581" x="0" y="0.317871" width="130" height="130" filterUnits="userSpaceOnUse" color-interpolation-filters="sRGB">
<feFlood flood-opacity="0" result="BackgroundImageFix"/>
<feColorMatrix in="SourceAlpha" type="matrix" values="0 0 0 0 0 0 0 0 0 0 0 0 0 0 0 0 0 0 127 0" result="hardAlpha"/>
<feOffset dx="-3" dy="4"/>
<feGaussianBlur stdDeviation="2"/>
<feComposite in2="hardAlpha" operator="out"/>
<feColorMatrix type="matrix" values="0 0 0 0 0 0 0 0 0 0 0 0 0 0 0 0 0 0 0.25 0"/>
<feBlend mode="normal" in2="BackgroundImageFix" result="effect1_dropShadow_2022_13581"/>
<feBlend mode="normal" in="SourceGraphic" in2="effect1_dropShadow_2022_13581" result="shape"/>
</filter>
<clipPath id="clip0_2022_13581">
<rect width="103.231" height="103.231" fill="white" transform="translate(16.3848 9.70239)"/>
</clipPath>
</defs>
</svg>
