<svg width="130" height="130" viewBox="0 0 130 130" fill="none" xmlns="http://www.w3.org/2000/svg">
<g filter="url(#filter0_d_152_69)">
<path d="M68 122C101.689 122 129 94.6894 129 61C129 27.3106 101.689 0 68 0C34.3106 0 7 27.3106 7 61C7 94.6894 34.3106 122 68 122Z" fill="white"/>
</g>
<g clip-path="url(#clip0_152_69)">
<path d="M68.0022 112.619C96.5097 112.619 119.62 89.5096 119.62 61.0021C119.62 32.4945 96.5097 9.38464 68.0022 9.38464C39.4947 9.38464 16.3848 32.4945 16.3848 61.0021C16.3848 89.5096 39.4947 112.619 68.0022 112.619Z" fill="#A3A6D6"/>
</g>
<path d="M97.1308 78.7345L99.3739 87.1059C99.5418 87.7402 99.4519 88.4151 99.1238 88.9833C98.7958 89.5516 98.2562 89.9669 97.6229 90.1386L56.9621 101.034C55.6934 101.374 54.3416 101.196 53.2041 100.539C52.0666 99.8822 51.2366 98.8005 50.8966 97.5318L49.2944 91.5522L97.1308 78.7345Z" fill="#D4D5DD"/>
<path d="M38.3764 31.671L40.7682 31.0301L56.7904 90.8255L54.3985 91.4664C53.7699 91.634 53.1805 91.924 52.6641 92.3197C52.1477 92.7154 51.7145 93.2091 51.3892 93.7726C51.0639 94.336 50.853 94.958 50.7684 95.6031C50.6839 96.2482 50.7275 96.9036 50.8967 97.5318L34.8745 37.7364C34.5346 36.4677 34.7126 35.1159 35.3693 33.9784C36.026 32.8409 37.1077 32.0109 38.3764 31.671Z" fill="#91273E"/>
<path d="M84.4619 21.886L99.2022 76.8978C99.3701 77.5321 99.2803 78.207 98.9522 78.7752C98.6241 79.3435 98.0846 79.7588 97.4513 79.9305L54.3986 91.4664L38.3765 31.671L81.4292 20.1351C82.0634 19.9672 82.7384 20.057 83.3066 20.3851C83.8748 20.7132 84.2902 21.2528 84.4619 21.886Z" fill="#D14766"/>
<path d="M90.6821 88.1531L84.7025 89.7553C84.3853 89.8403 84.0474 89.7958 83.763 89.6316C83.4787 89.4675 83.2712 89.197 83.1862 88.8799C83.1012 88.5627 83.1457 88.2247 83.3099 87.9404C83.474 87.656 83.7445 87.4485 84.0616 87.3635L90.0412 85.7613C90.3583 85.6763 90.6963 85.7208 90.9807 85.885C91.265 86.0492 91.4725 86.3196 91.5575 86.6368C91.6425 86.9539 91.598 87.2919 91.4338 87.5763C91.2697 87.8606 90.9992 88.0681 90.6821 88.1531Z" fill="#A9ABBC"/>
<path d="M79.9191 91.0371L60.7845 96.1641C60.4674 96.2491 60.1294 96.2046 59.8451 96.0405C59.5607 95.8763 59.3532 95.6059 59.2682 95.2887C59.1832 94.9715 59.2277 94.6336 59.3919 94.3492C59.5561 94.0648 59.8265 93.8573 60.1437 93.7723L79.2782 88.6452C79.5954 88.5603 79.9333 88.6048 80.2177 88.7689C80.5021 88.9331 80.7096 89.2035 80.7945 89.5207C80.8795 89.8379 80.835 90.1758 80.6709 90.4602C80.5067 90.7446 80.2363 90.9521 79.9191 91.0371Z" fill="#A9ABBC"/>
<path d="M84.9768 52.5105L53.8832 60.842C53.566 60.927 53.2281 60.8825 52.9437 60.7183C52.6593 60.5541 52.4518 60.2837 52.3668 59.9665C52.2818 59.6494 52.3263 59.3114 52.4905 59.027C52.6547 58.7427 52.9251 58.5352 53.2423 58.4502L84.3359 50.1187C84.6531 50.0337 84.991 50.0782 85.2754 50.2424C85.5598 50.4065 85.7673 50.677 85.8523 50.9941C85.9372 51.3113 85.8928 51.6493 85.7286 51.9336C85.5644 52.218 85.294 52.4255 84.9768 52.5105Z" fill="#91273E"/>
<path d="M85.469 63.9145L59.1591 70.9642C58.8419 71.0492 58.5039 71.0047 58.2196 70.8405C57.9352 70.6763 57.7277 70.4059 57.6427 70.0887C57.5577 69.7716 57.6022 69.4336 57.7664 69.1492C57.9306 68.8649 58.201 68.6574 58.5182 68.5724L84.8282 61.5226C85.1453 61.4377 85.4833 61.4821 85.7676 61.6463C86.052 61.8105 86.2595 62.0809 86.3445 62.3981C86.4295 62.7153 86.385 63.0532 86.2208 63.3376C86.0566 63.622 85.7862 63.8295 85.469 63.9145Z" fill="#91273E"/>
<path d="M81.092 71.4962L66.7411 75.3415C66.4239 75.4265 66.086 75.382 65.8016 75.2178C65.5172 75.0536 65.3097 74.7832 65.2247 74.466C65.1398 74.1489 65.1842 73.8109 65.3484 73.5266C65.5126 73.2422 65.783 73.0347 66.1002 72.9497L80.4511 69.1044C80.7683 69.0194 81.1062 69.0639 81.3906 69.2281C81.675 69.3923 81.8825 69.6627 81.9675 69.9799C82.0524 70.297 82.0079 70.635 81.8438 70.9193C81.6796 71.2037 81.4092 71.4112 81.092 71.4962Z" fill="#91273E"/>
<path d="M51.7031 38.3542C50.4344 38.6942 49.3527 39.5242 48.6959 40.6617C48.0392 41.7991 47.8613 43.1509 48.2012 44.4196L51.0852 55.1828C51.1702 55.5 51.3777 55.7704 51.662 55.9346C51.9464 56.0988 52.2844 56.1432 52.6015 56.0583C52.9187 55.9733 53.1891 55.7658 53.3533 55.4814C53.5175 55.197 53.562 54.8591 53.477 54.5419L51.8748 48.5624L56.6584 47.2806L58.2606 53.2601C58.3456 53.5773 58.5531 53.8477 58.8375 54.0119C59.1219 54.1761 59.4598 54.2206 59.777 54.1356C60.0942 54.0506 60.3646 53.8431 60.5288 53.5587C60.693 53.2744 60.7374 52.9364 60.6525 52.6193L57.7685 41.8561C57.4285 40.5874 56.5985 39.5057 55.461 38.849C54.3235 38.1922 52.9718 38.0143 51.7031 38.3542ZM51.2339 46.1706L50.593 43.7787C50.423 43.1444 50.512 42.4685 50.8404 41.8998C51.1688 41.331 51.7096 40.916 52.344 40.746C52.9783 40.5761 53.6542 40.665 54.2229 40.9934C54.7917 41.3218 55.2067 41.8626 55.3767 42.497L56.0175 44.8888L51.2339 46.1706Z" fill="white"/>
<path d="M83.0538 45.3352L77.8133 46.7394L80.7485 32.4264C80.7909 32.2191 80.7794 32.0044 80.7152 31.8027C80.651 31.6011 80.5362 31.4193 80.3817 31.2747C80.2273 31.1301 80.0383 31.0274 79.8329 30.9766C79.6276 30.9258 79.4126 30.9284 79.2085 30.9843L72.033 32.9069C71.7159 32.9919 71.4454 33.1994 71.2812 33.4838C71.1171 33.7682 71.0726 34.1061 71.1576 34.4233C71.2425 34.7405 71.4501 35.0109 71.7344 35.1751C72.0188 35.3393 72.3567 35.3837 72.6739 35.2988L77.9144 33.8946L74.9792 48.2076C74.9369 48.4149 74.9483 48.6296 75.0125 48.8312C75.0767 49.0328 75.1915 49.2146 75.346 49.3592C75.5004 49.5039 75.6894 49.6065 75.8948 49.6574C76.1001 49.7082 76.3151 49.7055 76.5192 49.6497L83.6947 47.727C84.0118 47.642 84.2823 47.4345 84.4465 47.1501C84.6106 46.8658 84.6551 46.5278 84.5701 46.2107C84.4852 45.8935 84.2776 45.6231 83.9933 45.4589C83.7089 45.2947 83.371 45.2502 83.0538 45.3352Z" fill="white"/>
<path d="M69.4929 42.5599L62.3175 44.4825C62.0003 44.5675 61.7299 44.775 61.5657 45.0594C61.4015 45.3438 61.357 45.6817 61.442 45.9989C61.527 46.3161 61.7345 46.5865 62.0189 46.7507C62.3033 46.9148 62.6412 46.9593 62.9584 46.8744L70.1338 44.9517C70.451 44.8667 70.7214 44.6592 70.8856 44.3748C71.0498 44.0905 71.0943 43.7525 71.0093 43.4353C70.9243 43.1182 70.7168 42.8477 70.4324 42.6836C70.1481 42.5194 69.8101 42.4749 69.4929 42.5599Z" fill="white"/>
<defs>
<filter id="filter0_d_152_69" x="0" y="0" width="130" height="130" filterUnits="userSpaceOnUse" color-interpolation-filters="sRGB">
<feFlood flood-opacity="0" result="BackgroundImageFix"/>
<feColorMatrix in="SourceAlpha" type="matrix" values="0 0 0 0 0 0 0 0 0 0 0 0 0 0 0 0 0 0 127 0" result="hardAlpha"/>
<feOffset dx="-3" dy="4"/>
<feGaussianBlur stdDeviation="2"/>
<feComposite in2="hardAlpha" operator="out"/>
<feColorMatrix type="matrix" values="0 0 0 0 0 0 0 0 0 0 0 0 0 0 0 0 0 0 0.25 0"/>
<feBlend mode="normal" in2="BackgroundImageFix" result="effect1_dropShadow_152_69"/>
<feBlend mode="normal" in="SourceGraphic" in2="effect1_dropShadow_152_69" result="shape"/>
</filter>
<clipPath id="clip0_152_69">
<rect width="103.231" height="103.231" fill="white" transform="translate(16.3848 9.38464)"/>
</clipPath>
</defs>
</svg>
