<svg width="130" height="131" viewBox="0 0 130 131" fill="none" xmlns="http://www.w3.org/2000/svg">
<g filter="url(#filter0_d_2022_13568)">
<path d="M68 122.318C101.689 122.318 129 95.0072 129 61.3179C129 27.6285 101.689 0.317871 68 0.317871C34.3106 0.317871 7 27.6285 7 61.3179C7 95.0072 34.3106 122.318 68 122.318Z" fill="white"/>
</g>
<g clip-path="url(#clip0_2022_13568)">
<path d="M68.0022 112.937C96.5097 112.937 119.62 89.8274 119.62 61.3199C119.62 32.8124 96.5097 9.70251 68.0022 9.70251C39.4947 9.70251 16.3848 32.8124 16.3848 61.3199C16.3848 89.8274 39.4947 112.937 68.0022 112.937Z" fill="#695BA6"/>
<path d="M78.9236 66.2939C79.6048 66.9755 79.4517 68.2333 78.5805 69.1046C77.7094 69.9759 76.4507 70.1297 75.7692 69.448L70.2146 63.8934C69.5332 63.2118 69.6865 61.954 70.5573 61.0825C71.4286 60.2112 72.6873 60.0574 73.3688 60.7392L78.9236 66.2939Z" fill="#E2E2F2"/>
<path d="M72.369 33.4675C64.0407 25.1394 50.5379 25.1394 42.2095 33.4675C33.8807 41.7962 33.8807 55.3002 42.2095 63.6271C50.5376 71.9557 64.0407 71.9557 72.369 63.6271C80.697 55.2984 80.697 41.7965 72.369 33.4675Z" fill="#E2E2F2"/>
<path d="M69.7697 36.0677C62.8773 29.1752 51.7026 29.1752 44.8098 36.0677C37.9176 42.9604 37.9176 54.1352 44.8098 61.0278C51.7026 67.9196 62.8773 67.9196 69.7697 61.0278C76.662 54.1351 76.662 42.9603 69.7697 36.0677Z" fill="white"/>
<path d="M96.2507 79.6167C97.2498 80.6154 97.2498 82.2363 96.2507 83.2358L92.7132 86.7725C91.7141 87.7728 90.0936 87.7728 89.0942 86.7725L73.4816 71.1607C72.4827 70.1612 72.4827 68.541 73.4816 67.5409L77.0189 64.0042C78.0184 63.0054 79.6393 63.0054 80.6383 64.0042L96.2507 79.6167Z" fill="#AEABDA"/>
</g>
<defs>
<filter id="filter0_d_2022_13568" x="0" y="0.317871" width="130" height="130" filterUnits="userSpaceOnUse" color-interpolation-filters="sRGB">
<feFlood flood-opacity="0" result="BackgroundImageFix"/>
<feColorMatrix in="SourceAlpha" type="matrix" values="0 0 0 0 0 0 0 0 0 0 0 0 0 0 0 0 0 0 127 0" result="hardAlpha"/>
<feOffset dx="-3" dy="4"/>
<feGaussianBlur stdDeviation="2"/>
<feComposite in2="hardAlpha" operator="out"/>
<feColorMatrix type="matrix" values="0 0 0 0 0 0 0 0 0 0 0 0 0 0 0 0 0 0 0.25 0"/>
<feBlend mode="normal" in2="BackgroundImageFix" result="effect1_dropShadow_2022_13568"/>
<feBlend mode="normal" in="SourceGraphic" in2="effect1_dropShadow_2022_13568" result="shape"/>
</filter>
<clipPath id="clip0_2022_13568">
<rect width="103.231" height="103.231" fill="white" transform="translate(16.3848 9.70251)"/>
</clipPath>
</defs>
</svg>
