<svg width="40" height="40" viewBox="0 0 40 40" fill="none" xmlns="http://www.w3.org/2000/svg">
<rect width="40" height="40" rx="12" fill="#CACAE8"/>
<path d="M13 29C12.45 29 11.9793 28.8043 11.588 28.413C11.1967 28.0217 11.0007 27.5507 11 27V13C11 12.45 11.196 11.9793 11.588 11.588C11.98 11.1967 12.4507 11.0007 13 11H27C27.55 11 28.021 11.196 28.413 11.588C28.805 11.98 29.0007 12.4507 29 13V27C29 27.55 28.8043 28.021 28.413 28.413C28.0217 28.805 27.5507 29.0007 27 29H13ZM13 13V27H27V13H25V20L22.5 18.5L20 20V13H13Z" fill="#2E294C"/>
</svg>
