<svg width="130" height="130" viewBox="0 0 130 130" fill="none" xmlns="http://www.w3.org/2000/svg">
<g filter="url(#filter0_d_400_752)">
<path d="M68 122C101.689 122 129 94.6894 129 61C129 27.3106 101.689 0 68 0C34.3106 0 7 27.3106 7 61C7 94.6894 34.3106 122 68 122Z" fill="white"/>
</g>
<path d="M68.0006 113.286C96.8772 113.286 120.286 89.8767 120.286 61.0001C120.286 32.1235 96.8772 8.71436 68.0006 8.71436C39.124 8.71436 15.7148 32.1235 15.7148 61.0001C15.7148 89.8767 39.124 113.286 68.0006 113.286Z" fill="#AFE2DB"/>
<path fill-rule="evenodd" clip-rule="evenodd" d="M38.3091 80.412C38.3091 80.412 41.9096 80.7772 44.049 85.9432L49.6846 99.0929C48.5888 99.6669 49.4237 101.441 50.5717 100.971L62.5212 95.8576C63.6692 95.388 62.9909 93.5617 61.7907 93.9269L53.2851 73.9937L41.1791 79.1596L38.3091 80.412Z" fill="#D4D5DD"/>
<path fill-rule="evenodd" clip-rule="evenodd" d="M38.3091 80.412L53.2851 73.9937L54.6418 77.1245L38.3091 80.412Z" fill="#A9ABBC"/>
<path d="M43.7344 51.6579L28.2747 58.2605C27.4965 58.5929 27.0989 59.4082 27.3865 60.0816L35.8922 79.9972C36.1798 80.6706 37.0437 80.9471 37.8219 80.6147L53.2816 74.0121C54.0598 73.6797 54.4575 72.8644 54.1699 72.191L45.6642 52.2755C45.3766 51.602 44.5126 51.3256 43.7344 51.6579Z" fill="#ED5E7E"/>
<path fill-rule="evenodd" clip-rule="evenodd" d="M80.5237 22.1255L75.723 30.2136L45.7188 52.3907L49.9976 62.4095L54.2765 72.3761L91.0643 66.0622L100.196 68.2016L90.386 45.1375L80.5237 22.1255Z" fill="#F1F1F4"/>
<path fill-rule="evenodd" clip-rule="evenodd" d="M75.723 30.2136L45.7188 52.3907L46.6058 54.4257L77.445 31.3094L80.5237 22.1255L75.723 30.2136Z" fill="white"/>
<path fill-rule="evenodd" clip-rule="evenodd" d="M27.8206 61.0527L24.481 62.4616C23.5939 62.8791 23.1765 63.9227 23.5939 64.8098L29.8557 79.4727C30.221 80.412 31.2646 80.8295 32.1517 80.412L35.4913 79.0031L27.8206 61.0527Z" fill="white"/>
<path d="M80.5222 22.1036L83.1045 21.0007L102.792 67.0986L100.21 68.2015L80.5222 22.1036Z" fill="#ED5E7E"/>
<path fill-rule="evenodd" clip-rule="evenodd" d="M34.8652 77.5421L53.1287 69.7671L54.1202 72.0631C54.4332 72.7936 54.068 73.6807 53.2853 73.9938L37.8396 80.6208C37.0569 80.9339 36.1698 80.6208 35.8567 79.8381L34.8652 77.5421Z" fill="#91273E"/>
<path d="M32.9339 56.271L30.5571 57.2861L40.1085 79.65L42.4853 78.6349L32.9339 56.271Z" fill="white"/>
<path fill-rule="evenodd" clip-rule="evenodd" d="M40.9179 74.9851L42.4834 78.6378L40.083 79.6292L38.5176 75.9766L40.9179 74.9851Z" fill="#A9ABBC"/>
<path fill-rule="evenodd" clip-rule="evenodd" d="M100.196 68.2013L98.7871 64.8617L90.4903 60.2698L53.1284 69.7668L54.2764 72.3759L91.0643 66.0619L100.196 68.2013Z" fill="#A9ABBC"/>
<path fill-rule="evenodd" clip-rule="evenodd" d="M51.3017 81.9773L55.8937 80.0466L56.8329 82.2382L52.2932 84.169C51.667 84.4299 50.9364 84.169 50.6755 83.5428C50.4146 82.9688 50.7277 82.2382 51.3017 81.9773Z" fill="#A9ABBC"/>
<path fill-rule="evenodd" clip-rule="evenodd" d="M53.3374 86.7259L57.9293 84.7952L58.8686 87.039L54.3288 88.9697C53.7026 89.2306 52.9721 88.9175 52.7112 88.3435C52.4503 87.7173 52.7634 86.9868 53.3374 86.7259Z" fill="#A9ABBC"/>
<path fill-rule="evenodd" clip-rule="evenodd" d="M55.3725 91.5267L59.9645 89.5959L60.9037 91.7876L56.364 93.7183C55.7378 93.9792 55.0072 93.7183 54.7463 93.0921C54.4854 92.4659 54.7985 91.7876 55.3725 91.5267Z" fill="#A9ABBC"/>
<path d="M98.9441 42.4241C98.5788 42.6328 98.1092 42.4241 97.9526 42.0067C97.7961 41.6414 97.9526 41.1718 98.3701 41.0152L111.572 35.484C111.937 35.3274 112.407 35.5362 112.563 35.9014C112.72 36.3189 112.511 36.7363 112.146 36.9451L98.9441 42.4241Z" fill="white"/>
<path d="M94.822 37.8842C94.5089 38.1972 94.0392 38.1972 93.7262 37.8842C93.4131 37.6232 93.4131 37.1014 93.674 36.7883L101.971 28.1784C102.284 27.8653 102.754 27.8653 103.067 28.1784C103.38 28.4393 103.38 28.9611 103.119 29.2742L94.822 37.8842ZM98.6834 48.7379C98.2659 48.7379 97.9528 48.3726 97.9528 47.9552C97.9528 47.5377 98.2659 47.1724 98.6834 47.1724L110.685 47.329C111.103 47.329 111.416 47.6942 111.416 48.1117C111.416 48.5291 111.103 48.8422 110.633 48.8422L98.6834 48.7379Z" fill="white"/>
<path fill-rule="evenodd" clip-rule="evenodd" d="M49.6846 99.0928L61.7907 93.9269C62.9908 93.5616 63.6692 95.3879 62.5212 95.8576L50.5717 100.971C49.4237 101.441 48.5888 99.6668 49.6846 99.0928Z" fill="#D14766"/>
<path d="M69.2005 104.311C81.9096 104.311 92.2124 103.423 92.2124 102.328C92.2124 101.233 81.9096 100.345 69.2005 100.345C56.4913 100.345 46.1885 101.233 46.1885 102.328C46.1885 103.423 56.4913 104.311 69.2005 104.311Z" fill="#92D3CA"/>
<defs>
<filter id="filter0_d_400_752" x="0" y="0" width="130" height="130" filterUnits="userSpaceOnUse" color-interpolation-filters="sRGB">
<feFlood flood-opacity="0" result="BackgroundImageFix"/>
<feColorMatrix in="SourceAlpha" type="matrix" values="0 0 0 0 0 0 0 0 0 0 0 0 0 0 0 0 0 0 127 0" result="hardAlpha"/>
<feOffset dx="-3" dy="4"/>
<feGaussianBlur stdDeviation="2"/>
<feComposite in2="hardAlpha" operator="out"/>
<feColorMatrix type="matrix" values="0 0 0 0 0 0 0 0 0 0 0 0 0 0 0 0 0 0 0.25 0"/>
<feBlend mode="normal" in2="BackgroundImageFix" result="effect1_dropShadow_400_752"/>
<feBlend mode="normal" in="SourceGraphic" in2="effect1_dropShadow_400_752" result="shape"/>
</filter>
</defs>
</svg>
