<svg width="1140" height="640" viewBox="0 0 1140 640" fill="none" xmlns="http://www.w3.org/2000/svg">
<g id="capa-video">
<g id="video-cover-bg">
<rect id="video-solid-bg" width="1140" height="640" rx="15" fill="#F1F1F4"/>
<g id="video-detail-bg">
<g id="Clip path group">
<mask id="mask0_103_3636" style="mask-type:luminance" maskUnits="userSpaceOnUse" x="0" y="0" width="1140" height="640">
<g id="uuid-ff3c9172-4dcc-4978-a104-d75da5691b3f">
<path id="Vector" d="M1125 0H15C6.71573 0 0 6.71573 0 15V625C0 633.284 6.71574 640 15 640H1125C1133.28 640 1140 633.284 1140 625V15C1140 6.71573 1133.28 0 1125 0Z" fill="white"/>
</g>
</mask>
<g mask="url(#mask0_103_3636)">
<g id="Group">
<g id="Group_2">
<g id="Group_3">
<g id="Group_4">
<path id="Vector_2" d="M79.9375 -60.7568C76.5494 -58.8873 75.7044 -54.8634 77.2727 -51.5328C85.9356 -33.1339 89.0551 -12.103 86.1316 8.02946C83.0729 29.0933 72.8443 47.9186 56.7685 61.8438C45.8041 71.3406 32.9352 78.3658 19.9111 84.6018C12.0257 88.3772 18.6088 100.254 26.468 96.4912C50.5351 84.9681 73.9443 69.7826 87.3674 45.9792C98.741 25.8103 102.442 2.22292 99.8959 -20.6283C98.4459 -33.6425 94.7339 -46.2514 89.1592 -58.0913C87.5954 -61.4124 83.0021 -62.4477 79.9375 -60.7568Z" fill="#ED5E7E"/>
<path id="Vector_3" d="M405.22 17.5421C390.508 19.005 375.719 19.3868 360.96 18.4543C355.825 18.13 347.683 18.7479 343.597 14.9329C340.318 11.8725 340.008 6.30663 339.727 2.12418C337.734 -27.553 338.798 -57.7575 340.737 -87.406C341.852 -104.453 343.492 -121.462 345.617 -138.413C346.703 -147.071 333.278 -149.093 332.189 -140.404C328.082 -107.648 325.895 -74.7002 325.522 -41.6917C325.346 -26.1392 324.994 -10.2748 326.362 5.23259C326.91 11.4365 328.441 18.123 332.593 22.971C337.386 28.5697 344.208 30.5887 351.316 31.2963C369.729 33.1293 388.474 32.8527 406.871 31.0232C415.559 30.1593 413.93 16.6757 405.22 17.5421Z" fill="#FFE58F"/>
<path id="Vector_4" d="M299.024 12.9395C287.229 3.20126 274.461 -6.58226 259.586 -10.9694C244.408 -15.4458 229.392 -12.67 216.639 -3.33862C204.669 5.42043 194.809 17.5898 185.32 28.872C175.176 40.9332 165.649 53.5118 156.78 66.5401C146.547 81.5736 137.18 97.2075 128.703 113.296C126.994 116.54 128.993 120.847 132.181 122.248C135.741 123.812 139.415 122.025 141.13 118.77C154.796 92.8335 170.933 68.2736 189.293 45.4187C198.056 34.5109 207.148 23.4615 217.305 13.8106C226.499 5.07499 237.324 -1.34359 250.422 0.754281C265.781 3.2141 278.905 13.9367 290.542 23.5438C297.297 29.1208 305.76 18.5008 299.024 12.9395Z" fill="#AFE2DB"/>
<path id="Vector_5" d="M441.481 152.693C414.37 138.387 388.543 121.772 364.284 103.031C360.065 99.7723 360.497 93.835 365.177 91.2545C373.64 86.5883 382.455 82.5775 391.516 79.2342C392.522 78.0347 393.947 77.1414 395.562 76.6789C401.519 74.9729 407.477 73.2667 413.435 71.5608C418.337 70.1569 423.322 68.3487 428.42 67.8011C433.442 67.2615 438.595 67.8729 442.785 70.9242C447.993 74.7173 449.902 80.9952 451.459 86.9387C456.803 107.342 456.589 128.821 451.688 149.273C450.565 153.96 444.964 154.532 441.481 152.693ZM434.868 81.9286C434.203 82.2933 433.43 82.5636 432.529 82.698C414.51 85.3861 397.157 90.71 380.789 98.5078C399.807 112.573 419.742 125.354 440.457 136.775C442.765 122.493 442.287 107.784 439.139 93.6631C438.417 90.423 437.819 84.5405 435.206 82.1937C435.098 82.0964 434.984 82.0111 434.868 81.9286Z" fill="#BDBFE1"/>
<path id="Vector_6" d="M295.926 172.014C285.111 179.269 270.838 178.132 260.219 171.122C249.002 163.717 244.866 150.113 248.999 137.528C252.905 125.635 264.252 115.824 276.999 115.362C278.661 115.302 280.267 115.712 281.574 116.537C293.88 115.968 304.94 126.751 307.78 139.213C310.478 151.055 306.276 165.071 295.926 172.014ZM294.478 141.652C293.836 138.79 292.045 135.359 289.903 133.383C287.647 131.302 282.994 128.587 279.867 130.388C277.298 131.867 274.258 132.142 271.922 130.504C266.6 132.987 262.496 137.98 261.285 143.681C259.78 150.77 262.92 157.235 268.946 160.643C275.248 164.207 283.072 164.723 288.829 160.396C294.343 156.251 295.999 148.431 294.478 141.652Z" fill="#F9BA7A"/>
<path id="Vector_7" d="M577.158 -25.691C574.072 -49.702 563.359 -73.2683 543.517 -87.9272C532.614 -95.9819 519.494 -101.236 505.857 -101.579C502.193 -101.671 498.733 -99.803 498.148 -95.8581C497.661 -92.5714 500.178 -88.2399 503.867 -88.147C525.028 -87.6145 543.611 -74.2961 553.668 -56.037C564.629 -36.1362 566.205 -12.5333 563.361 9.60635C561.465 24.3683 557.767 38.819 553.681 53.1061C552.671 56.6374 556.113 60.3299 559.4 60.8172C563.424 61.4137 566.096 58.6387 567.109 55.0967C574.592 28.9375 580.671 1.64879 577.158 -25.691Z" fill="#FFCCD7"/>
<path id="Vector_8" d="M518.313 295.775C517.708 289.76 516.771 283.781 515.569 277.858C513.083 265.602 509.552 253.561 505.45 241.756C500.917 228.712 495.69 215.925 490.454 203.152C487.143 195.074 474.529 200.1 477.855 208.212C486.298 228.809 494.947 249.574 500.243 271.253C502.922 282.222 504.991 293.557 505.389 304.864C505.576 310.192 504.382 314.627 500.899 318.692C497.501 322.657 493.261 325.958 489.204 329.218C479.346 337.141 468.76 344.18 457.576 350.089C454.339 351.798 452.338 355.267 453.806 358.92C455.064 362.051 459.376 364.413 462.635 362.691C473.594 356.901 484.107 350.331 493.934 342.766C503.323 335.538 514.521 327.414 517.793 315.441C519.534 309.073 518.967 302.271 518.313 295.775Z" fill="#FCD861"/>
<path id="Vector_9" d="M438.029 207.27C427.487 198.664 413.668 195.456 400.445 198.779C389.08 201.634 379.875 209.578 372.029 217.915C364.442 225.979 357.665 235.18 348.635 241.733C340.453 247.671 330.489 250.412 320.395 249.404C309.244 248.291 298.235 243.271 291.19 234.376C288.915 231.504 285.046 230.289 281.79 232.425C278.935 234.298 277.553 238.94 279.839 241.827C294.467 260.297 320.434 267.943 342.767 260.096C353.976 256.157 362.863 248.168 370.783 239.565C378.267 231.437 385.137 222.219 394.519 216.147C405.179 209.248 418.935 209.195 428.973 217.39C435.731 222.907 444.805 212.802 438.029 207.27Z" fill="#FFCCD7"/>
<path id="Vector_10" d="M583.831 330.763C575.191 329.482 573.186 342.912 581.841 344.195C590.482 345.476 592.486 332.046 583.831 330.763Z" fill="#FCD861"/>
<path id="Vector_11" d="M210.122 267.741C202.875 279.236 187.65 285.105 174.496 282.251C159.706 279.042 148.249 268.555 139.029 257.075C137.32 254.947 135.638 252.73 134.008 250.437C123.509 258.758 114.685 268.742 102.605 275.012C90.906 281.085 77.4818 283.515 64.3803 282.655C38.2835 280.943 15.0828 263.715 4.38282 240.119C0.759681 232.13 13.3854 227.128 16.9822 235.059C29.3869 262.413 61.4302 276.036 89.7038 265.838C103.693 260.792 113.212 250.072 124.369 240.799C125.134 240.164 125.911 239.545 126.698 238.94C115.203 218.507 109.527 194.292 122.118 172.972C123.991 169.802 127.386 167.881 131.073 169.506C134.146 170.862 136.403 175.304 134.538 178.463C126.645 191.826 127.449 207.635 133.124 221.684C134.491 225.069 136.102 228.442 137.91 231.752C146.238 227.376 155.342 224.558 164.816 223.661C178.125 222.4 192.672 224.536 203.377 233.124C213.967 241.62 217.548 255.963 210.122 267.741ZM198.442 247.458C192.643 239.225 180.955 236.756 171.48 236.865C162.287 236.971 153.301 239.17 145.172 243.234C148.978 248.486 153.236 253.373 157.759 257.641C165.798 265.227 177.08 272.317 188.45 268.148C196.975 265.023 204.479 256.029 198.442 247.458Z" fill="#FCD861"/>
<path id="Vector_12" d="M407.02 341.067C400.627 352.711 386.197 358.502 373.358 355.603C360.471 352.694 351.226 342.065 349.13 329.126C347.07 316.414 353.321 304.094 365.009 298.654C375.652 293.701 388.157 295.545 396.696 303.305C397.106 303.48 397.507 303.685 397.895 303.923C409.939 311.299 413.692 328.915 407.02 341.067ZM390.381 313.868C389.559 313.441 388.79 312.858 388.117 312.154C383.187 306.987 373.418 307.312 367.463 311.547C361.466 315.813 359.849 323.686 362.315 330.725C364.971 338.306 371.213 343.475 379.326 343.835C386.896 344.17 394.971 339.912 397.196 332.389C399.192 325.639 396.59 317.869 390.381 313.868Z" fill="#FFE0C2"/>
<path id="Vector_13" d="M205.331 164.588C205.193 163.498 204.798 162.511 204.147 161.627C203.103 160.338 201.722 159.418 200.048 159.17L198.562 158.95C197.717 158.792 196.898 158.852 196.104 159.129C195.302 159.265 194.576 159.592 193.928 160.112C193.243 160.582 192.719 161.181 192.356 161.91C191.861 162.589 191.566 163.356 191.472 164.211L191.449 165.886C191.588 166.976 191.982 167.963 192.633 168.847C193.677 170.135 195.059 171.055 196.732 171.303L198.218 171.524C199.063 171.682 199.883 171.622 200.676 171.344C201.478 171.209 202.204 170.881 202.853 170.362C203.538 169.892 204.061 169.292 204.424 168.563C204.92 167.885 205.214 167.118 205.308 166.262C205.316 165.704 205.324 165.146 205.331 164.588Z" fill="#B9D5EA"/>
<path id="Vector_14" d="M420.133 445.458C427.335 452.444 436.981 462.023 447.997 460.357C455.546 459.216 461.816 453.532 468.231 449.82C473.676 446.668 479.796 444.307 486.035 443.312C486.679 441.329 487.346 439.376 488.022 437.473C492.424 425.073 498.111 412.504 506.071 401.958C513.681 391.876 523.718 383.388 536.314 380.613C547.894 378.062 559.935 380.437 568.87 388.402C571.4 390.657 570.937 395.057 568.645 397.232C566.053 399.691 562.333 399.249 559.817 397.007C552.941 390.878 542.055 390.952 533.943 394.359C522.672 399.092 515.097 409.561 509.406 419.945C505.35 427.343 501.965 435.117 499.263 443.115C506.959 444.179 514.206 447.409 519.776 453.299C527.381 461.34 531.312 473.766 526.773 484.308C522.714 493.734 512.66 499.909 502.431 499.685C489.359 499.398 481.75 488.106 480.782 475.999C480.29 469.849 480.968 463.481 482.269 457.197C476.722 459.2 471.605 462.397 466.442 465.658C456.792 471.752 446.075 475.244 434.933 471.066C425.635 467.579 418.108 460.879 411.079 454.063C405.288 448.446 414.386 439.885 420.133 445.458ZM514.4 467.179C510.733 459.819 503.671 455.817 495.728 455.206C494.708 459.273 493.86 463.401 493.413 467.556C492.908 472.252 492.636 477.67 494.874 482.003C498.232 488.502 505.088 488.356 510.779 484.772C513.035 483.351 515.08 480.889 515.835 477.875C516.735 474.286 516.03 470.451 514.4 467.179Z" fill="#AFE2DB"/>
<path id="Vector_15" d="M7.10305 15.274C2.48368 25.5094 -7.49587 32.4487 -18.8275 31.7768C-22.2126 31.5761 -24.5489 27.7989 -24.0875 24.6847C-23.5619 21.1371 -20.3627 19.2238 -16.9971 19.4234C-12.0257 19.7181 -7.50301 15.8895 -5.11804 11.826C-1.74007 6.07071 -2.16329 -1.09969 -3.55453 -7.3744C-6.09383 -18.8264 -12.3543 -29.8898 -20.0671 -38.8727C-36.0534 -26.4427 -60.3351 -26.9982 -78.6227 -34.7543C-90.3415 -39.7245 -100.436 -48.1678 -106.271 -59.5771C-111.867 -70.5174 -112.675 -83.8447 -107.736 -95.1561C-104.52 -102.525 -93.0944 -97.4812 -96.3138 -90.1067C-100.735 -79.9794 -98.2281 -68.1775 -91.6449 -59.5708C-84.6026 -50.364 -73.3894 -44.885 -62.1994 -42.7032C-51.9787 -40.7103 -40.6385 -40.9718 -31.402 -46.3126C-30.6095 -46.7709 -29.8297 -47.2733 -29.067 -47.8116C-36.0852 -53.9077 -43.6681 -59.6856 -47.1437 -68.5386C-50.7167 -77.6394 -48.4979 -90.2886 -39.634 -95.5899C-27.9175 -102.597 -14.4211 -93.2766 -8.82964 -82.802C-3.02614 -71.9306 -4.44833 -59.1187 -10.9228 -48.9262C-11.1259 -48.6064 -11.3445 -48.3062 -11.5544 -47.9952C-4.24474 -39.7912 1.60071 -30.1376 5.54774 -19.8919C9.78117 -8.90272 12.1377 4.11829 7.10305 15.274ZM-24.21 -60.0814C-22.9871 -59.0347 -21.7774 -57.9807 -20.5819 -56.9139C-18.623 -60.2692 -17.4613 -64.0291 -17.5575 -67.9642C-17.6642 -72.3289 -19.1059 -76.5724 -21.7735 -80.0298C-24.0215 -82.9434 -27.9988 -86.0001 -31.8905 -85.4499C-32.896 -85.3078 -33.4819 -84.9282 -34.3435 -83.8622C-34.9884 -83.0642 -35.7584 -81.2844 -35.943 -80.4744C-36.7365 -76.9918 -36.3717 -74.2092 -34.4968 -71.0015C-31.9471 -66.6393 -27.997 -63.3225 -24.21 -60.0814Z" fill="#F9BA7A"/>
<path id="Vector_16" d="M62.3509 346.219C59.7691 357.382 49.4889 366.255 38.0076 367.092C25.8456 367.979 14.5059 360.04 10.0144 348.883C5.31437 337.208 8.50839 323.175 18.6729 315.496C28.2932 308.229 42.7294 308.373 50.655 317.948C59.5952 323.965 64.8132 335.571 62.3509 346.219ZM40.1452 326.595C38.5023 326.006 37.3698 324.611 36.8289 322.998C31.3432 321.383 24.4364 325.524 21.9332 330.533C17.809 338.787 21.8725 349.564 30.1712 353.378C37.5233 356.757 46.7688 352.855 49.6612 345.266C52.5859 337.592 47.4683 329.22 40.1452 326.595Z" fill="#ED5E7E"/>
<path id="Vector_17" d="M101.815 445.016C93.2321 435.119 80.808 429.051 67.7628 428.114C55.6294 427.243 44.3708 431.892 33.2318 435.993C22.1831 440.06 11.4095 442.875 -0.0621872 438.644C-10.9572 434.625 -20.5317 425.8 -26.7071 416.083C-33.2177 405.839 -36.9431 393.468 -33.8972 381.421C-31.9328 373.651 -43.8886 370.047 -45.8634 377.857C-52.2776 403.227 -37.6841 429.249 -17.1174 443.584C-5.57967 451.625 8.07 455.104 21.9415 452.407C33.7731 450.106 44.4734 444.063 56.2283 441.478C69.7859 438.497 83.5966 443.056 92.6987 453.553C97.979 459.642 107.07 451.077 101.815 445.016Z" fill="#FFCCD7"/>
<path id="Vector_18" d="M154.53 388.927C151.177 393.004 144.15 394.119 139.345 395.515C129.561 398.359 119.598 400.493 109.508 401.867C106.086 406.072 97.4537 403.709 98.43 397.003C100.319 384.025 104.189 371.051 110.308 359.42C114.651 351.164 123.523 341.967 133.696 346.971C138.531 349.349 141.426 354.067 144.248 358.441C147.303 363.175 150.139 368.049 152.811 373.008C155.458 377.918 158.751 383.794 154.53 388.927ZM142.384 381.514C142.66 381.421 142.981 381.273 143.312 381.124C142.398 379.146 140.96 377.14 140.086 375.581C138.239 372.286 136.269 369.055 134.221 365.881C132.761 363.62 130.962 359.555 128.453 358.269C127.578 357.821 126.478 358.472 125.458 359.39C120.856 363.531 118.561 370.765 116.451 376.379C114.924 380.443 113.691 384.583 112.696 388.784C117.426 388.032 122.128 387.115 126.793 386.012C130.192 385.209 133.558 384.283 136.9 383.269C138.736 382.711 140.565 382.126 142.384 381.514Z" fill="#F9BA7A"/>
<path id="Vector_19" d="M50.4177 169.656C38.4114 174.686 26.405 179.717 14.3986 184.748C8.70134 187.135 2.71907 189.978 -3.67487 187.157C-8.85045 184.874 -11.1796 179.926 -12.3283 175.2C-13.4906 170.418 -14.0229 165.544 -15.2173 160.756C-16.4822 155.685 -18.1108 150.698 -20.0482 145.783C-23.8589 136.114 -28.8017 126.787 -34.8984 118.056C-36.9347 115.139 -36.8087 111.428 -33.6041 109.321C-30.792 107.471 -25.8535 107.861 -23.8222 110.771C-12.1225 127.527 -3.96854 145.941 -0.0878677 165.242C0.609558 168.711 1.51625 172.563 2.22513 175.783C2.56377 175.509 3.84621 175.191 4.1823 175.058C6.82819 174.008 9.42913 172.865 12.0495 171.767L45.0162 157.954C53.0774 154.576 58.4053 166.309 50.4177 169.656ZM2.51692 176.107C2.41644 176.086 2.34532 176.062 2.28713 176.038C2.62891 177.329 2.90741 176.189 2.51692 176.107Z" fill="#FFCCD7"/>
<path id="Vector_20" d="M336.763 399.312C313.59 386.937 290.863 373.735 268.692 359.642C258.519 353.176 247.893 346.91 238.557 339.249C232.338 334.146 225.433 327.147 225.608 318.505C225.741 311.912 230.026 306.024 233.518 300.744C237.809 294.255 242.103 287.767 246.395 281.279C248.255 278.469 248.229 274.745 245.432 272.5C242.988 270.537 238.524 270.638 236.655 273.463C232.588 279.61 228.522 285.757 224.455 291.903C220.614 297.709 216.539 303.524 214.52 310.258C211.007 321.979 215.28 333.335 223.371 342.04C231.653 350.951 242.168 357.297 252.293 363.87C264.492 371.79 276.857 379.454 289.361 386.881C303.294 395.158 317.42 403.104 331.715 410.737C334.69 412.326 338.663 410.471 339.951 407.549C341.398 404.266 339.749 400.906 336.763 399.312Z" fill="#E2BBDF"/>
</g>
<g id="Group_5">
<path id="Vector_21" d="M155.391 664.756C143.409 670.378 127.982 667.138 118.788 657.83C109.349 648.274 106.653 632.633 112.971 620.612C118.546 610.001 130.157 603.367 142.005 603.779C143.244 602.835 144.893 602.36 146.912 602.711C161.411 605.234 173.905 617.851 174.564 632.914C175.149 646.28 167.525 659.062 155.391 664.756ZM160.61 630.7C159.142 624.645 154.517 619.605 148.813 617.273C147.694 617.845 146.316 618.061 144.705 617.744C135.934 616.016 126.396 620.848 123.83 629.749C121.631 637.378 124.433 645.92 130.978 650.452C137.22 654.774 146.221 655.289 152.518 650.843C158.758 646.436 162.447 638.277 160.61 630.7Z" fill="#FFCCD7"/>
<path id="Vector_22" d="M297.706 743.166C282.994 744.629 268.206 745.01 253.447 744.078C248.311 743.754 240.17 744.371 236.083 740.557C232.805 737.496 232.494 731.93 232.213 727.748C230.22 698.071 231.284 667.866 233.223 638.218C234.338 621.17 235.978 604.161 238.103 587.211C239.189 578.552 225.765 576.531 224.675 585.22C220.568 617.975 218.381 650.923 218.009 683.932C217.833 699.484 217.48 715.349 218.849 730.856C219.396 737.06 220.928 743.747 225.079 748.595C229.872 754.193 236.695 756.212 243.803 756.92C262.215 758.753 280.96 758.476 299.357 756.647C308.045 755.783 306.416 742.299 297.706 743.166Z" fill="#FFE58F"/>
<path id="Vector_23" d="M469.643 699.932C466.557 675.921 455.844 652.355 436.002 637.696C425.1 629.642 411.979 624.388 398.343 624.045C394.679 623.953 391.218 625.82 390.633 629.765C390.146 633.052 392.663 637.384 396.353 637.476C417.513 638.009 436.097 651.327 446.153 669.586C457.114 689.487 458.69 713.09 455.846 735.23C453.95 749.992 450.253 764.442 446.166 778.73C445.156 782.261 448.598 785.953 451.885 786.441C455.909 787.037 458.582 784.262 459.595 780.72C467.077 754.561 473.156 727.272 469.643 699.932Z" fill="#FFCCD7"/>
<path id="Vector_24" d="M319.246 636.202C309.992 636.784 301.22 630.766 296.745 622.91C291.756 614.15 291.805 603 294.647 593.559C298.019 582.358 305.886 572.557 306.745 560.586C307.514 549.868 303.594 538.981 293.522 533.996C285.674 530.111 280.222 542.553 288.033 546.419C296.215 550.468 293.12 562.902 290.312 569.502C285.456 580.91 279.724 591.323 279.272 604.051C278.857 615.781 282.011 627.735 290.024 636.576C297.98 645.354 308.974 650.433 320.897 649.683C329.611 649.134 327.955 635.654 319.246 636.202Z" fill="#F9BA7A"/>
<path id="Vector_25" d="M377.077 458.502C376.178 455.149 372.236 452.502 368.757 453.71C355.454 458.326 343.246 465.739 334.535 476.974C325.474 488.66 321.54 503.744 324.631 518.28C326.447 526.823 339.559 523.292 337.743 514.75C332.867 491.82 352.554 473.673 372.286 466.825C375.748 465.623 378.076 462.224 377.077 458.502Z" fill="#FDD4AA"/>
<path id="Vector_26" d="M35.6788 468.427C28.4871 464.801 23.4777 476.247 30.6306 479.852C41.8046 485.485 45.9722 499.994 42.6195 511.49C38.6234 525.192 26.2607 534.778 13.3388 539.471C-2.28191 545.144 -18.6713 544.04 -34.9668 544.189C-50.5666 544.331 -65.6827 548.053 -76.1327 560.38C-86.3123 572.389 -89.8139 589.246 -84.8897 604.201C-82.3759 611.836 -70.7923 607.167 -73.3016 599.547C-77.122 587.944 -73.0472 574.5 -64.4233 566.045C-53.1763 555.018 -36.1223 556.554 -21.636 556.711C-4.88258 556.893 12.4989 554.999 27.411 546.787C41.2176 539.183 52.6136 526.444 55.5939 510.612C58.7084 494.068 50.8681 476.083 35.6788 468.427Z" fill="#AFE2DB"/>
<path id="Vector_27" d="M543.048 608.752C541.778 585.011 537.7 561.553 531.287 538.67C530.377 535.423 526.053 534.042 523.167 535.202C519.76 536.571 518.786 540.065 519.699 543.325C525.286 563.26 528.793 583.787 530.285 604.434C530.597 608.754 531.628 614.052 530.366 618.303C529.34 621.759 525.256 622.428 522.234 623.379C512.218 626.528 502.088 629.29 491.864 631.678C488.583 632.444 485.987 635.031 486.425 638.637C486.799 641.709 490.081 644.848 493.383 644.077C505.03 641.356 516.626 638.281 528.014 634.614C533.307 632.91 538.147 630.397 540.897 625.332C543.639 620.282 543.345 614.303 543.048 608.752Z" fill="#BDBFE1"/>
<path id="Vector_28" d="M423.821 592.489C419.928 592.797 416.563 590.76 413.157 589.138C398.896 582.348 384.634 575.558 370.373 568.768C366.762 567.049 363.015 565.458 362.007 561.155C361.014 556.914 363.961 553.902 366.915 551.425C372.956 546.358 379.039 541.338 385.161 536.368C397.248 526.554 409.492 516.936 421.878 507.502C424.402 505.58 427.67 505.026 430.207 507.153C433.466 506.958 436.952 508.968 437.07 513.169C437.545 530.076 436.991 547 435.341 563.834C434.961 567.703 434.526 571.566 434.033 575.422C433.622 578.646 433.491 582.15 432.384 585.229C430.999 589.079 428.071 592.154 423.821 592.489ZM421.053 579.117C421.203 578.198 421.302 577.267 421.424 576.348C423.862 557.996 424.908 539.456 424.729 520.943C416.904 526.961 409.134 533.05 401.43 539.222C396.538 543.141 391.671 547.091 386.829 551.072C384.643 552.869 382.461 554.673 380.285 556.484C379.453 557.176 378.623 557.87 377.792 558.564C378.211 558.738 378.599 558.904 378.93 559.062C381.557 560.313 384.184 561.563 386.811 562.814C391.878 565.226 396.945 567.638 402.011 570.051C407.078 572.463 412.144 574.875 417.211 577.287C418.492 577.897 419.772 578.507 421.053 579.117Z" fill="#ED5E7E"/>
<path id="Vector_29" d="M121.48 501.804C113.533 500.626 111.689 512.977 119.649 514.157C127.596 515.335 129.44 502.984 121.48 501.804Z" fill="#F9BA7A"/>
<path id="Vector_30" d="M84.7869 592.938C77.575 575.084 52.4614 571.451 35.8251 572.156C32.4547 572.299 30.0023 575.958 30.3863 579.115C30.8205 582.685 33.9632 584.698 37.3433 584.555C45.4602 584.211 54.0358 585.255 61.6221 588.273C66.35 590.154 72.3139 593.372 73.6237 598.777C74.4529 602.199 73.1188 605.704 71.7874 608.807C69.9565 613.074 67.8535 617.234 65.8647 621.43C61.7675 630.072 57.6703 638.715 53.5731 647.358C50.1229 654.636 61.5573 659.661 64.9957 652.408C69.8055 642.262 74.6153 632.116 79.425 621.97C83.7178 612.914 88.8737 603.055 84.7869 592.938Z" fill="#BDBFE1"/>
<path id="Vector_31" d="M276.275 435.331C286.799 439.246 294.398 448.733 294.498 460.087C294.528 463.479 290.919 466.067 287.781 465.818C284.207 465.535 282.081 462.472 282.052 459.1C282.008 454.119 277.882 449.865 273.666 447.761C267.696 444.781 260.573 445.691 254.409 447.506C243.159 450.818 232.549 457.817 224.113 466.124C237.597 481.233 238.693 505.502 232.199 524.279C228.038 536.311 220.302 546.958 209.318 553.557C198.786 559.884 185.548 561.596 173.93 557.436C166.361 554.727 170.616 542.982 178.19 545.694C188.592 549.418 200.193 546.115 208.331 538.96C217.036 531.307 221.739 519.745 223.155 508.43C224.448 498.095 223.417 486.796 217.462 477.941C216.951 477.181 216.397 476.437 215.808 475.713C210.205 483.131 204.957 491.09 196.362 495.16C187.528 499.344 174.76 497.989 168.87 489.504C161.085 478.288 169.464 464.186 179.532 457.894C189.982 451.364 202.858 451.913 213.464 457.682C213.797 457.863 214.111 458.061 214.435 458.249C222.122 450.397 231.354 443.908 241.305 439.273C251.979 434.301 264.806 431.065 276.275 435.331ZM203.24 471.699C204.201 470.408 205.17 469.129 206.153 467.864C202.673 466.137 198.844 465.233 194.925 465.596C190.579 465.999 186.444 467.726 183.177 470.623C180.424 473.065 177.645 477.241 178.458 481.088C178.668 482.081 179.087 482.64 180.208 483.428C181.048 484.017 182.876 484.664 183.696 484.794C187.224 485.349 189.975 484.796 193.047 482.707C197.224 479.866 200.264 475.699 203.24 471.699Z" fill="#B9D5EA"/>
</g>
</g>
<g id="Group_6">
</g>
<g id="Group_7">
<g id="Group_8">
<g id="Group_9">
<path id="Vector_32" d="M635.762 167.041C635.054 160.188 634.4 153.389 631.779 146.957C627.42 136.258 618.771 127.45 608.405 122.569C597.755 117.553 585.648 116.193 574.47 120.124C568.014 122.395 562.022 126.022 555.296 127.495C550.66 128.511 545.729 128.35 541.113 127.228C529.677 124.448 520.279 116.737 515.721 105.736C514.316 102.346 509.382 101.577 506.536 103.23C503.066 105.246 502.697 109.094 504.106 112.494C513.127 134.266 539.857 146.835 562.061 139.723C568.888 137.536 575.11 133.635 582.121 132.008C586.723 130.941 591.596 131.174 596.161 132.378C605.971 134.966 614.78 141.74 619.065 151.147C621.79 157.131 621.963 163.954 622.709 170.379C623.707 178.979 625.547 186.584 630.875 193.563C633.097 196.473 638.048 195.949 640.375 193.603C643.203 190.753 642.593 186.928 640.362 184.007C636.813 179.359 636.342 172.642 635.762 167.041Z" fill="#AFE2DB"/>
<path id="Vector_33" d="M627.147 239.22C626.728 235.774 623.197 232.599 619.582 233.305C605.763 236.005 592.634 241.627 582.431 251.525C571.817 261.821 565.801 276.202 566.818 291.028C567.416 299.742 580.893 298.09 580.296 289.377C578.692 265.989 600.734 250.791 621.233 246.786C624.829 246.084 627.612 243.046 627.147 239.22Z" fill="#ED5E7E"/>
</g>
<g id="Group_10">
<path id="Vector_34" d="M805.006 46.7277C801.618 48.5972 800.773 52.6211 802.341 55.9517C811.004 74.3506 814.123 95.3815 811.2 115.514C808.141 136.578 797.913 155.403 781.837 169.328C770.872 178.825 758.004 185.85 744.979 192.086C737.094 195.862 743.677 207.739 751.536 203.976C775.604 192.453 799.013 177.267 812.436 153.464C823.809 133.295 827.51 109.707 824.964 86.8562C823.514 73.842 819.802 61.2331 814.228 49.3932C812.664 46.0721 808.07 45.0368 805.006 46.7277Z" fill="#ED5E7E"/>
<path id="Vector_35" d="M617.798 580.289C620.731 577.765 620.734 573.653 618.517 570.715C606.27 554.481 598.909 534.535 597.648 514.231C596.328 492.987 602.484 472.465 615.367 455.541C624.154 443.999 635.311 434.486 646.782 425.714C653.727 420.403 644.851 410.127 637.929 415.42C616.732 431.63 596.93 451.29 588.666 477.339C581.664 499.411 582.873 523.256 590.044 545.101C594.129 557.542 600.344 569.123 608.226 579.57C610.436 582.5 615.144 582.572 617.798 580.289Z" fill="#FFE58F"/>
<path id="Vector_36" d="M987.974 46.6166C975.992 52.2392 960.564 48.9995 951.371 39.6915C941.932 30.1353 939.236 14.4942 945.553 2.47278C951.129 -8.13804 962.739 -14.772 974.587 -14.3601C975.827 -15.3034 977.476 -15.7788 979.494 -15.4276C993.993 -12.9049 1006.49 -0.288343 1007.15 14.7747C1007.73 28.1407 1000.11 40.923 987.974 46.6166ZM993.193 12.5614C991.725 6.50596 987.099 1.46634 981.395 -0.865516C980.276 -0.293739 978.898 -0.0774689 977.287 -0.394675C968.517 -2.12313 958.979 2.70906 956.413 11.6105C954.213 19.2393 957.016 27.7806 963.56 32.3127C969.802 36.6348 978.803 37.1505 985.101 32.7036C991.34 28.2974 995.029 20.1377 993.193 12.5614Z" fill="#FFCCD7"/>
<path id="Vector_37" d="M1130.29 125.027C1115.58 126.49 1100.79 126.871 1086.03 125.939C1080.89 125.615 1072.75 126.232 1068.67 122.418C1065.39 119.357 1065.08 113.791 1064.8 109.609C1062.8 79.9316 1063.87 49.7271 1065.81 20.0786C1066.92 3.03119 1068.56 -13.9775 1070.69 -30.9284C1071.77 -39.5869 1058.35 -41.6084 1057.26 -32.919C1053.15 -0.163548 1050.96 32.7844 1050.59 65.7929C1050.42 81.3454 1050.06 97.2098 1051.43 112.717C1051.98 118.921 1053.51 125.608 1057.66 130.456C1062.45 136.054 1069.28 138.073 1076.39 138.781C1094.8 140.614 1113.54 140.337 1131.94 138.508C1140.63 137.644 1139 124.16 1130.29 125.027Z" fill="#FFE58F"/>
<path id="Vector_38" d="M1024.09 120.424C1012.3 110.686 999.53 100.902 984.655 96.5151C969.477 92.0387 954.461 94.8145 941.708 104.146C929.738 112.905 919.878 125.074 910.389 136.356C900.245 148.418 890.718 160.996 881.849 174.025C871.616 189.058 862.249 204.692 853.772 220.78C852.063 224.024 854.062 228.332 857.249 229.732C860.81 231.297 864.484 229.509 866.199 226.254C879.865 200.318 896.002 175.758 914.362 152.903C923.125 141.995 932.217 130.946 942.374 121.295C951.568 112.559 962.393 106.141 975.491 108.239C990.85 110.699 1003.97 121.421 1015.61 131.028C1022.37 136.605 1030.83 125.985 1024.09 120.424Z" fill="#AFE2DB"/>
<path id="Vector_39" d="M1166.55 260.178C1139.44 245.871 1113.61 229.257 1089.35 210.516C1085.13 207.257 1085.57 201.32 1090.25 198.739C1098.71 194.073 1107.52 190.062 1116.58 186.719C1117.59 185.519 1119.02 184.626 1120.63 184.163C1126.59 182.457 1132.55 180.751 1138.5 179.045C1143.41 177.641 1148.39 175.833 1153.49 175.286C1158.51 174.746 1163.66 175.357 1167.85 178.409C1173.06 182.202 1174.97 188.48 1176.53 194.423C1181.87 214.827 1181.66 236.305 1176.76 256.757C1175.63 261.444 1170.03 262.016 1166.55 260.178ZM1159.94 189.413C1159.27 189.778 1158.5 190.048 1157.6 190.182C1139.58 192.871 1122.23 198.195 1105.86 205.992C1124.88 220.058 1144.81 232.839 1165.53 244.26C1167.83 229.978 1167.36 215.269 1164.21 201.148C1163.49 197.908 1162.89 192.025 1160.27 189.678C1160.17 189.581 1160.05 189.496 1159.94 189.413Z" fill="#BDBFE1"/>
<path id="Vector_40" d="M1021 279.499C1010.18 286.754 995.906 285.617 985.288 278.607C974.071 271.202 969.935 257.597 974.068 245.013C977.974 233.119 989.321 223.308 1002.07 222.846C1003.73 222.786 1005.34 223.197 1006.64 224.021C1018.95 223.452 1030.01 234.235 1032.85 246.698C1035.55 258.539 1031.35 272.556 1021 279.499ZM1019.55 249.137C1018.9 246.275 1017.11 242.843 1014.97 240.868C1012.72 238.787 1008.06 236.072 1004.94 237.873C1002.37 239.352 999.327 239.626 996.991 237.989C991.669 240.471 987.565 245.464 986.354 251.165C984.849 258.255 987.989 264.719 994.015 268.127C1000.32 271.691 1008.14 272.207 1013.9 267.88C1019.41 263.735 1021.07 255.915 1019.55 249.137Z" fill="#F9BA7A"/>
<path id="Vector_41" d="M1151.83 18.0628C1142.57 18.6454 1133.8 12.6275 1129.33 4.77077C1124.34 -3.98933 1124.39 -15.1384 1127.23 -24.5801C1130.6 -35.7808 1138.47 -45.5822 1139.33 -57.5532C1140.1 -68.2711 1136.18 -79.1583 1126.1 -84.1431C1118.26 -88.0277 1112.81 -75.5863 1120.62 -71.7203C1128.8 -67.671 1125.7 -55.2374 1122.89 -48.6373C1118.04 -37.2292 1112.31 -26.8155 1111.86 -14.0877C1111.44 -2.35794 1114.59 9.59571 1122.61 18.4368C1130.56 27.2151 1141.56 32.2943 1153.48 31.5439C1162.19 30.9956 1160.54 17.515 1151.83 18.0628Z" fill="#F9BA7A"/>
<path id="Vector_42" d="M1163.1 314.754C1152.56 306.148 1138.74 302.941 1125.51 306.263C1114.15 309.119 1104.94 317.062 1097.1 325.4C1089.51 333.463 1082.73 342.665 1073.7 349.218C1065.52 355.156 1055.56 357.897 1045.46 356.889C1034.31 355.775 1023.3 350.756 1016.26 341.86C1013.98 338.988 1010.11 337.773 1006.86 339.909C1004 341.782 1002.62 346.425 1004.91 349.312C1019.54 367.782 1045.5 375.427 1067.84 367.58C1079.05 363.642 1087.93 355.653 1095.85 347.049C1103.34 338.921 1110.21 329.704 1119.59 323.632C1130.25 316.732 1144 316.68 1154.04 324.875C1160.8 330.391 1169.87 320.286 1163.1 314.754Z" fill="#FFCCD7"/>
<path id="Vector_43" d="M935.19 375.226C927.944 386.72 912.718 392.589 899.564 389.736C884.774 386.527 873.318 376.039 864.097 364.56C862.388 362.432 860.707 360.215 859.076 357.922C848.578 366.243 839.754 376.227 827.674 382.497C815.974 388.57 802.55 391 789.449 390.14C763.352 388.427 740.151 371.199 729.451 347.604C725.828 339.615 738.454 334.612 742.051 342.544C754.455 369.898 786.499 383.521 814.772 373.323C828.761 368.277 838.281 357.557 849.437 348.284C850.202 347.648 850.979 347.03 851.766 346.425C840.271 325.991 834.595 301.777 847.187 280.457C849.059 277.287 852.454 275.365 856.141 276.991C859.214 278.347 861.472 282.789 859.606 285.947C851.714 299.311 852.517 315.12 858.192 329.168C859.56 332.554 861.17 335.927 862.979 339.236C871.306 334.861 880.41 332.043 889.884 331.145C903.193 329.884 917.74 332.02 928.445 340.608C939.036 349.104 942.616 363.448 935.19 375.226ZM923.51 354.943C917.712 346.71 906.023 344.241 896.548 344.35C887.355 344.456 878.37 346.655 870.241 350.719C874.046 355.971 878.304 360.858 882.827 365.126C890.866 372.711 902.148 379.801 913.519 375.633C922.044 372.507 929.547 363.514 923.51 354.943Z" fill="#FCD861"/>
<path id="Vector_44" d="M917.369 -25.2013C910.158 -43.0554 885.044 -46.6878 868.408 -45.9827C865.037 -45.8399 862.585 -42.1808 862.969 -39.0239C863.403 -35.4538 866.546 -33.4405 869.926 -33.5838C878.043 -33.9278 886.618 -32.8843 894.205 -29.866C898.932 -27.9848 904.896 -24.7665 906.206 -19.3617C907.035 -15.94 905.701 -12.4351 904.37 -9.33229C902.539 -5.06522 900.436 -0.904575 898.447 3.2906C894.35 11.9335 890.253 20.5763 886.156 29.2192C882.705 36.4971 894.14 41.522 897.578 34.2686C902.388 24.1227 907.198 13.9767 912.008 3.83073C916.3 -5.22466 921.456 -15.0836 917.369 -25.2013Z" fill="#BDBFE1"/>
<path id="Vector_45" d="M1132.09 448.552C1125.7 460.195 1111.27 465.986 1098.43 463.088C1085.54 460.178 1076.29 449.55 1074.2 436.61C1072.14 423.898 1078.39 411.578 1090.08 406.139C1100.72 401.186 1113.23 403.03 1121.76 410.789C1122.17 410.965 1122.58 411.17 1122.96 411.407C1135.01 418.784 1138.76 436.399 1132.09 448.552ZM1115.45 421.352C1114.63 420.925 1113.86 420.343 1113.19 419.638C1108.26 414.471 1098.49 414.797 1092.53 419.032C1086.53 423.298 1084.92 431.17 1087.38 438.209C1090.04 445.79 1096.28 450.96 1104.39 451.319C1111.96 451.654 1120.04 447.397 1122.27 439.873C1124.26 433.124 1121.66 425.353 1115.45 421.352Z" fill="#FFE0C2"/>
<path id="Vector_46" d="M930.4 272.072C930.262 270.982 929.867 269.995 929.216 269.111C928.172 267.823 926.79 266.903 925.117 266.655L923.631 266.435C922.786 266.276 921.966 266.336 921.173 266.614C920.371 266.749 919.645 267.077 918.997 267.596C918.312 268.067 917.788 268.666 917.425 269.395C916.93 270.074 916.635 270.841 916.541 271.696L916.518 273.371C916.656 274.46 917.051 275.447 917.702 276.332C918.746 277.62 920.128 278.54 921.801 278.788L923.287 279.008C924.132 279.166 924.952 279.107 925.745 278.829C926.547 278.693 927.273 278.366 927.921 277.846C928.607 277.376 929.13 276.777 929.493 276.048C929.988 275.369 930.283 274.602 930.377 273.747C930.385 273.189 930.392 272.631 930.4 272.072Z" fill="#B9D5EA"/>
<path id="Vector_47" d="M879.486 92.8273C879.348 91.7374 878.953 90.7504 878.302 89.8663C877.258 88.5778 875.876 87.6579 874.203 87.4099L872.717 87.1896C871.872 87.0315 871.052 87.0912 870.259 87.3688C869.457 87.5045 868.731 87.832 868.083 88.3514C867.397 88.8216 866.874 89.4211 866.511 90.1499C866.015 90.8287 865.721 91.5957 865.627 92.4509C865.619 93.0091 865.612 93.5674 865.604 94.1256C865.742 95.2154 866.137 96.2024 866.788 97.0866C867.832 98.3751 869.214 99.295 870.887 99.543L872.373 99.7633C873.218 99.9214 874.038 99.8617 874.831 99.584C875.633 99.4484 876.359 99.1209 877.007 98.6015C877.693 98.1313 878.216 97.5318 878.579 96.8029C879.074 96.1242 879.369 95.3572 879.463 94.502C879.471 93.9438 879.478 93.3855 879.486 92.8273Z" fill="#B9D5EA"/>
<path id="Vector_48" d="M698.721 400.165C698.583 399.075 698.188 398.088 697.537 397.204C696.493 395.916 695.112 394.996 693.439 394.748L691.952 394.527C691.107 394.369 690.288 394.429 689.495 394.707C688.692 394.842 687.966 395.17 687.318 395.689C686.633 396.16 686.109 396.759 685.747 397.488C685.251 398.167 684.956 398.934 684.862 399.789C684.855 400.347 684.847 400.905 684.839 401.464C684.978 402.553 685.373 403.54 686.024 404.424C687.067 405.713 688.449 406.633 690.122 406.881L691.608 407.101C692.454 407.259 693.273 407.2 694.066 406.922C694.869 406.786 695.594 406.459 696.243 405.939C696.928 405.469 697.452 404.87 697.814 404.141C698.31 403.462 698.605 402.695 698.699 401.84C698.706 401.282 698.714 400.723 698.721 400.165Z" fill="#E2BBDF"/>
<path id="Vector_49" d="M1145.2 552.943C1152.4 559.928 1162.05 569.507 1173.07 567.842C1180.61 566.701 1186.89 561.017 1193.3 557.304C1198.74 554.152 1204.86 551.792 1211.1 550.797C1211.75 548.814 1212.42 546.861 1213.09 544.958C1217.49 532.558 1223.18 519.989 1231.14 509.443C1238.75 499.361 1248.79 490.872 1261.38 488.098C1272.96 485.547 1285 487.922 1293.94 495.887C1296.47 498.141 1296.01 502.541 1293.71 504.717C1291.12 507.176 1287.4 506.734 1284.89 504.491C1278.01 498.362 1267.12 498.436 1259.01 501.843C1247.74 506.577 1240.17 517.046 1234.47 527.43C1230.42 534.828 1227.03 542.601 1224.33 550.6C1232.03 551.663 1239.28 554.894 1244.85 560.783C1252.45 568.824 1256.38 581.251 1251.84 591.792C1247.78 601.219 1237.73 607.393 1227.5 607.169C1214.43 606.883 1206.82 595.59 1205.85 583.484C1205.36 577.334 1206.04 570.966 1207.34 564.681C1201.79 566.684 1196.67 569.882 1191.51 573.143C1181.86 579.237 1171.14 582.729 1160 578.55C1150.7 575.064 1143.18 568.364 1136.15 561.547C1130.36 555.93 1139.46 547.37 1145.2 552.943ZM1239.47 574.663C1235.8 567.303 1228.74 563.301 1220.8 562.691C1219.78 566.757 1218.93 570.885 1218.48 575.04C1217.98 579.736 1217.7 585.155 1219.94 589.487C1223.3 595.986 1230.16 595.841 1235.85 592.256C1238.1 590.835 1240.15 588.374 1240.9 585.36C1241.8 581.771 1241.1 577.935 1239.47 574.663Z" fill="#AFE2DB"/>
<path id="Vector_50" d="M732.172 122.759C727.553 132.994 717.573 139.933 706.241 139.261C702.856 139.061 700.52 135.283 700.981 132.169C701.507 128.622 704.706 126.708 708.072 126.908C713.043 127.203 717.566 123.374 719.951 119.311C723.329 113.555 722.906 106.385 721.514 100.11C718.975 88.6583 712.715 77.5948 705.002 68.6119C689.015 81.0419 664.734 80.4865 646.446 72.7303C634.727 67.7602 624.633 59.3169 618.797 47.9075C613.202 36.9672 612.394 23.6399 617.332 12.3285C620.549 4.95963 631.974 10.0034 628.755 17.3779C624.334 27.5052 626.841 39.3072 633.424 47.9139C640.466 57.1206 651.679 62.5996 662.869 64.7814C673.09 66.7743 684.43 66.5129 693.667 61.172C694.459 60.7137 695.239 60.2114 696.002 59.673C688.984 53.577 681.401 47.799 677.925 38.946C674.352 29.8452 676.571 17.1961 685.435 11.8947C697.151 4.8874 710.648 14.2081 716.239 24.6826C722.043 35.5541 720.621 48.366 714.146 58.5585C713.943 58.8782 713.724 59.1784 713.514 59.4895C720.824 67.6934 726.67 77.347 730.617 87.5927C734.85 98.5819 737.207 111.603 732.172 122.759ZM700.859 47.4032C702.082 48.4499 703.291 49.5039 704.487 50.5707C706.446 47.2154 707.608 43.4555 707.511 39.5205C707.405 35.1557 705.963 30.9122 703.295 27.4548C701.047 24.5413 697.07 21.4845 693.178 22.0347C692.173 22.1768 691.587 22.5564 690.725 23.6224C690.08 24.4204 689.31 26.2003 689.126 27.0102C688.332 30.4928 688.697 33.2755 690.572 36.4831C693.122 40.8453 697.072 44.1622 700.859 47.4032Z" fill="#F9BA7A"/>
<path id="Vector_51" d="M787.42 453.703C784.838 464.867 774.558 473.739 763.076 474.577C750.914 475.463 739.575 467.525 735.083 456.368C730.383 444.692 733.577 430.659 743.742 422.981C753.362 415.713 767.798 415.858 775.724 425.433C784.664 431.45 789.882 443.056 787.42 453.703ZM765.214 434.08C763.571 433.491 762.439 432.095 761.898 430.483C756.412 428.867 749.505 433.009 747.002 438.018C742.878 446.272 746.941 457.048 755.24 460.862C762.592 464.241 771.838 460.339 774.73 452.751C777.655 445.077 772.537 436.705 765.214 434.08Z" fill="#ED5E7E"/>
<path id="Vector_52" d="M826.883 552.501C818.301 542.604 805.876 536.535 792.831 535.598C780.698 534.727 769.439 539.377 758.3 543.477C747.251 547.545 736.478 550.36 725.006 546.128C714.111 542.11 704.537 533.285 698.361 523.568C691.851 513.324 688.125 500.953 691.171 488.906C693.136 481.136 681.18 477.531 679.205 485.342C672.791 510.711 687.384 536.733 707.951 551.068C719.489 559.11 733.138 562.589 747.01 559.892C758.841 557.591 769.542 551.548 781.297 548.963C794.854 545.982 808.665 550.541 817.767 561.037C823.047 567.126 832.139 558.562 826.883 552.501Z" fill="#FFCCD7"/>
<path id="Vector_53" d="M879.598 496.412C876.246 500.489 869.219 501.604 864.413 503C854.63 505.843 844.666 507.978 834.577 509.352C831.154 513.556 822.523 511.194 823.499 504.487C825.388 491.51 829.258 478.536 835.377 466.904C839.72 458.648 848.592 449.452 858.765 454.455C863.599 456.833 866.495 461.551 869.317 465.925C872.372 470.66 875.207 475.533 877.88 480.493C880.527 485.403 883.82 491.279 879.598 496.412ZM867.453 488.998C867.729 488.905 868.05 488.758 868.381 488.609C867.467 486.631 866.029 484.624 865.155 483.066C863.308 479.771 861.338 476.539 859.29 473.366C857.83 471.104 856.031 467.04 853.522 465.754C852.646 465.305 851.547 465.956 850.527 466.874C845.925 471.016 843.63 478.249 841.52 483.863C839.993 487.927 838.759 492.068 837.765 496.268C842.495 495.517 847.197 494.599 851.862 493.497C855.261 492.693 858.627 491.768 861.969 490.753C863.805 490.196 865.634 489.61 867.453 488.998Z" fill="#F9BA7A"/>
<path id="Vector_54" d="M626.647 337.886C628.071 332.803 634.052 328.949 637.887 325.732C645.694 319.184 653.951 313.212 662.629 307.885C664.066 302.657 672.918 301.338 674.728 307.868C678.231 320.506 679.92 333.939 679.01 347.051C678.365 356.358 673.953 368.352 662.627 367.877C657.245 367.651 652.693 364.501 648.347 361.637C643.643 358.537 639.083 355.221 634.638 351.761C630.236 348.335 624.854 344.286 626.647 337.886ZM640.751 339.771C640.535 339.968 640.302 340.232 640.058 340.502C641.692 341.943 643.817 343.199 645.245 344.273C648.264 346.543 651.369 348.706 654.523 350.783C656.771 352.264 660.055 355.258 662.87 355.423C663.852 355.48 664.595 354.441 665.159 353.189C667.7 347.544 666.884 339.998 666.551 334.01C666.311 329.675 665.77 325.389 664.986 321.144C660.961 323.739 657.028 326.475 653.204 329.366C650.418 331.472 647.711 333.677 645.062 335.953C643.606 337.204 642.168 338.477 640.751 339.771Z" fill="#B9D5EA"/>
<path id="Vector_55" d="M775.487 277.14C763.48 282.171 751.474 287.202 739.467 292.232C733.77 294.62 727.788 297.463 721.394 294.642C716.218 292.358 713.889 287.41 712.741 282.685C711.578 277.903 711.046 273.029 709.852 268.241C708.587 263.17 706.958 258.183 705.021 253.267C701.21 243.598 696.267 234.272 690.17 225.54C688.134 222.624 688.26 218.913 691.465 216.805C694.277 214.956 699.215 215.346 701.247 218.255C712.946 235.011 721.1 253.426 724.981 272.727C725.678 276.196 726.585 280.048 727.294 283.268C727.633 282.993 728.915 282.676 729.251 282.542C731.897 281.492 734.498 280.349 737.118 279.252L770.085 265.438C778.146 262.061 783.474 273.793 775.487 277.14ZM727.586 283.591C727.485 283.57 727.414 283.547 727.356 283.523C727.698 284.814 727.976 283.674 727.586 283.591Z" fill="#FFCCD7"/>
<path id="Vector_56" d="M1061.83 506.796C1038.66 494.422 1015.93 481.219 993.76 467.127C983.588 460.661 972.961 454.395 963.626 446.734C957.407 441.631 950.502 434.631 950.676 425.989C950.81 419.396 955.095 413.509 958.587 408.228C962.878 401.739 967.172 395.252 971.464 388.764C973.324 385.953 973.298 382.23 970.501 379.984C968.057 378.022 963.593 378.123 961.724 380.948C957.657 387.094 953.591 393.241 949.524 399.388C945.683 405.193 941.608 411.009 939.589 417.742C936.076 429.463 940.349 440.819 948.44 449.525C956.722 458.436 967.236 464.782 977.362 471.355C989.56 479.274 1001.93 486.938 1014.43 494.366C1028.36 502.642 1042.49 510.588 1056.78 518.222C1059.76 519.81 1063.73 517.955 1065.02 515.034C1066.47 511.75 1064.82 508.39 1061.83 506.796Z" fill="#E2BBDF"/>
</g>
</g>
<g id="Group_11">
<g id="Group_12">
<path id="Vector_57" d="M1044.31 743.686C1035.06 744.269 1026.29 738.251 1021.81 730.394C1016.83 721.634 1016.87 710.485 1019.72 701.043C1023.09 689.843 1030.96 680.041 1031.81 668.07C1032.58 657.352 1028.66 646.465 1018.59 641.48C1010.74 637.596 1005.29 650.037 1013.1 653.903C1021.28 657.952 1018.19 670.386 1015.38 676.986C1010.53 688.394 1004.79 698.808 1004.34 711.536C1003.93 723.265 1007.08 735.219 1015.09 744.06C1023.05 752.838 1034.04 757.918 1045.97 757.167C1054.68 756.619 1053.02 743.138 1044.31 743.686Z" fill="#F9BA7A"/>
<path id="Vector_58" d="M619.54 646.449C619.604 642.978 616.549 639.343 612.871 639.539C598.811 640.29 585.028 644.031 573.547 652.413C561.605 661.132 553.648 674.536 552.593 689.359C551.973 698.072 565.549 698.311 566.169 689.599C567.833 666.216 591.775 654.233 612.632 653.119C616.29 652.924 619.468 650.302 619.54 646.449Z" fill="#FFCCD7"/>
<path id="Vector_59" d="M1102.15 565.986C1101.25 562.634 1097.31 559.987 1093.83 561.194C1080.52 565.811 1068.32 573.223 1059.6 584.458C1050.54 596.145 1046.61 611.228 1049.7 625.764C1051.52 634.308 1064.63 630.776 1062.81 622.234C1057.94 599.304 1077.62 581.157 1097.35 574.309C1100.82 573.108 1103.14 569.709 1102.15 565.986Z" fill="#FDD4AA"/>
<path id="Vector_60" d="M760.748 575.911C753.556 572.286 748.547 583.731 755.699 587.337C766.873 592.969 771.041 607.479 767.688 618.974C763.692 632.676 751.33 642.263 738.408 646.955C722.787 652.628 706.398 651.524 690.102 651.673C674.502 651.816 659.386 655.538 648.936 667.865C638.757 679.873 635.255 696.73 640.179 711.685C642.693 719.32 654.276 714.652 651.767 707.031C647.947 695.428 652.022 681.984 660.646 673.529C671.893 662.503 688.947 664.038 703.433 664.196C720.186 664.378 737.568 662.483 752.48 654.271C766.286 646.668 777.682 633.928 780.663 618.097C783.777 601.553 775.937 583.568 760.748 575.911Z" fill="#AFE2DB"/>
<path id="Vector_61" d="M1148.89 699.974C1145 700.281 1141.63 698.244 1138.22 696.623C1123.96 689.833 1109.7 683.043 1095.44 676.253C1091.83 674.534 1088.08 672.942 1087.07 668.639C1086.08 664.399 1089.03 661.386 1091.98 658.909C1098.02 653.842 1104.11 648.823 1110.23 643.852C1122.32 634.038 1134.56 624.42 1146.95 614.987C1149.47 613.064 1152.74 612.51 1155.28 614.637C1158.53 614.442 1162.02 616.452 1162.14 620.654C1162.61 637.56 1162.06 654.484 1160.41 671.318C1160.03 675.187 1159.59 679.05 1159.1 682.906C1158.69 686.13 1158.56 689.635 1157.45 692.713C1156.07 696.563 1153.14 699.638 1148.89 699.974ZM1146.12 686.601C1146.27 685.683 1146.37 684.751 1146.49 683.832C1148.93 665.48 1149.98 646.94 1149.8 628.427C1141.97 634.445 1134.2 640.534 1126.5 646.707C1121.61 650.626 1116.74 654.576 1111.9 658.556C1109.71 660.354 1107.53 662.158 1105.35 663.968C1104.52 664.66 1103.69 665.355 1102.86 666.048C1103.28 666.222 1103.67 666.388 1104 666.546C1106.63 667.797 1109.25 669.048 1111.88 670.298C1116.95 672.711 1122.01 675.123 1127.08 677.535C1132.15 679.947 1137.21 682.36 1142.28 684.772C1143.56 685.382 1144.84 685.991 1146.12 686.601Z" fill="#ED5E7E"/>
<path id="Vector_62" d="M846.549 609.288C838.602 608.11 836.758 620.462 844.718 621.642C852.665 622.82 854.509 610.468 846.549 609.288Z" fill="#F9BA7A"/>
<path id="Vector_63" d="M1001.34 542.816C1011.87 546.73 1019.47 556.218 1019.57 567.571C1019.6 570.963 1015.99 573.551 1012.85 573.302C1009.28 573.019 1007.15 569.956 1007.12 566.584C1007.08 561.603 1002.95 557.35 998.735 555.246C992.765 552.266 985.642 553.175 979.478 554.99C968.228 558.302 957.618 565.301 949.182 573.609C962.666 588.717 963.762 612.986 957.268 631.763C953.107 643.795 945.371 654.443 934.387 661.041C923.855 667.369 910.617 669.08 898.998 664.921C891.43 662.211 895.685 650.467 903.259 653.178C913.661 656.902 925.262 653.599 933.4 646.445C942.104 638.791 946.808 627.229 948.224 615.914C949.517 605.579 948.486 594.28 942.531 585.425C942.02 584.666 941.466 583.922 940.877 583.197C935.274 590.615 930.026 598.575 921.431 602.645C912.596 606.828 899.829 605.474 893.939 596.988C886.153 585.772 894.533 571.67 904.601 565.379C915.051 558.849 927.926 559.398 938.533 565.166C938.866 565.347 939.18 565.545 939.504 565.733C947.191 557.881 956.422 551.392 966.374 546.757C977.047 541.786 989.875 538.549 1001.34 542.816ZM928.309 579.184C929.27 577.892 930.239 576.613 931.222 575.348C927.742 573.621 923.913 572.717 919.994 573.081C915.648 573.484 911.513 575.211 908.246 578.108C905.492 580.549 902.714 584.726 903.527 588.572C903.737 589.566 904.155 590.125 905.277 590.912C906.117 591.501 907.945 592.149 908.765 592.278C912.293 592.833 915.043 592.28 918.115 590.191C922.293 587.35 925.333 583.183 928.309 579.184Z" fill="#B9D5EA"/>
</g>
</g>
</g>
</g>
</g>
</g>
</g>
</g>
</g>
<g id="video-cover-container">
<rect id="Rectangle 7" y="50" width="1140" height="540" fill="#A3A6D6"/>
<text id="video-title" fill="white" xml:space="preserve" style="white-space: pre" font-family="Playpen Sans" font-size="40" font-weight="bold" letter-spacing="0em"><tspan x="80" y="264.6">Instrumento de avalia&#xe7;&#xe3;o </tspan><tspan x="80" y="312.6">de desenvolvimento integral </tspan><tspan x="80" y="360.6">das crian&#xe7;as contido na </tspan><tspan x="80" y="408.6">Caderneta da Crian&#xe7;a</tspan></text>
<path id="Polygon 13" d="M612 331.378C621.333 325.99 621.333 312.518 612 307.13L528 258.632C518.667 253.244 507 259.979 507 270.756L507 367.751C507 378.528 518.667 385.264 528 379.876L612 331.378Z" fill="#5A5D8C"/>
<g id="silhueta">
<g id="Group 576">
<g id="Vector_64">
<mask id="path-68-inside-1_103_3636" fill="white">
<path d="M917.769 547.945C908.207 547.945 896.755 543.844 892.728 534.681C890.71 530.089 889.238 526.21 887.941 522.787C886.985 520.266 886.082 517.886 885.115 515.635C882.519 509.596 881.28 502.564 881.193 500.141C881.122 498.16 881.835 496.493 882.603 495.292C880.661 488.277 874.084 464.352 871.745 453.784C870.492 448.121 868.458 443.829 866.304 439.284C864.078 434.592 861.778 429.739 860.519 423.494C860.241 422.112 859.958 420.262 859.666 417.889C856.823 417.539 853.693 417.102 850.186 416.566C845.493 415.848 841.279 415.22 837.462 414.654C837.433 414.728 837.403 414.799 837.375 414.868C835.303 419.882 835.009 425.281 834.851 428.179C834.804 429.059 834.767 429.723 834.697 430.28C834.725 431.095 835.114 433.882 835.461 436.351C836.503 443.792 838.078 455.037 837.666 462.891C837.383 468.278 836.353 475.277 835.444 481.452C834.903 485.134 834.263 489.483 834.039 492.069C836.157 493.096 837.733 495.053 837.733 497.885C837.733 499.166 837.862 503.098 837.987 506.901C838.129 511.24 838.264 515.339 838.264 516.954C838.264 517.68 838.403 518.9 838.538 520.08C839.009 524.222 839.455 528.136 837.269 530.577C836.045 531.941 834.041 532.704 829.984 534.163C826.844 535.292 822.099 537 820.44 538.543C815.689 542.967 807.457 545.326 793.747 546.196C792.555 546.271 791.412 546.309 790.352 546.309C784.007 546.309 779.777 544.916 777.424 542.046C775.65 539.882 775.087 537.113 775.75 533.815C776.771 528.75 782.73 521.001 783.914 519.498C784.096 519.268 784.303 519.058 784.532 518.874C791.435 513.314 799.536 506.47 800.915 504.84C801.147 504.135 801.114 502.124 801.093 500.905C801.059 498.838 801.026 496.854 801.539 495.131C799.963 488.406 792.889 457.316 793.441 442.979C793.936 430.089 793.186 425.529 791.824 417.249C791.602 415.899 791.365 414.461 791.117 412.883C790.759 410.609 790.761 407.198 791.123 402.498C779.908 395.072 770.258 380.665 769.828 380.016C769.099 378.919 768.972 377.529 769.492 376.319C769.756 375.702 776.132 361.002 790.416 341.137C792.031 338.886 793.684 336.649 795.4 334.388C784.67 333.723 774.725 332.932 765.757 332.034C720.492 327.492 711.911 321.996 711.911 313.443C711.911 304.89 720.492 299.394 765.757 294.853C783.058 293.117 803.363 291.828 826.144 291.018L826.34 290.419C831.24 275.433 836.796 258.449 839.196 241.041C839.488 238.931 840.267 236.11 841.568 232.465C840.057 231.3 838.37 229.974 836.428 228.296C832.513 224.914 812.55 207.568 803.985 198.211C796.798 190.361 794.148 184.128 792.642 179.573C790.706 173.719 790.535 163.382 790.385 154.264C790.347 151.922 790.31 149.698 790.244 147.722C790.188 146.052 790.151 144.373 790.116 142.723C790.003 137.463 789.834 129.516 788.594 127.891C786.394 125.011 784.984 119.608 784.776 115.986C784.665 114.039 784.954 111.815 785.211 109.854C785.354 108.754 785.571 107.09 785.518 106.582C785.178 104.168 784.662 100.501 787.014 97.624C787.852 96.5993 789.416 95.3864 792.159 95.2885C792.984 94.4735 794.108 93.5721 795.489 92.9478C796.553 92.4672 797.731 92.2231 798.985 92.2231C799.811 92.2231 800.566 92.3312 801.186 92.4647C802.109 92.1875 803.356 91.9053 804.621 91.9053C804.982 91.9053 805.336 91.9282 805.678 91.9739C806.669 92.1049 807.528 92.3846 808.237 92.7012C808.242 92.6999 808.246 92.6999 808.251 92.6986C808.657 92.602 809.095 92.5524 809.543 92.5524C810.708 92.5524 811.941 92.9097 813.024 93.3547C814.155 92.6529 815.539 92.1685 817.12 92.1685C817.84 92.1685 818.57 92.2702 819.29 92.471C820.869 92.9135 822.167 93.9853 822.946 95.4894C824.528 98.5483 823.515 102.187 823.006 103.609C822.775 104.394 822.813 107.348 822.837 109.303C822.879 112.538 822.922 115.883 822.322 118.226C821.569 121.169 819.282 123.659 817.262 125.854C816.695 126.472 815.885 127.352 815.498 127.874C815.662 130.815 817.563 143.847 819.669 151.033C821.284 156.545 823.446 161.717 824.877 165.139C825.409 166.413 825.852 167.476 826.154 168.271C826.856 170.121 830.49 173.124 834.339 176.303L835.144 176.97C835.699 177.429 836.283 177.872 836.888 178.302C836.861 178.102 836.847 177.898 836.847 177.685C836.575 177.35 836.346 176.967 836.171 176.545C835.072 173.885 836.725 169.851 837.956 168.629C838.045 168.522 838.125 168.38 838.213 168.244C838.572 167.695 839.064 166.942 839.889 166.244C840.487 165.738 841.154 165.357 841.814 165.057C842.048 163.38 842.928 161.541 845.404 160.135C846.804 159.339 848.372 158.955 849.866 158.757C849.91 158.585 850.159 157.593 850.159 157.593C850.21 157.38 850.234 157.203 850.258 157.046C850.454 155.764 850.785 154.381 852.467 152.798C853.01 152.288 853.576 151.769 854.189 151.287C854.597 148.903 856.176 147.371 857.145 146.431C857.454 146.131 857.974 145.626 858.045 145.441C858.09 145.3 858.106 145.145 858.134 144.991C858.246 144.362 858.401 143.503 858.866 142.545C859.246 141.761 859.745 141.187 860.146 140.782C860.174 140.269 860.258 139.616 860.528 138.905C861.414 136.572 863.227 135.373 864.426 134.579C864.672 134.417 864.907 134.261 865.092 134.123C865.269 133.803 865.458 133.469 865.704 133.122C866.216 132.398 866.776 131.792 867.434 131.251C867.459 131.117 867.489 130.978 867.526 130.836C868.506 127.152 871.253 124.107 874.694 122.891C875.868 122.476 877.254 122.031 878.652 121.863C878.69 121.858 878.734 121.854 878.782 121.851C879.354 121.043 880.302 120.001 881.878 119.498C882.367 119.343 882.88 119.266 883.408 119.266C883.584 119.266 883.752 119.275 883.91 119.289C884.167 119.055 884.454 118.755 884.75 118.445C886.143 116.987 888.25 114.785 891.888 114.785C892.188 114.785 892.5 114.801 892.823 114.834C892.946 114.732 893.069 114.624 893.171 114.535C893.867 113.927 894.736 113.169 895.948 112.648C896.988 112.202 898.074 111.977 899.179 111.977C901.165 111.977 902.746 112.688 903.902 113.205L904.144 113.313C904.355 113.359 904.602 113.383 904.861 113.416C905.626 113.518 906.987 113.698 908.281 114.301C909.332 113.832 910.584 113.424 912.012 113.424C912.456 113.424 912.901 113.463 913.334 113.543C913.984 113.663 914.509 113.85 914.92 114.039C915.489 113.928 916.031 113.874 916.562 113.874C918.724 113.874 920.619 114.768 922.195 116.531C922.303 116.553 922.419 116.577 922.545 116.605C925.594 117.285 927.061 119.094 928.114 120.497C928.261 120.57 928.465 120.664 928.617 120.734C929.018 120.919 929.413 121.107 929.771 121.308C931.453 122.252 932.72 123.619 933.498 125.311L933.897 125.422C935.274 125.797 936.986 126.264 938.529 127.44C939.232 127.976 939.714 128.541 940.068 128.953C940.173 129.075 940.268 129.204 940.391 129.312C941.226 129.798 942.444 130.35 943.622 130.883C944.17 131.131 944.709 131.373 945.218 131.616C948.57 133.209 949.449 135.84 949.975 137.411C950.096 137.772 950.278 138.317 950.377 138.425C950.532 138.591 950.698 138.726 950.853 138.861C951.673 139.571 953.046 140.763 953.514 143.009C953.55 143.182 953.578 143.336 953.602 143.475C953.957 143.888 954.255 144.306 954.522 144.682C954.692 144.921 954.949 145.283 955.057 145.392C955.228 145.539 955.429 145.66 955.61 145.778C956.598 146.424 958.435 147.627 958.975 150.633C959.04 150.992 959.06 151.332 959.06 151.636C959.376 151.94 959.726 152.301 960.034 152.733C961.531 154.832 961.651 156.725 961.737 158.107C961.767 158.564 961.791 158.959 961.866 159.314C961.927 159.604 962.317 160.298 962.602 160.805C963.167 161.809 963.806 162.947 964.132 164.331C964.378 165.386 964.336 166.301 964.224 167.015C965.554 167.96 967.954 169.71 968.015 173.425C968.029 174.321 967.904 175.083 967.766 175.68C969.178 177.017 970.247 178.715 969.985 181.55C969.88 182.682 969.287 183.712 968.359 184.372C968.345 184.382 968.328 184.393 968.313 184.404C968.43 184.597 968.547 184.779 968.675 184.958C969.403 185.978 969.663 187.105 969.711 188.147C973.05 190.577 974.453 194.45 973.204 197.901C973.092 198.211 972.96 198.489 972.821 198.74C974.894 202.287 972.859 205.319 971.781 206.677C971.772 206.734 971.763 206.792 971.753 206.849C971.673 207.317 971.558 207.987 971.273 208.703C972.15 209.809 972.293 211.064 972.315 211.47C972.52 215.127 969.245 216.52 968.013 217.044C967.974 217.061 967.936 217.077 967.898 217.093C967.584 217.623 967.146 218.074 966.621 218.405C970.558 218.455 973.881 218.528 976.1 218.686C980.181 218.975 983.642 219.129 986.105 219.129C986.9 219.129 987.494 219.113 987.931 219.091C989.477 215.844 992.727 206.731 994.238 201.237C996.773 192.027 998.367 181.244 997.561 178.84C994.606 174.515 992.552 164.882 992.262 162.647C991.848 159.455 994.039 155.808 999.109 148.841C999.49 148.317 999.844 147.833 1000.15 147.401C1002.21 144.515 1004.16 141.789 1007.47 141.789C1008.43 141.789 1009.39 142.042 1010.31 142.539C1011.47 143.161 1012.33 144.007 1012.96 144.84C1014.35 144.956 1016.04 145.347 1017.67 146.364C1019.16 146.527 1021.37 147.062 1023.22 148.722C1024.36 149.746 1025.08 150.765 1025.53 151.659C1027.03 152.522 1029.03 154.046 1029.98 156.412C1030.15 156.837 1030.46 157.376 1030.78 157.948C1031.82 159.785 1033.24 162.301 1033.12 165.841C1032.97 170.145 1031.39 173.272 1028.81 177.912C1027.05 181.065 1025.36 184.852 1024.7 186.367C1024.62 191.158 1024.81 196.535 1025.01 202.211C1025.34 211.409 1025.67 220.921 1024.98 229.979C1023.87 244.575 1019.64 248.972 1015.04 252.521L1014.57 252.889C1011.26 255.476 1002.06 256.112 977.793 256.601C974.804 256.662 971.921 256.721 969.29 256.793C968.122 256.825 966.97 256.839 965.832 256.839C961.073 256.839 956.549 256.586 952.558 256.362C949.263 256.178 946.149 256.004 943.463 256.004C942.004 256.004 940.744 256.053 939.65 256.159C940.079 260.423 940.369 264.152 937.317 268.119C936.448 269.863 935.34 271.782 934.021 273.826C930.547 279.214 927.907 284.245 925.218 290.713C951.411 291.467 975.436 292.891 995.005 294.853C1040.27 299.395 1048.85 304.892 1048.85 313.444C1048.85 321.995 1040.26 327.491 994.999 332.032C973.417 334.197 946.615 335.695 917.246 336.379C919.287 347.977 922.952 359.638 926.266 364.717C933.201 375.345 942.34 392.33 942.725 393.048C943.371 394.25 943.343 395.7 942.649 396.875C942.267 397.523 932.994 412.79 907.314 415.624C906.755 415.687 906.21 415.748 905.677 415.81C905.649 418.727 905.941 420.548 906.207 421.158C909.897 429.574 914.558 443.673 915.807 463.044C916.188 468.957 916.031 475.162 915.894 480.637C915.793 484.584 915.699 488.352 915.852 491.04C916.909 491.752 918.267 492.962 919.305 495.161C920.013 496.656 920.305 497.897 920.565 498.993C920.953 500.638 921.29 502.058 923.421 504.938C923.915 505.604 924.514 506.395 925.187 507.28C932.086 516.377 938.911 525.845 939.986 532.841C940.478 536.045 939.762 538.972 937.914 541.305C934.963 545.033 929.375 547.11 920.328 547.844C919.494 547.911 918.634 547.945 917.769 547.945ZM916.216 315.854C915.982 316.747 915.664 318.604 915.709 321.995C943.18 321.374 968.516 320.037 989.195 318.109C1006 316.544 1016.82 314.859 1023.72 313.429C1016.82 312.004 1006.01 310.342 989.195 308.776C969.607 306.951 945.693 305.647 919.871 304.991C919.055 307.319 918.197 309.798 917.274 312.472C916.915 313.512 916.574 314.599 916.231 315.794C916.226 315.814 916.221 315.833 916.216 315.854ZM736.974 313.443C743.877 314.871 754.696 316.538 771.567 318.109C782.064 319.087 793.778 319.916 806.411 320.578C807.919 318.764 809.369 317.035 810.76 315.378C813.122 312.565 815.353 309.907 817.349 307.423C817.8 306.862 818.278 306.299 818.788 305.731C801.333 306.459 785.48 307.482 771.567 308.777C754.698 310.349 743.877 312.015 736.974 313.443ZM962.37 218.355C962.357 218.347 962.345 218.338 962.332 218.331C962.327 218.338 962.322 218.346 962.315 218.355H962.37Z"/>
</mask>
<path d="M917.769 547.945C908.207 547.945 896.755 543.844 892.728 534.681C890.71 530.089 889.238 526.21 887.941 522.787C886.985 520.266 886.082 517.886 885.115 515.635C882.519 509.596 881.28 502.564 881.193 500.141C881.122 498.16 881.835 496.493 882.603 495.292C880.661 488.277 874.084 464.352 871.745 453.784C870.492 448.121 868.458 443.829 866.304 439.284C864.078 434.592 861.778 429.739 860.519 423.494C860.241 422.112 859.958 420.262 859.666 417.889C856.823 417.539 853.693 417.102 850.186 416.566C845.493 415.848 841.279 415.22 837.462 414.654C837.433 414.728 837.403 414.799 837.375 414.868C835.303 419.882 835.009 425.281 834.851 428.179C834.804 429.059 834.767 429.723 834.697 430.28C834.725 431.095 835.114 433.882 835.461 436.351C836.503 443.792 838.078 455.037 837.666 462.891C837.383 468.278 836.353 475.277 835.444 481.452C834.903 485.134 834.263 489.483 834.039 492.069C836.157 493.096 837.733 495.053 837.733 497.885C837.733 499.166 837.862 503.098 837.987 506.901C838.129 511.24 838.264 515.339 838.264 516.954C838.264 517.68 838.403 518.9 838.538 520.08C839.009 524.222 839.455 528.136 837.269 530.577C836.045 531.941 834.041 532.704 829.984 534.163C826.844 535.292 822.099 537 820.44 538.543C815.689 542.967 807.457 545.326 793.747 546.196C792.555 546.271 791.412 546.309 790.352 546.309C784.007 546.309 779.777 544.916 777.424 542.046C775.65 539.882 775.087 537.113 775.75 533.815C776.771 528.75 782.73 521.001 783.914 519.498C784.096 519.268 784.303 519.058 784.532 518.874C791.435 513.314 799.536 506.47 800.915 504.84C801.147 504.135 801.114 502.124 801.093 500.905C801.059 498.838 801.026 496.854 801.539 495.131C799.963 488.406 792.889 457.316 793.441 442.979C793.936 430.089 793.186 425.529 791.824 417.249C791.602 415.899 791.365 414.461 791.117 412.883C790.759 410.609 790.761 407.198 791.123 402.498C779.908 395.072 770.258 380.665 769.828 380.016C769.099 378.919 768.972 377.529 769.492 376.319C769.756 375.702 776.132 361.002 790.416 341.137C792.031 338.886 793.684 336.649 795.4 334.388C784.67 333.723 774.725 332.932 765.757 332.034C720.492 327.492 711.911 321.996 711.911 313.443C711.911 304.89 720.492 299.394 765.757 294.853C783.058 293.117 803.363 291.828 826.144 291.018L826.34 290.419C831.24 275.433 836.796 258.449 839.196 241.041C839.488 238.931 840.267 236.11 841.568 232.465C840.057 231.3 838.37 229.974 836.428 228.296C832.513 224.914 812.55 207.568 803.985 198.211C796.798 190.361 794.148 184.128 792.642 179.573C790.706 173.719 790.535 163.382 790.385 154.264C790.347 151.922 790.31 149.698 790.244 147.722C790.188 146.052 790.151 144.373 790.116 142.723C790.003 137.463 789.834 129.516 788.594 127.891C786.394 125.011 784.984 119.608 784.776 115.986C784.665 114.039 784.954 111.815 785.211 109.854C785.354 108.754 785.571 107.09 785.518 106.582C785.178 104.168 784.662 100.501 787.014 97.624C787.852 96.5993 789.416 95.3864 792.159 95.2885C792.984 94.4735 794.108 93.5721 795.489 92.9478C796.553 92.4672 797.731 92.2231 798.985 92.2231C799.811 92.2231 800.566 92.3312 801.186 92.4647C802.109 92.1875 803.356 91.9053 804.621 91.9053C804.982 91.9053 805.336 91.9282 805.678 91.9739C806.669 92.1049 807.528 92.3846 808.237 92.7012C808.242 92.6999 808.246 92.6999 808.251 92.6986C808.657 92.602 809.095 92.5524 809.543 92.5524C810.708 92.5524 811.941 92.9097 813.024 93.3547C814.155 92.6529 815.539 92.1685 817.12 92.1685C817.84 92.1685 818.57 92.2702 819.29 92.471C820.869 92.9135 822.167 93.9853 822.946 95.4894C824.528 98.5483 823.515 102.187 823.006 103.609C822.775 104.394 822.813 107.348 822.837 109.303C822.879 112.538 822.922 115.883 822.322 118.226C821.569 121.169 819.282 123.659 817.262 125.854C816.695 126.472 815.885 127.352 815.498 127.874C815.662 130.815 817.563 143.847 819.669 151.033C821.284 156.545 823.446 161.717 824.877 165.139C825.409 166.413 825.852 167.476 826.154 168.271C826.856 170.121 830.49 173.124 834.339 176.303L835.144 176.97C835.699 177.429 836.283 177.872 836.888 178.302C836.861 178.102 836.847 177.898 836.847 177.685C836.575 177.35 836.346 176.967 836.171 176.545C835.072 173.885 836.725 169.851 837.956 168.629C838.045 168.522 838.125 168.38 838.213 168.244C838.572 167.695 839.064 166.942 839.889 166.244C840.487 165.738 841.154 165.357 841.814 165.057C842.048 163.38 842.928 161.541 845.404 160.135C846.804 159.339 848.372 158.955 849.866 158.757C849.91 158.585 850.159 157.593 850.159 157.593C850.21 157.38 850.234 157.203 850.258 157.046C850.454 155.764 850.785 154.381 852.467 152.798C853.01 152.288 853.576 151.769 854.189 151.287C854.597 148.903 856.176 147.371 857.145 146.431C857.454 146.131 857.974 145.626 858.045 145.441C858.09 145.3 858.106 145.145 858.134 144.991C858.246 144.362 858.401 143.503 858.866 142.545C859.246 141.761 859.745 141.187 860.146 140.782C860.174 140.269 860.258 139.616 860.528 138.905C861.414 136.572 863.227 135.373 864.426 134.579C864.672 134.417 864.907 134.261 865.092 134.123C865.269 133.803 865.458 133.469 865.704 133.122C866.216 132.398 866.776 131.792 867.434 131.251C867.459 131.117 867.489 130.978 867.526 130.836C868.506 127.152 871.253 124.107 874.694 122.891C875.868 122.476 877.254 122.031 878.652 121.863C878.69 121.858 878.734 121.854 878.782 121.851C879.354 121.043 880.302 120.001 881.878 119.498C882.367 119.343 882.88 119.266 883.408 119.266C883.584 119.266 883.752 119.275 883.91 119.289C884.167 119.055 884.454 118.755 884.75 118.445C886.143 116.987 888.25 114.785 891.888 114.785C892.188 114.785 892.5 114.801 892.823 114.834C892.946 114.732 893.069 114.624 893.171 114.535C893.867 113.927 894.736 113.169 895.948 112.648C896.988 112.202 898.074 111.977 899.179 111.977C901.165 111.977 902.746 112.688 903.902 113.205L904.144 113.313C904.355 113.359 904.602 113.383 904.861 113.416C905.626 113.518 906.987 113.698 908.281 114.301C909.332 113.832 910.584 113.424 912.012 113.424C912.456 113.424 912.901 113.463 913.334 113.543C913.984 113.663 914.509 113.85 914.92 114.039C915.489 113.928 916.031 113.874 916.562 113.874C918.724 113.874 920.619 114.768 922.195 116.531C922.303 116.553 922.419 116.577 922.545 116.605C925.594 117.285 927.061 119.094 928.114 120.497C928.261 120.57 928.465 120.664 928.617 120.734C929.018 120.919 929.413 121.107 929.771 121.308C931.453 122.252 932.72 123.619 933.498 125.311L933.897 125.422C935.274 125.797 936.986 126.264 938.529 127.44C939.232 127.976 939.714 128.541 940.068 128.953C940.173 129.075 940.268 129.204 940.391 129.312C941.226 129.798 942.444 130.35 943.622 130.883C944.17 131.131 944.709 131.373 945.218 131.616C948.57 133.209 949.449 135.84 949.975 137.411C950.096 137.772 950.278 138.317 950.377 138.425C950.532 138.591 950.698 138.726 950.853 138.861C951.673 139.571 953.046 140.763 953.514 143.009C953.55 143.182 953.578 143.336 953.602 143.475C953.957 143.888 954.255 144.306 954.522 144.682C954.692 144.921 954.949 145.283 955.057 145.392C955.228 145.539 955.429 145.66 955.61 145.778C956.598 146.424 958.435 147.627 958.975 150.633C959.04 150.992 959.06 151.332 959.06 151.636C959.376 151.94 959.726 152.301 960.034 152.733C961.531 154.832 961.651 156.725 961.737 158.107C961.767 158.564 961.791 158.959 961.866 159.314C961.927 159.604 962.317 160.298 962.602 160.805C963.167 161.809 963.806 162.947 964.132 164.331C964.378 165.386 964.336 166.301 964.224 167.015C965.554 167.96 967.954 169.71 968.015 173.425C968.029 174.321 967.904 175.083 967.766 175.68C969.178 177.017 970.247 178.715 969.985 181.55C969.88 182.682 969.287 183.712 968.359 184.372C968.345 184.382 968.328 184.393 968.313 184.404C968.43 184.597 968.547 184.779 968.675 184.958C969.403 185.978 969.663 187.105 969.711 188.147C973.05 190.577 974.453 194.45 973.204 197.901C973.092 198.211 972.96 198.489 972.821 198.74C974.894 202.287 972.859 205.319 971.781 206.677C971.772 206.734 971.763 206.792 971.753 206.849C971.673 207.317 971.558 207.987 971.273 208.703C972.15 209.809 972.293 211.064 972.315 211.47C972.52 215.127 969.245 216.52 968.013 217.044C967.974 217.061 967.936 217.077 967.898 217.093C967.584 217.623 967.146 218.074 966.621 218.405C970.558 218.455 973.881 218.528 976.1 218.686C980.181 218.975 983.642 219.129 986.105 219.129C986.9 219.129 987.494 219.113 987.931 219.091C989.477 215.844 992.727 206.731 994.238 201.237C996.773 192.027 998.367 181.244 997.561 178.84C994.606 174.515 992.552 164.882 992.262 162.647C991.848 159.455 994.039 155.808 999.109 148.841C999.49 148.317 999.844 147.833 1000.15 147.401C1002.21 144.515 1004.16 141.789 1007.47 141.789C1008.43 141.789 1009.39 142.042 1010.31 142.539C1011.47 143.161 1012.33 144.007 1012.96 144.84C1014.35 144.956 1016.04 145.347 1017.67 146.364C1019.16 146.527 1021.37 147.062 1023.22 148.722C1024.36 149.746 1025.08 150.765 1025.53 151.659C1027.03 152.522 1029.03 154.046 1029.98 156.412C1030.15 156.837 1030.46 157.376 1030.78 157.948C1031.82 159.785 1033.24 162.301 1033.12 165.841C1032.97 170.145 1031.39 173.272 1028.81 177.912C1027.05 181.065 1025.36 184.852 1024.7 186.367C1024.62 191.158 1024.81 196.535 1025.01 202.211C1025.34 211.409 1025.67 220.921 1024.98 229.979C1023.87 244.575 1019.64 248.972 1015.04 252.521L1014.57 252.889C1011.26 255.476 1002.06 256.112 977.793 256.601C974.804 256.662 971.921 256.721 969.29 256.793C968.122 256.825 966.97 256.839 965.832 256.839C961.073 256.839 956.549 256.586 952.558 256.362C949.263 256.178 946.149 256.004 943.463 256.004C942.004 256.004 940.744 256.053 939.65 256.159C940.079 260.423 940.369 264.152 937.317 268.119C936.448 269.863 935.34 271.782 934.021 273.826C930.547 279.214 927.907 284.245 925.218 290.713C951.411 291.467 975.436 292.891 995.005 294.853C1040.27 299.395 1048.85 304.892 1048.85 313.444C1048.85 321.995 1040.26 327.491 994.999 332.032C973.417 334.197 946.615 335.695 917.246 336.379C919.287 347.977 922.952 359.638 926.266 364.717C933.201 375.345 942.34 392.33 942.725 393.048C943.371 394.25 943.343 395.7 942.649 396.875C942.267 397.523 932.994 412.79 907.314 415.624C906.755 415.687 906.21 415.748 905.677 415.81C905.649 418.727 905.941 420.548 906.207 421.158C909.897 429.574 914.558 443.673 915.807 463.044C916.188 468.957 916.031 475.162 915.894 480.637C915.793 484.584 915.699 488.352 915.852 491.04C916.909 491.752 918.267 492.962 919.305 495.161C920.013 496.656 920.305 497.897 920.565 498.993C920.953 500.638 921.29 502.058 923.421 504.938C923.915 505.604 924.514 506.395 925.187 507.28C932.086 516.377 938.911 525.845 939.986 532.841C940.478 536.045 939.762 538.972 937.914 541.305C934.963 545.033 929.375 547.11 920.328 547.844C919.494 547.911 918.634 547.945 917.769 547.945ZM916.216 315.854C915.982 316.747 915.664 318.604 915.709 321.995C943.18 321.374 968.516 320.037 989.195 318.109C1006 316.544 1016.82 314.859 1023.72 313.429C1016.82 312.004 1006.01 310.342 989.195 308.776C969.607 306.951 945.693 305.647 919.871 304.991C919.055 307.319 918.197 309.798 917.274 312.472C916.915 313.512 916.574 314.599 916.231 315.794C916.226 315.814 916.221 315.833 916.216 315.854ZM736.974 313.443C743.877 314.871 754.696 316.538 771.567 318.109C782.064 319.087 793.778 319.916 806.411 320.578C807.919 318.764 809.369 317.035 810.76 315.378C813.122 312.565 815.353 309.907 817.349 307.423C817.8 306.862 818.278 306.299 818.788 305.731C801.333 306.459 785.48 307.482 771.567 308.777C754.698 310.349 743.877 312.015 736.974 313.443ZM962.37 218.355C962.357 218.347 962.345 218.338 962.332 218.331C962.327 218.338 962.322 218.346 962.315 218.355H962.37Z" fill="#F29E4A" stroke="white" stroke-width="2" mask="url(#path-68-inside-1_103_3636)"/>
</g>
<path id="Vector_65" d="M804.622 95.8115C804.806 95.8115 804.987 95.8219 805.162 95.8452C806.821 96.065 807.829 97.0032 807.829 97.0032C807.829 97.0032 808.185 96.7269 809.147 96.4997C809.269 96.4709 809.402 96.4577 809.542 96.4577C811.1 96.4578 813.66 98.074 813.66 98.074C813.66 98.074 814.872 96.0742 817.119 96.0744C817.467 96.0745 817.841 96.1225 818.238 96.2333C820.09 96.7515 820.262 99.6692 819.322 102.294C818.383 104.917 819.473 113.585 818.533 117.259C817.594 120.934 811.779 125.016 811.591 127.114C811.404 129.213 813.66 144.433 815.916 152.13C818.172 159.829 821.368 166.68 822.496 169.654C823.625 172.629 827.573 175.777 832.649 179.976C834.949 181.878 837.585 183.486 840.481 185.13C840.509 185.093 840.517 185.048 840.55 185.013C841.379 184.134 843.856 184.027 845.169 183.565C845.141 183.379 845.243 183.028 845.584 182.395C845.958 181.697 845.525 180.486 844.761 180.486C844.734 180.486 844.705 180.487 844.677 180.49C844.059 180.56 844.165 181.01 844.199 181.556C843.273 181.414 842.253 180.376 842.371 179.361C842.402 179.105 842.475 178.883 842.571 178.677C842.375 178.732 842.171 178.764 841.974 178.764C841.501 178.764 841.064 178.581 840.858 178.097C840.439 177.118 841.719 176.438 842.3 175.839C842.778 175.345 842.384 175.048 842.202 174.483C842.004 173.869 842.258 173.057 842.877 172.706C843.123 172.566 843.378 172.515 843.636 172.515C844.333 172.515 845.057 172.886 845.73 172.886C845.957 172.886 846.179 172.844 846.391 172.731C846.882 172.47 846.773 172.178 846.737 171.735C846.691 171.175 846.883 170.562 847.282 170.128C847.747 169.623 848.474 169.487 849.21 169.487C849.726 169.487 850.245 169.553 850.683 169.606C850.932 169.637 851.18 169.683 851.427 169.732C851.778 169.437 852.037 169.098 852.011 168.655C851.952 167.66 851.27 167.262 850.51 167.262C850.009 167.262 849.475 167.435 849.062 167.724C848.484 168.129 848.105 168.599 847.455 168.91C847.208 169.028 846.831 168.992 846.536 169.135C845.4 169.684 844.565 170.725 843.353 171.205C842.962 171.361 842.655 171.384 842.416 171.384C842.314 171.384 842.224 171.38 842.145 171.38C841.841 171.38 841.705 171.444 841.661 172.071C841.62 172.667 841.465 175.028 840.646 175.313C840.504 175.363 840.381 175.386 840.274 175.386C838.953 175.386 840.276 171.832 840.714 171.398C841.389 170.728 841.694 169.836 842.416 169.226C843.288 168.488 844.77 168.134 845.846 167.764C845.525 165.959 845.294 164.691 847.339 163.529C849.004 162.583 851.389 162.496 853.287 162.426C853.27 160.925 853.661 159.77 853.965 158.495C854.276 157.185 854.022 156.702 855.15 155.64C856.008 154.833 857.014 153.909 858.112 153.4C857.366 150.086 860.761 149.378 861.716 146.79C862.022 145.957 861.977 145.09 862.383 144.254C862.731 143.537 863.446 143.171 863.819 142.568C864.219 141.923 863.889 141.071 864.186 140.287C864.824 138.607 866.624 137.99 867.864 136.908C868.355 136.479 868.491 135.951 868.899 135.375C869.294 134.818 869.696 134.408 870.26 134.007C870.52 133.822 870.847 133.958 871.051 133.681C871.356 133.264 871.17 132.351 871.306 131.84C871.911 129.566 873.637 127.408 875.999 126.573C876.96 126.233 878.088 125.864 879.119 125.741C879.152 125.737 879.192 125.736 879.235 125.736C879.495 125.736 879.912 125.796 880.237 125.796C880.394 125.796 880.529 125.782 880.614 125.74C881.662 125.228 881.787 123.628 883.067 123.22C883.176 123.186 883.291 123.172 883.409 123.172C883.871 123.172 884.386 123.383 884.83 123.383C884.939 123.383 885.045 123.37 885.143 123.338C885.44 123.242 885.394 123.047 885.62 122.901C887.756 121.512 888.902 118.691 891.889 118.691C892.074 118.691 892.266 118.702 892.467 118.725C893.027 118.788 893.22 118.876 893.425 118.876C893.578 118.876 893.738 118.827 894.063 118.682C895.314 118.124 896.218 116.784 897.493 116.236C898.083 115.984 898.644 115.883 899.179 115.883C900.496 115.883 901.659 116.492 902.71 116.95C903.99 117.508 907.287 117.091 907.571 119.006C908.931 118.412 910.419 117.328 912.013 117.329C912.215 117.329 912.418 117.346 912.623 117.384C913.71 117.584 913.77 118.106 914.473 118.106C914.645 118.106 914.857 118.075 915.133 117.999C915.652 117.856 916.124 117.78 916.563 117.78C917.641 117.78 918.517 118.235 919.385 119.254C920.254 120.275 920.344 120.117 921.697 120.418C923.521 120.824 924.262 121.873 925.201 123.128C925.745 123.858 926.963 124.21 927.851 124.71C929.177 125.455 929.937 126.574 930.269 127.863C930.967 128.357 931.638 128.843 932.226 129.013C933.53 129.387 935.041 129.693 936.156 130.544C936.988 131.18 937.39 132.065 938.289 132.597C939.877 133.542 941.866 134.349 943.538 135.143C946.596 136.596 945.8 139.245 947.515 141.084C948.395 142.03 949.404 142.458 949.684 143.804C949.95 145.08 949.663 144.949 950.534 145.904C951.182 146.615 951.754 147.691 952.452 148.303C953.687 149.383 954.785 149.429 955.126 151.321C955.222 151.855 954.982 152.624 955.154 153.086C955.391 153.716 956.429 154.411 956.849 154.999C958.116 156.776 957.638 158.205 958.038 160.114C958.4 161.838 959.92 163.501 960.324 165.224C960.753 167.053 959.206 167.942 960.767 169.294C962.323 170.64 964.066 171.129 964.105 173.488C964.14 175.743 962.653 176.507 964.546 178.053C965.74 179.028 966.232 179.664 966.091 181.19C964.845 180.886 964.66 179.56 963.96 178.689C962.855 177.316 961.411 177.07 961.787 175.047C962.165 173.018 962.705 172.689 960.931 171.148C960.279 170.58 959.655 170.122 959.115 169.62C958.825 170.225 958.34 170.822 958.101 171.38C957.777 172.137 957.752 172.576 958.018 173.325C960.177 174.124 960.904 175.157 960.638 177.731C960.461 179.431 960.447 179.082 961.641 180.118C962.559 180.915 963.667 182.039 963.804 183.284C963.846 183.662 963.78 184.027 963.661 184.386C963.902 184.677 964.134 184.97 964.315 185.289C964.701 185.972 965.027 186.574 965.488 187.221C966.021 187.969 965.769 189.32 965.608 190.246C966.121 190.566 966.698 190.819 967.194 191.153C968.973 192.352 970.286 194.473 969.526 196.575C969.272 197.276 968.571 197.691 968.339 198.352C968.011 199.28 968.894 199.84 969.363 200.576C970.356 202.135 969.497 203.312 968.465 204.558C967.704 205.479 968.086 207.131 967.227 207.861C967.21 208.198 967.132 208.538 966.967 208.865C966.598 209.596 965.753 209.764 965.678 210.697C965.787 210.705 965.909 210.707 966.04 210.707C966.196 210.707 966.365 210.704 966.537 210.704C967.4 210.704 968.36 210.779 968.41 211.686C968.51 213.489 964.634 213.378 964.534 215.101C963.805 213.503 966.162 213.056 966.699 211.813C965.434 211.288 962.953 211.057 963.394 209.424C963.635 208.53 964.515 208.479 964.626 207.702C964.338 207.358 964.235 206.887 964.179 206.397C963.676 205.881 962.851 205.689 962.103 205.497C962.098 205.967 961.972 206.436 961.736 206.845C961.509 206.741 961.141 206.788 960.911 206.685C959.087 208.479 964.018 211.25 960.014 212.176C959.631 212.264 959.196 212.334 958.796 212.334C958.33 212.334 957.909 212.239 957.67 211.965C957.531 212.111 957.424 212.277 957.427 212.523C957.442 213.559 959.07 214.006 959.324 215.055C959.579 216.115 958.499 216.909 957.393 216.909C957.219 216.909 957.045 216.89 956.875 216.848C955.194 216.441 957.975 214.756 957.332 213.767C957.04 213.318 955.999 213.292 955.339 213.054C954.892 213.225 954.413 213.36 954.113 213.679C953.48 214.354 954.644 214.828 954.566 215.587C954.529 215.938 954.235 216.259 954.237 216.685C954.237 216.888 954.375 217.318 954.229 217.446C954.17 217.5 953.999 217.52 953.814 217.52C953.57 217.52 953.302 217.485 953.228 217.444C952.709 217.154 952.945 216.279 952.693 215.845C952.122 214.863 950.875 214.968 950.814 213.643C950.809 213.536 950.822 213.428 950.828 213.322C950.781 213.388 950.735 213.457 950.675 213.517C950.353 213.843 949.983 214.019 949.642 214.019C949.615 214.019 949.589 214.017 949.563 214.015C949.591 214.103 949.598 214.207 949.54 214.37C948.986 215.937 949.94 216.198 950.248 217.103C950.456 217.717 949.507 218.289 949.044 218.371C948.914 218.394 948.783 218.428 948.656 218.428C948.541 218.428 948.429 218.4 948.321 218.311C948.06 218.096 948.354 217.828 948.188 217.633C948.138 217.574 948.093 217.55 948.052 217.55C947.892 217.55 947.777 217.919 947.546 218.113C947.14 218.455 947.326 218.838 946.817 218.962C946.715 218.987 946.594 218.998 946.461 218.998C945.601 218.998 944.24 218.51 944.407 217.918C944.548 217.415 945.048 217.227 945.023 216.609C945.02 216.549 944.998 216.527 944.987 216.482C944.809 216.536 944.624 216.61 944.433 216.717C943.806 217.069 943.488 218.208 942.881 218.539C942.739 218.617 942.573 218.631 942.403 218.631C942.315 218.631 942.226 218.627 942.139 218.627C941.978 218.627 941.823 218.64 941.696 218.711C941.023 219.09 940.829 219.851 940.095 220.185C939.739 220.347 939.351 220.413 938.953 220.413C938.85 220.413 938.746 220.408 938.642 220.4C940.78 220.943 943.5 221.498 947.079 221.983C956.792 222.335 970.339 222.192 975.823 222.581C979.969 222.876 983.533 223.034 986.107 223.034C988.209 223.034 989.653 222.928 990.216 222.705C991.468 222.206 996.256 208.646 998.01 202.272C999.764 195.897 1003.21 180.046 1000.86 176.735C998.511 173.424 996.467 164.66 996.141 162.144C995.815 159.627 1000.92 153.051 1003.34 149.666C1005.24 147 1006.3 145.695 1007.47 145.695C1007.78 145.695 1008.11 145.789 1008.46 145.978C1010.11 146.865 1010.69 148.821 1010.69 148.821C1010.69 148.821 1011.2 148.705 1011.98 148.705C1013.13 148.705 1014.85 148.958 1016.33 150.21C1016.33 150.21 1016.4 150.206 1016.51 150.206C1017.12 150.206 1019.14 150.311 1020.6 151.626C1022.34 153.19 1022.37 154.464 1022.37 154.464C1022.37 154.464 1025.45 155.614 1026.35 157.866C1027.26 160.119 1029.33 162.241 1029.21 165.707C1029.09 169.174 1027.77 171.742 1025.39 176.012C1023.01 180.282 1020.81 185.528 1020.81 185.528C1020.52 198.225 1022.21 214.92 1021.08 229.684C1019.95 244.448 1015.63 247.106 1012.16 249.814C1008.69 252.521 984.624 252.464 969.182 252.888C968.051 252.92 966.935 252.934 965.832 252.934C957.259 252.934 949.574 252.098 943.465 252.098C940.346 252.098 937.636 252.316 935.43 252.974C935.892 259.3 936.973 262.369 934.013 265.995C934.007 266.001 934.002 266.004 933.997 266.01C933.251 267.55 932.195 269.443 930.733 271.712C925.894 279.217 922.795 285.85 919.526 294.467C947.695 295.168 973.545 296.626 994.614 298.739C1038.84 303.176 1044.94 308.428 1044.94 313.442C1044.94 318.456 1038.84 323.709 994.609 328.145C971.846 330.43 943.504 331.946 912.685 332.571C914.453 345.23 918.604 360.128 922.989 366.849C929.912 377.46 939.28 394.893 939.28 394.893C939.28 394.893 930.913 409.091 906.884 411.743C905.109 411.938 903.469 412.136 901.917 412.333C901.573 416.919 901.813 420.874 902.624 422.724C906.582 431.753 910.745 445.307 911.905 463.294C912.628 474.501 911.35 487.103 912.112 493.132C912.211 493.909 914.337 493.797 915.769 496.827C917.302 500.07 916.281 501.863 920.277 507.259C924.274 512.655 934.96 525.879 936.12 533.434C937.28 540.989 928.896 543.231 920.013 543.951C919.28 544.01 918.531 544.04 917.771 544.04C909.314 544.04 899.501 540.372 896.31 533.111C892.831 525.198 891.029 519.49 888.709 514.094C886.389 508.698 885.178 502.106 885.103 500.002C885.023 497.815 886.905 496.17 886.905 496.17C886.905 496.17 878.27 465.172 875.565 452.941C872.86 440.711 866.674 434.236 864.354 422.724C863.965 420.79 863.575 417.867 863.197 414.366C859.636 413.981 855.563 413.437 850.778 412.705C844.73 411.78 839.475 411.004 834.841 410.317C834.438 411.571 834.073 412.62 833.76 413.378C830.8 420.54 831.096 427.978 830.8 429.906C830.504 431.834 834.353 451.392 833.76 462.686C833.169 473.981 829.086 493.203 830.27 495.131C830.27 495.131 833.822 495.131 833.822 497.885C833.822 500.64 834.353 513.923 834.353 516.954C834.353 519.985 835.834 526.32 834.353 527.973C832.872 529.626 821.623 532.105 817.774 535.686C813.926 539.269 806.525 541.472 793.499 542.298C792.367 542.37 791.321 542.404 790.353 542.404C780.186 542.404 778.775 538.609 779.586 534.585C780.474 530.177 786.987 521.913 786.987 521.913C786.987 521.913 802.381 509.517 804.158 507.038C805.934 504.56 804.158 497.673 805.638 495.469C805.638 495.469 796.757 458.555 797.349 443.129C797.942 427.703 796.758 423.57 794.982 412.276C794.595 409.819 794.741 405.597 795.226 400.437C783.785 393.959 773.087 377.857 773.087 377.857C773.087 377.857 779.394 363.163 793.592 343.415C796.894 338.82 800.051 334.691 803.038 330.922C789.662 330.188 777.237 329.259 766.148 328.147C721.919 323.71 715.822 318.458 715.822 313.444C715.822 308.428 721.919 303.176 766.148 298.739C784.127 296.935 805.601 295.613 829.013 294.827C834.126 279.14 840.447 260.605 843.071 241.574C843.414 239.086 844.611 235.362 846.236 231.129C844.266 229.592 841.886 227.847 838.988 225.343C830.256 217.799 814.044 203.41 806.871 195.575C799.698 187.741 797.472 181.722 796.357 178.349C794.129 171.611 794.464 156.877 794.153 147.592C793.841 138.307 794.153 128.732 791.705 125.524C790.125 123.455 788.859 118.85 788.681 115.76C788.503 112.672 789.667 108.006 789.393 106.051C789.019 103.396 788.917 101.472 790.044 100.093C790.644 99.3592 791.68 99.1875 792.517 99.1876C793.255 99.1876 793.839 99.3205 793.839 99.3205C793.839 99.3205 795.144 97.39 797.1 96.5071C797.726 96.2245 798.382 96.1285 798.985 96.1285C800.267 96.1285 801.308 96.5623 801.308 96.5623C801.308 96.5623 803.064 95.8113 804.622 95.8115ZM849.292 165.542C850.02 165.365 850.649 164.917 851.417 164.786C852.362 164.626 853.435 164.677 854.36 164.436C855.997 164.013 856.28 162.248 857.153 161.072C857.486 160.625 857.98 160.327 858.073 159.813C858.17 159.286 857.91 158.773 858.047 158.182C858.197 157.537 858.493 156.385 859.138 156.015C859.079 155.993 859.022 155.969 858.987 155.969C858.948 155.969 858.935 155.998 858.973 156.092C858.924 156.174 857.708 156.762 857.332 157.168C856.647 157.906 856.425 158.797 856.43 159.738C856.439 161.132 856.541 161.678 855.239 162.328C853.964 162.964 853.205 163.871 851.739 163.934C850.41 163.991 849.071 163.93 849.292 165.542ZM956.238 162.857C956.394 162.6 956.623 162.339 956.618 161.955C956.607 161.259 955.854 160.89 955.692 160.256C955.47 159.39 956.344 158.514 955.954 157.713C955.73 157.251 954.801 156.819 953.997 156.715C954.058 156.906 954.121 157.093 954.136 157.325C954.225 158.819 954.033 159.928 954.821 161.314C955.166 161.92 955.645 162.446 956.238 162.857ZM956.642 170.484C956.655 170.186 956.664 169.886 956.706 169.578C956.94 167.852 955.808 166.897 954.41 166.092C954.52 167.357 954.741 168.574 955.601 169.518C955.919 169.869 956.295 170.172 956.642 170.484ZM847.162 174.574C846.826 174.574 846.467 174.417 846.171 174.214C845.8 173.961 845.491 173.788 845.185 173.788C844.916 173.788 844.649 173.921 844.344 174.25C843.746 174.894 844.166 175.161 844.459 175.845C844.664 176.32 844.62 176.753 844.438 177.143C845.701 176.607 847.22 176.31 848.029 175.599C848.853 174.873 848.624 174.229 848.565 173.266C848.536 172.778 848.552 172.436 848.614 172.163C848.554 172.222 848.495 172.293 848.442 172.394C848.158 172.929 848.268 173.647 847.933 174.149C847.728 174.457 847.453 174.574 847.162 174.574ZM847.248 178.764C847.595 178.764 847.936 178.161 848.545 178.161C848.55 178.161 848.555 178.161 848.559 178.161C849.737 178.18 849.97 179.128 849.374 180.05C848.807 180.924 848.038 181.44 847.262 182.146C847.176 182.223 847.04 182.413 846.897 182.626C847.237 182.568 847.578 182.508 847.915 182.402C848.756 182.14 850.284 182.136 850.971 181.717C851.835 181.189 851.517 180.127 851.361 179.363C851.009 177.638 852.373 177.623 853.401 176.403C854.141 175.527 854.789 174.726 854.711 173.561C854.67 173.373 854.606 173.295 854.528 173.295C854.209 173.295 853.645 174.586 853.384 174.967C852.961 175.587 852.631 175.636 851.908 175.898C850.997 176.227 850.131 176.295 849.196 176.515C848.24 176.74 845.993 178.049 847.084 178.716C847.139 178.75 847.194 178.764 847.248 178.764ZM956.717 176.345C956.713 176.345 956.71 176.345 956.706 176.344C956.65 176.343 956.617 176.327 956.568 176.321C956.64 176.615 956.697 176.892 956.749 177.105C956.91 177.77 956.514 178.161 956.592 178.782C956.685 179.536 957.368 181.264 957.769 181.89C958.46 182.967 959.969 183.54 960.846 184.503C961.04 184.716 961.234 184.954 961.428 185.187C961.694 184.858 961.827 184.435 961.753 183.931C961.679 183.424 961.426 182.961 961.155 182.522C960.968 182.357 960.765 182.2 960.514 182.054C959.645 181.548 958.836 181.852 958.632 180.544C958.728 180.533 959.108 177.377 957.989 175.896C957.58 176.122 956.987 176.345 956.717 176.345ZM846.469 188.484C846.493 187.873 846.408 187.283 846.14 186.861C845.735 186.221 844.745 185.614 843.821 185.614C843.602 185.614 843.387 185.648 843.184 185.724C842.873 185.841 842.623 186.014 842.394 186.207C843.707 186.937 845.058 187.684 846.469 188.484ZM960.139 201.433C961.587 201.012 960.197 198.561 959.838 197.77C959.37 196.741 959.735 196.205 960.217 195.241C960.514 194.647 960.527 194.031 960.059 193.55C959.789 193.274 959.265 192.86 958.751 192.58C958.534 192.25 958.247 191.862 958.031 191.475C957.597 191.184 957.27 190.818 957.03 190.402C956.493 190.936 956.307 191.982 956.307 192.612C956.307 193.49 956.852 194.207 957.44 194.877C957.783 195.267 958.413 195.618 958.336 196.18C958.276 196.618 957.869 196.816 957.865 197.28C957.855 198.379 959.263 198.563 959.73 199.393C959.978 199.837 959.711 200.12 959.748 200.573C959.773 200.879 959.94 201.192 960.139 201.433ZM965.645 205.073C965.712 204.961 965.786 204.827 965.874 204.641C966.323 203.69 965.773 203.005 965.939 201.968C966.079 201.093 968.101 201.282 967.874 200.228C967.594 198.934 965.398 198.559 965.2 197.361C965.019 196.27 967.086 196.15 967.284 195.045C967.551 193.558 966.17 192.478 965.036 191.734C964.485 191.371 964.012 191.243 963.576 191.243C963.504 191.243 963.434 191.246 963.364 191.253C963.207 191.695 962.945 192.193 963.106 192.594C963.374 193.262 964.163 193.286 964.466 193.957C965.26 195.709 961.915 196.63 962.734 198.703C963.013 199.412 963.9 199.505 963.967 200.621C964.016 201.428 963.462 202.057 963.516 202.822C963.602 204.036 964.704 204.472 965.645 205.073ZM959.159 210.667C959.322 209.819 958.665 208.886 958.912 207.998C959.254 206.768 961.102 206.173 959.23 204.692C957.803 204.755 957.523 206.34 956.993 207.49C957.625 208.187 958.165 208.942 958.514 209.82C958.567 209.954 958.609 210.07 958.645 210.181C958.822 210.263 958.997 210.417 959.159 210.667ZM936.924 219.932C936.553 219.763 936.205 219.565 935.906 219.355C935.848 219.436 935.793 219.503 935.737 219.571C936.106 219.689 936.502 219.808 936.924 219.932ZM911.975 325.98C940.828 325.403 967.646 324.04 989.558 321.998C1024.61 318.731 1034.47 314.949 1037.11 313.442C1034.47 311.936 1024.61 308.152 989.558 304.887C968.955 302.968 944.017 301.647 917.127 301.016C916.026 304.113 914.866 307.467 913.577 311.199C913.164 312.396 912.784 313.622 912.43 314.864L912.432 314.866C911.749 317.478 911.643 321.402 911.975 325.98ZM808.175 324.58C812.779 318.995 816.889 314.238 820.399 309.868C821.93 307.96 823.75 306.129 825.646 304.423C826.029 303.468 826.401 302.499 826.763 301.515C806.335 302.24 787.422 303.377 771.204 304.888C736.154 308.153 726.29 311.937 723.649 313.444C726.29 314.949 736.152 318.733 771.204 321.998C782.38 323.038 794.83 323.904 808.175 324.58ZM804.623 88C803.323 87.9999 802.068 88.2074 801.008 88.4668C800.387 88.376 799.706 88.317 798.985 88.317C797.172 88.317 795.453 88.6777 793.877 89.3894C792.558 89.9847 791.425 90.7521 790.486 91.5329C787.843 91.9522 785.58 93.2016 783.984 95.154C780.658 99.2235 781.223 104.103 781.61 106.877C781.588 107.39 781.436 108.554 781.333 109.345C781.054 111.479 780.739 113.897 780.872 116.209C781.067 119.6 782.394 125.961 785.249 129.942C785.973 131.923 786.113 138.445 786.206 142.798C786.242 144.467 786.278 146.165 786.335 147.853C786.4 149.78 786.436 151.985 786.474 154.32C786.63 163.721 786.806 174.376 788.929 180.798C790.556 185.721 793.41 192.449 801.098 200.846C809.806 210.359 829.925 227.842 833.87 231.25C834.973 232.203 836.01 233.057 836.972 233.827C836.111 236.498 835.574 238.68 835.322 240.508C833.074 256.81 827.955 272.88 823.273 287.214C801.515 288.032 782.059 289.292 765.366 290.967C744.468 293.063 730.214 295.531 721.788 298.511C718.378 299.717 708 303.388 708 313.444C708 323.499 718.378 327.169 721.788 328.375C730.214 331.355 744.469 333.823 765.367 335.919C772.355 336.62 779.926 337.255 787.991 337.816C787.739 338.163 787.487 338.512 787.237 338.861C772.709 359.068 766.169 374.148 765.898 374.78C764.859 377.201 765.111 379.981 766.569 382.176C766.994 382.816 776.018 396.289 787.072 404.427C786.845 408.346 786.907 411.283 787.254 413.489C787.504 415.074 787.742 416.521 787.965 417.878C789.285 425.908 790.013 430.331 789.533 442.83C788.986 457.068 795.583 486.754 797.519 495.112C797.117 497.084 797.151 499.1 797.183 500.969C797.193 501.591 797.207 502.419 797.189 503.058C794.67 505.464 787.845 511.187 782.077 515.832C781.619 516.201 781.204 516.62 780.84 517.082C778.535 520.007 773.051 527.418 771.917 533.044C770.788 538.65 772.643 542.38 774.399 544.521C777.541 548.353 782.76 550.216 790.353 550.216C791.495 550.216 792.72 550.175 793.996 550.094C808.671 549.163 817.649 546.482 823.108 541.401C824.288 540.365 829.03 538.658 831.309 537.838C835.636 536.281 838.247 535.342 840.183 533.181C843.539 529.435 842.946 524.23 842.423 519.639C842.313 518.667 842.175 517.459 842.175 516.954C842.175 515.275 842.039 511.144 841.896 506.771C841.778 503.176 841.644 499.102 841.644 497.885C841.644 494.771 840.337 492.053 838.178 490.153C838.475 487.721 838.937 484.585 839.315 482.015C840.236 475.757 841.28 468.664 841.572 463.094C842.003 454.868 840.398 443.402 839.335 435.815C839.039 433.699 838.707 431.329 838.623 430.363C838.682 429.776 838.716 429.138 838.757 428.39C838.882 426.1 839.074 422.571 840.084 418.992C843.022 419.43 846.181 419.904 849.594 420.426C851.95 420.787 854.14 421.103 856.191 421.379C856.356 422.488 856.521 423.447 856.685 424.264C858.039 430.979 860.443 436.051 862.769 440.955C864.826 445.295 866.77 449.394 867.927 454.626C870.136 464.614 876.073 486.332 878.413 494.813C877.674 496.426 877.213 498.283 877.285 500.284C877.396 503.379 878.819 510.891 881.522 517.176C882.454 519.344 883.3 521.576 884.28 524.16C885.595 527.63 887.086 531.562 889.147 536.251C893.885 547.028 906.937 551.851 917.771 551.851C918.739 551.851 919.707 551.813 920.645 551.737C927.066 551.217 936.16 549.82 940.983 543.727C943.521 540.521 944.513 536.552 943.852 532.25C942.639 524.351 935.507 514.419 928.306 504.923C927.644 504.05 927.053 503.272 926.565 502.613C924.911 500.379 924.708 499.52 924.372 498.095C924.099 496.94 923.725 495.359 922.842 493.491C921.92 491.541 920.775 490.135 919.695 489.125C919.651 486.788 919.726 483.818 919.804 480.735C919.944 475.178 920.104 468.88 919.711 462.792C918.432 442.972 913.661 428.463 909.856 419.741C909.829 419.635 909.797 419.473 909.766 419.256C935.852 415.631 945.609 399.555 946.021 398.855C947.406 396.505 947.464 393.603 946.172 391.2C945.783 390.476 936.567 373.351 929.543 362.585C926.936 358.59 923.977 349.635 921.968 340.168C949.611 339.437 974.841 337.98 995.391 335.918C1016.29 333.822 1030.54 331.354 1038.97 328.374C1042.38 327.168 1052.76 323.497 1052.76 313.442C1052.76 303.389 1042.38 299.718 1038.97 298.511C1030.55 295.531 1016.29 293.063 995.396 290.967C977.204 289.142 955.178 287.781 931.145 286.988C933.004 283.067 934.96 279.585 937.31 275.941C938.628 273.896 939.75 271.964 940.655 270.184C943.253 266.655 943.847 263.183 943.818 259.91C946.32 259.925 949.249 260.089 952.342 260.262C956.383 260.488 960.964 260.745 965.832 260.745C967.045 260.745 968.245 260.729 969.398 260.697C972.022 260.625 974.899 260.567 977.881 260.506C1004.36 259.971 1012.7 259.31 1016.98 255.966L1017.43 255.613C1022.55 251.667 1027.65 246.46 1028.88 230.277C1029.59 221 1029.25 211.378 1028.92 202.073C1028.73 196.759 1028.56 191.71 1028.6 187.211C1029.37 185.487 1030.78 182.408 1032.23 179.809C1034.6 175.554 1036.84 171.533 1037.03 165.974C1037.19 161.339 1035.31 158.015 1034.19 156.029C1033.98 155.655 1033.69 155.142 1033.61 154.953C1032.45 152.064 1030.32 150.108 1028.43 148.859C1027.81 147.872 1026.97 146.839 1025.84 145.821C1023.58 143.785 1020.97 142.945 1018.98 142.608C1017.73 141.934 1016.37 141.453 1014.95 141.175C1014.19 140.414 1013.27 139.692 1012.16 139.097C1010.67 138.293 1009.08 137.883 1007.47 137.883C1002.14 137.883 999.274 141.902 996.968 145.131C996.665 145.556 996.32 146.03 995.948 146.541C990.966 153.388 987.749 158.243 988.383 163.146C988.604 164.847 990.492 174.699 993.827 180.251C994.09 183.362 992.543 192.658 990.467 200.202C989.219 204.739 986.896 211.375 985.344 215.218C983.034 215.19 979.958 215.043 976.378 214.789C976.176 214.775 975.967 214.761 975.749 214.748C976.18 213.523 976.279 212.316 976.22 211.253C976.164 210.235 975.922 209.197 975.489 208.214C978.08 204.396 977.903 201.056 977.071 198.663C978.426 194.213 976.979 189.445 973.372 186.104C973.28 185.69 973.159 185.27 973.003 184.848C973.481 183.946 973.784 182.949 973.88 181.91C974.196 178.492 973.12 176.074 971.899 174.431C971.921 174.095 971.932 173.739 971.926 173.365C971.859 169.251 969.898 166.707 968.199 165.175C968.163 164.631 968.083 164.051 967.94 163.442C967.489 161.52 966.636 160.001 966.012 158.892C965.903 158.697 965.767 158.455 965.669 158.271C965.659 158.143 965.649 157.989 965.642 157.861C965.545 156.328 965.364 153.475 963.221 150.468C963.091 150.286 962.959 150.114 962.827 149.953C962.826 149.947 962.825 149.942 962.824 149.937C961.995 145.33 958.976 143.313 957.794 142.538C957.766 142.498 957.738 142.458 957.71 142.418C957.574 142.227 957.418 142.008 957.241 141.771C956.487 138.787 954.672 137.017 953.671 136.132C953.085 134.381 951.715 130.377 946.899 128.089C946.369 127.838 945.81 127.584 945.241 127.327C944.405 126.949 943.547 126.561 942.854 126.198C942.431 125.711 941.795 125.017 940.909 124.34C939.254 123.078 937.512 122.415 936.103 121.988C934.993 120.315 933.495 118.918 931.688 117.903C931.304 117.687 930.945 117.51 930.627 117.36C929.411 115.865 927.466 113.936 924.195 112.996C921.515 110.528 918.628 109.969 916.563 109.969C916.163 109.969 915.763 109.989 915.359 110.029C914.957 109.902 914.518 109.789 914.039 109.701C913.38 109.58 912.698 109.517 912.016 109.517C910.598 109.517 909.322 109.783 908.217 110.142C907.371 109.887 906.427 109.684 905.377 109.545C905.334 109.539 905.292 109.534 905.25 109.528C903.922 108.937 901.829 108.071 899.18 108.071C897.54 108.071 895.934 108.404 894.406 109.059C893.154 109.597 892.18 110.283 891.431 110.888C886.715 111.057 883.778 113.827 882.219 115.438C881.698 115.506 881.187 115.62 880.69 115.778C878.924 116.341 877.64 117.298 876.725 118.23C875.503 118.49 874.373 118.86 873.385 119.21C868.966 120.773 865.403 124.543 863.946 129.146C863.432 129.667 862.959 130.235 862.511 130.866C862.38 131.052 862.263 131.229 862.158 131.395C860.715 132.351 858.169 134.1 856.871 137.52C856.658 138.083 856.515 138.621 856.419 139.113C856.05 139.593 855.671 140.172 855.341 140.855C854.822 141.923 854.564 142.898 854.41 143.638C853.492 144.53 851.634 146.339 850.715 149.103C850.391 149.39 850.082 149.676 849.787 149.954C847.736 151.885 846.952 153.773 846.578 155.451C845.537 155.75 844.486 156.163 843.473 156.738C840.593 158.375 839.127 160.454 838.423 162.471C838.065 162.708 837.708 162.971 837.36 163.266C836.1 164.331 835.373 165.445 834.938 166.111C834.92 166.139 834.902 166.167 834.883 166.195C834.096 167.09 833.334 168.386 832.777 169.876C831.331 168.604 830.155 167.466 829.778 166.8C829.446 165.93 829 164.865 828.488 163.639C827.09 160.295 824.978 155.243 823.424 149.937C821.691 144.027 820.037 133.543 819.548 129.146C819.755 128.918 819.965 128.689 820.143 128.495C822.359 126.086 825.116 123.087 826.112 119.192C826.839 116.349 826.795 112.902 826.749 109.253C826.73 107.727 826.701 105.465 826.809 104.574C828.121 100.663 827.984 96.7169 826.419 93.695C825.136 91.2174 822.98 89.4475 820.347 88.7111C819.28 88.4134 818.196 88.263 817.119 88.263C815.518 88.2628 814.053 88.5927 812.75 89.1298C811.722 88.8367 810.634 88.6463 809.543 88.6462C809.253 88.6462 808.966 88.6588 808.681 88.6839C807.931 88.4293 807.099 88.2219 806.191 88.1016C805.686 88.0344 805.157 88 804.623 88ZM920.009 316.808C920.321 315.721 920.645 314.691 920.972 313.744C921.563 312.034 922.109 310.454 922.625 308.97C947.262 309.646 970.051 310.916 988.832 312.664C991.595 312.922 994.193 313.182 996.631 313.442C994.193 313.703 991.595 313.963 988.831 314.22C969.294 316.041 945.564 317.334 919.795 317.989C919.87 317.396 919.951 317.029 920 316.841C920.003 316.83 920.006 316.819 920.009 316.808ZM764.136 313.443C766.574 313.183 769.168 312.923 771.931 312.666C783.404 311.597 796.206 310.715 810.142 310.032C809.358 310.97 808.553 311.929 807.733 312.906C806.738 314.09 805.714 315.311 804.66 316.574C792.821 315.932 781.827 315.141 771.93 314.22C769.168 313.963 766.573 313.703 764.136 313.443Z" fill="white"/>
</g>
</g>
</g>
</g>
</svg>
