<svg width="142" height="143" viewBox="0 0 142 143" fill="none" xmlns="http://www.w3.org/2000/svg">
<path d="M78 71.73C78 75.58 74.87 78.72 71.01 78.72C67.15 78.72 64.02 75.59 64.02 71.73V2.01C60.16 2.4 56.33 3.1 52.63 4.11V71.73C52.63 81.9 60.9 90.18 71.08 90.18C81.26 90.18 89.53 81.91 89.53 71.73V4.11C85.78 3.09 81.91 2.38 78.01 2V71.74L78 71.73Z" fill="white"/>
<path d="M71.08 104.15C53.21 104.15 38.66 89.61 38.66 71.73V9.59C34.57 11.73 30.67 14.29 27.07 17.2V71.67C27.07 95.9 46.78 115.61 71.01 115.61C95.24 115.61 114.95 95.9 114.95 71.67V17.09C111.38 14.22 107.53 11.7 103.49 9.59V71.73C103.49 89.6 88.95 104.15 71.07 104.15H71.08Z" fill="white"/>
<path d="M71.01 129.58C39.08 129.58 13.1 103.6 13.1 71.67V32.36C5.18 44 1 57.56 1 71.73C1 73.75 1.09 75.83 1.27 77.91C1.47 80.25 1.8 82.6 2.24 84.9C2.67 87.19 3.23 89.48 3.89 91.71C4.57 94 5.37 96.27 6.28 98.46C8.35 103.47 11.01 108.25 14.19 112.66C15.13 113.96 16.1 115.21 17.08 116.4C29.27 131.12 47.15 140.32 66.14 141.64C67.81 141.76 69.48 141.82 71.08 141.82C72.11 141.82 73.16 141.79 74.3 141.74C93.65 140.86 111.97 131.86 124.54 117.05C125.61 115.78 126.65 114.47 127.63 113.13C130.92 108.64 133.66 103.8 135.78 98.71C136.68 96.55 137.49 94.31 138.17 92.05C138.83 89.88 139.38 87.65 139.82 85.43C140.24 83.29 140.57 81.13 140.79 79C141.04 76.6 141.16 74.16 141.16 71.74C141.16 57.49 136.94 43.86 128.93 32.18V71.68C128.93 72.77 128.9 73.91 128.83 75.07C127.06 105.64 101.66 129.59 71.02 129.59L71.01 129.58Z" fill="white"/>
</svg>
